Merriweather-DisplayRegular.ufo
<glyph name="percent" format="2">
  <advance width="1898.756906077348"/>
  <unicode hex="0025"/>
  <outline>
    <contour>
      <point x="586.4972375690606" y="0.0" type="line"/>
      <point x="689.7348066298343" y="0.0" type="line"/>
      <point x="1304.9502762430939" y="1502.0" type="line"/>
      <point x="1200.9944751381215" y="1501.2817679558011" type="line"/>
    </contour>
    <contour>
      <point x="442.83425414364643" y="641.2375690607735" type="curve" smooth="yes"/>
      <point x="645.1049723756906" y="641.2375690607735"/>
      <point x="826.767955801105" y="790.0552486187845"/>
      <point x="826.767955801105" y="1061.1270718232042" type="curve" smooth="yes"/>
      <point x="826.767955801105" y="1290.353591160221"/>
      <point x="724.767955801105" y="1473.0165745856355"/>
      <point x="476.2430939226519" y="1473.0165745856355" type="curve" smooth="yes"/>
      <point x="269.40883977900546" y="1473.0165745856355"/>
      <point x="92.59116022099448" y="1320.1988950276243"/>
      <point x="92.59116022099448" y="1049.1270718232045" type="curve" smooth="yes"/>
      <point x="92.59116022099448" y="826.8011049723757"/>
      <point x="222.43646408839777" y="641.2375690607735"/>
    </contour>
    <contour>
      <point x="455.524861878453" y="684.8729281767955" type="curve" smooth="yes"/>
      <point x="327.2044198895028" y="684.8729281767955"/>
      <point x="261.0662983425414" y="837.657458563536"/>
      <point x="261.0662983425414" y="1058.53591160221" type="curve" smooth="yes"/>
      <point x="261.0662983425414" y="1294.9613259668506"/>
      <point x="334.950276243094" y="1429.9447513812154"/>
      <point x="464.2430939226519" y="1429.9447513812154" type="curve" smooth="yes"/>
      <point x="590.5635359116022" y="1429.9447513812154"/>
      <point x="659.2928176795581" y="1297.707182320442"/>
      <point x="659.2928176795581" y="1053.1270718232045" type="curve" smooth="yes"/>
      <point x="659.2928176795581" y="818.4198895027625"/>
      <point x="584.2541436464088" y="684.8729281767955"/>
    </contour>
    <contour>
      <point x="1421.9502762430939" y="40.82872928176795" type="curve" smooth="yes"/>
      <point x="1624.5027624309394" y="40.82872928176795"/>
      <point x="1806.1657458563536" y="189.64640883977899"/>
      <point x="1806.1657458563536" y="460.7182320441989" type="curve" smooth="yes"/>
      <point x="1806.1657458563536" y="689.9447513812154"/>
      <point x="1704.1657458563539" y="872.6077348066299"/>
      <point x="1455.3591160220994" y="872.6077348066299" type="curve" smooth="yes"/>
      <point x="1248.5248618784528" y="872.6077348066299"/>
      <point x="1071.707182320442" y="719.7900552486187"/>
      <point x="1071.707182320442" y="448.7182320441989" type="curve" smooth="yes"/>
      <point x="1071.707182320442" y="229.20994475138122"/>
      <point x="1201.5524861878453" y="40.82872928176795"/>
    </contour>
    <contour>
      <point x="1434.6408839779006" y="84.46408839779005" type="curve" smooth="yes"/>
      <point x="1306.3204419889503" y="84.46408839779005"/>
      <point x="1240.1823204419888" y="237.2486187845304"/>
      <point x="1240.1823204419888" y="458.12707182320446" type="curve" smooth="yes"/>
      <point x="1240.1823204419888" y="694.5524861878453"/>
      <point x="1314.0662983425414" y="829.53591160221"/>
      <point x="1443.3591160220992" y="829.53591160221" type="curve" smooth="yes"/>
      <point x="1569.6795580110497" y="829.53591160221"/>
      <point x="1638.4088397790058" y="697.2983425414363"/>
      <point x="1638.4088397790058" y="452.7182320441989" type="curve" smooth="yes"/>
      <point x="1638.4088397790058" y="218.01104972375694"/>
      <point x="1563.3701657458562" y="84.46408839779005"/>
    </contour>
  </outline>
</glyph>
<glyph name="quotesingle" format="2">
  <advance width="615.8066298342542"/>
  <unicode hex="0027"/>
  <outline>
    <contour>
      <point x="397.3867403314917" y="1654.707182320442" type="line"/>
      <point x="218.41988950276243" y="1654.707182320442" type="line"/>
      <point x="284.4806629834254" y="1029.4972375690609" type="line"/>
      <point x="329.3259668508287" y="1029.4972375690609" type="line"/>
    </contour>
  </outline>
</glyph>
<glyph name="parenleft" format="2">
  <advance width="779.5303867403316"/>
  <unicode hex="0028"/>
  <outline>
    <contour>
      <point x="108.67403314917127" y="668.0" type="curve" smooth="yes"/>
      <point x="108.67403314917127" y="-5.52486187845304"/>
      <point x="530.1602209944751" y="-313.9447513812155"/>
      <point x="623.7127071823205" y="-369.0718232044199" type="curve"/>
      <point x="667.0220994475138" y="-337.353591160221" type="line"/>
      <point x="557.4696132596684" y="-259.23756906077347"/>
      <point x="275.2817679558011" y="88.646408839779"/>
      <point x="289.56353591160223" y="701.4640883977901" type="curve"/>
      <point x="300.69060773480663" y="1251.3259668508288"/>
      <point x="565.0055248618785" y="1564.110497237569"/>
      <point x="661.8397790055249" y="1629.3812154696132" type="curve"/>
      <point x="624.839779005525" y="1657.0718232044198" type="line"/>
      <point x="515.2872928176796" y="1593.4364640883978"/>
      <point x="108.67403314917127" y="1249.0165745856355"/>
    </contour>
  </outline>
</glyph>
<glyph name="asterisk" format="2">
  <advance width="923.0552486187845"/>
  <unicode hex="002A"/>
  <outline>
    <contour>
      <point x="281.1878453038674" y="1195.7624309392265" type="line"/>
      <point x="83.292817679558" y="1103.3149171270718" type="line"/>
      <point x="152.74585635359114" y="983.6629834254144" type="line"/>
      <point x="330.1767955801105" y="1113.0110497237567" type="line"/>
      <point x="449.0828729281768" y="1224.171270718232" type="line"/>
      <point x="416.16574585635357" y="1064.375690607735" type="line"/>
      <point x="397.8563535911602" y="847.0165745856353" type="line"/>
      <point x="535.7624309392265" y="847.0165745856353" type="line"/>
      <point x="512.0165745856353" y="1065.9392265193371" type="line"/>
      <point x="474.69060773480663" y="1224.171270718232" type="line"/>
      <point x="596.2872928176796" y="1115.7016574585634" type="line"/>
      <point x="774.8729281767957" y="991.07182320442" type="line"/>
      <point x="844.3259668508286" y="1110.7237569060774" type="line"/>
      <point x="643.1491712707182" y="1199.2983425414366" type="line"/>
      <point x="487.353591160221" y="1246.6519337016575" type="line"/>
      <point x="641.867403314917" y="1297.2596685082874" type="line"/>
      <point x="839.7624309392264" y="1389.7071823204421" type="line"/>
      <point x="770.3093922651932" y="1509.3591160220994" type="line"/>
      <point x="592.878453038674" y="1380.0110497237567" type="line"/>
      <point x="473.97237569060775" y="1268.8508287292818" type="line"/>
      <point x="506.88950276243094" y="1428.6464088397788" type="line"/>
      <point x="525.1988950276244" y="1646.0055248618785" type="line"/>
      <point x="387.292817679558" y="1646.0055248618785" type="line"/>
      <point x="411.0386740331492" y="1427.0828729281766" type="line"/>
      <point x="448.36464088397787" y="1268.8508287292816" type="line"/>
      <point x="326.76795580110496" y="1377.3204419889503" type="line"/>
      <point x="148.18232044198896" y="1501.9502762430939" type="line"/>
      <point x="78.7292817679558" y="1382.2983425414366" type="line"/>
      <point x="279.90607734806633" y="1293.7237569060774" type="line"/>
      <point x="435.7016574585635" y="1246.3701657458564" type="line"/>
    </contour>
  </outline>
</glyph>
<glyph name="two" format="2">
  <advance width="1092.585635359116"/>
  <unicode hex="0032"/>
  <outline>
    <contour>
      <point x="10.98342541436465" y="69.5303867403315" type="curve"/>
      <point x="39.325966850828735" y="0.0" type="line"/>
      <point x="973.9779005524861" y="0.0" type="line"/>
      <point x="1045.4309392265193" y="351.7569060773481" type="line"/>
      <point x="979.9944751381215" y="366.41988950276243" type="line"/>
      <point x="882.0662983425415" y="194.97237569060775" type="line"/>
      <point x="194.20994475138122" y="133.40331491712706" type="line"/>
      <point x="570.8950276243094" y="379.878453038674"/>
      <point x="943.7845303867404" y="746.5745856353591"/>
      <point x="943.7845303867404" y="1102.3370165745857" type="curve" smooth="yes"/>
      <point x="943.7845303867404" y="1363.7182320441989"/>
      <point x="743.8508287292818" y="1502.5635359116022"/>
      <point x="517.3149171270717" y="1502.5635359116022" type="curve" smooth="yes"/>
      <point x="320.585635359116" y="1502.5635359116022"/>
      <point x="149.60220994475142" y="1394.0773480662986"/>
      <point x="47.61878453038674" y="1226.9723756906078" type="curve"/>
      <point x="86.64640883977901" y="1188.1823204419888" type="line"/>
      <point x="189.41988950276243" y="1322.9944751381215"/>
      <point x="332.81215469613255" y="1383.9944751381215"/>
      <point x="448.22099447513807" y="1383.9944751381215" type="curve" smooth="yes"/>
      <point x="606.9944751381215" y="1383.9944751381215"/>
      <point x="710.4419889502763" y="1273.1767955801106"/>
      <point x="710.4419889502763" y="1061.2762430939226" type="curve" smooth="yes"/>
      <point x="710.4419889502763" y="694.6740331491712"/>
      <point x="379.5745856353591" y="282.48618784530385"/>
    </contour>
  </outline>
</glyph>
<glyph name="eight" format="2">
  <advance width="1179.5745856353592"/>
  <unicode hex="0038"/>
  <outline>
    <contour>
      <point x="74.0828729281768" y="350.6906077348067" type="curve" smooth="yes"/>
      <point x="74.0828729281768" y="118.60220994475138"/>
      <point x="287.9337016574585" y="-19.12707182320442"/>
      <point x="577.6961325966851" y="-19.12707182320442" type="curve" smooth="yes"/>
      <point x="867.3204419889503" y="-19.12707182320442"/>
      <point x="1105.4917127071824" y="135.2817679558011"/>
      <point x="1105.4917127071824" y="401.8618784530387" type="curve" smooth="yes"/>
      <point x="1105.4917127071824" y="607.7790055248619"/>
      <point x="942.0276243093923" y="713.1436464088398"/>
      <point x="731.1933701657458" y="810.5690607734808" type="curve"/>
      <point x="946.6132596685081" y="893.7348066298342"/>
      <point x="1052.9116022099447" y="1037.2375690607735"/>
      <point x="1052.9116022099447" y="1186.8729281767955" type="curve" smooth="yes"/>
      <point x="1052.9116022099447" y="1370.6519337016575"/>
      <point x="889.779005524862" y="1504.5635359116022"/>
      <point x="620.4696132596684" y="1504.5635359116022" type="curve" smooth="yes"/>
      <point x="375.0" y="1504.5635359116022"/>
      <point x="146.85635359116023" y="1375.46408839779"/>
      <point x="146.85635359116023" y="1123.8563535911603" type="curve" smooth="yes"/>
      <point x="146.85635359116023" y="939.5801104972376"/>
      <point x="279.35911602209944" y="811.2375690607736"/>
      <point x="429.01104972375686" y="725.1933701657459" type="curve"/>
      <point x="193.7900552486188" y="661.2099447513813"/>
      <point x="74.0828729281768" y="510.0718232044199"/>
    </contour>
    <contour>
      <point x="336.54696132596683" y="1202.8618784530386" type="curve" smooth="yes"/>
      <point x="336.54696132596683" y="1361.8176795580112"/>
      <point x="446.75690607734805" y="1454.6187845303868"/>
      <point x="609.1325966850828" y="1454.6187845303868" type="curve" smooth="yes"/>
      <point x="787.4254143646409" y="1454.6187845303868"/>
      <point x="875.1546961325967" y="1316.0718232044198"/>
      <point x="875.1546961325967" y="1160.171270718232" type="curve" smooth="yes"/>
      <point x="875.1546961325967" y="1024.3701657458564"/>
      <point x="813.8895027624309" y="894.0055248618785"/>
      <point x="684.8121546961327" y="830.950276243094" type="curve"/>
      <point x="472.4364640883978" y="940.6519337016574"/>
      <point x="336.54696132596683" y="1026.453038674033"/>
    </contour>
    <contour>
      <point x="895.9834254143647" y="302.939226519337" type="curve" smooth="yes"/>
      <point x="895.9834254143647" y="138.39226519337018"/>
      <point x="762.9723756906078" y="34.12707182320442"/>
      <point x="596.779005524862" y="34.12707182320442" type="curve" smooth="yes"/>
      <point x="400.69613259668506" y="34.12707182320442"/>
      <point x="266.8121546961326" y="188.69060773480663"/>
      <point x="266.8121546961326" y="380.81767955801104" type="curve" smooth="yes"/>
      <point x="266.8121546961326" y="519.6629834254144"/>
      <point x="332.3591160220995" y="650.5303867403316"/>
      <point x="479.82872928176795" y="703.6850828729282" type="curve"/>
      <point x="708.9834254143645" y="587.1657458563536"/>
      <point x="895.9834254143647" y="503.5027624309393"/>
    </contour>
  </outline>
</glyph>
<glyph name="equal" format="2">
  <advance width="1172.0"/>
  <unicode hex="003D"/>
  <outline>
    <contour>
      <point x="1018.0" y="860.4364640883978" type="line"/>
      <point x="154.0" y="860.4364640883978" type="line"/>
      <point x="154.0" y="775.8729281767955" type="line"/>
      <point x="1018.0" y="775.8729281767955" type="line"/>
    </contour>
    <contour>
      <point x="1018.0" y="349.4364640883978" type="line"/>
      <point x="154.0" y="349.4364640883978" type="line"/>
      <point x="154.0" y="264.8729281767956" type="line"/>
      <point x="1018.0" y="264.8729281767956" type="line"/>
    </contour>
  </outline>
</glyph>
<glyph name="B" format="2">
  <advance width="1215.281767955801"/>
  <unicode hex="0042"/>
  <anchor x="616.2872928176796" y="0.0" name="bottom"/>
  <anchor x="616.2872928176796" y="1486.0" name="top"/>
  <outline>
    <contour>
      <point x="167.80110497237567" y="68.69060773480663" type="line"/>
      <point x="22.309392265193377" y="36.281767955801115" type="line"/>
      <point x="22.309392265193377" y="0.0" type="line"/>
      <point x="274.48618784530396" y="0.0" type="line" smooth="yes"/>
      <point x="407.35911602209944" y="0.0"/>
      <point x="449.55801104972375" y="-12.0"/>
      <point x="562.2099447513813" y="-12.0" type="curve" smooth="yes"/>
      <point x="1035.4806629834254" y="-12.0"/>
      <point x="1181.6353591160223" y="200.61878453038676"/>
      <point x="1181.6353591160223" y="439.2265193370166" type="curve" smooth="yes"/>
      <point x="1181.6353591160223" y="643.2707182320441"/>
      <point x="1011.5359116022101" y="781.07182320442"/>
      <point x="772.4640883977901" y="775.3259668508288" type="curve"/>
      <point x="964.2099447513813" y="809.9447513812155"/>
      <point x="1086.53591160221" y="974.1104972375691"/>
      <point x="1086.5359116022103" y="1161.4364640883978" type="curve" smooth="yes"/>
      <point x="1086.53591160221" y="1368.39226519337"/>
      <point x="909.4585635359116" y="1501.4364640883978"/>
      <point x="572.5193370165746" y="1501.4364640883978" type="curve" smooth="yes"/>
      <point x="465.1933701657459" y="1501.4364640883978"/>
      <point x="400.79558011049727" y="1486.0"/>
      <point x="279.10497237569064" y="1486.0" type="curve" smooth="yes"/>
      <point x="23.309392265193377" y="1486.0" type="line"/>
      <point x="23.309392265193377" y="1450.0" type="line"/>
      <point x="167.80110497237567" y="1417.7458563535913" type="line"/>
    </contour>
    <contour>
      <point x="387.7900552486188" y="799.281767955801" type="curve"/>
      <point x="388.50828729281767" y="1436.0276243093924" type="line"/>
      <point x="425.4364640883978" y="1440.0276243093922"/>
      <point x="473.0718232044199" y="1449.900552486188"/>
      <point x="555.657458563536" y="1449.900552486188" type="curve" smooth="yes"/>
      <point x="761.060773480663" y="1449.900552486188"/>
      <point x="861.5911602209945" y="1353.2375690607735"/>
      <point x="861.5911602209945" y="1150.4917127071824" type="curve" smooth="yes"/>
      <point x="861.5911602209945" y="932.7071823204419"/>
      <point x="779.988950276243" y="796.7182320441989"/>
      <point x="597.3425414364641" y="796.7182320441989" type="curve" smooth="yes"/>
      <point x="547.1325966850828" y="796.7182320441989"/>
      <point x="444.49171270718233" y="795.2817679558011"/>
    </contour>
    <contour>
      <point x="387.0718232044199" y="64.40883977900552" type="curve"/>
      <point x="387.7900552486188" y="734.2817679558011" type="line"/>
      <point x="443.77348066298345" y="738.4364640883978"/>
      <point x="548.1049723756906" y="738.5635359116022"/>
      <point x="617.4972375690608" y="738.5635359116022" type="curve" smooth="yes"/>
      <point x="836.2265193370166" y="738.5635359116022"/>
      <point x="939.5469613259667" y="628.6077348066298"/>
      <point x="939.5469613259668" y="416.69060773480663" type="curve" smooth="yes"/>
      <point x="939.5469613259668" y="203.74585635359117"/>
      <point x="866.92817679558" y="40.38121546961325"/>
      <point x="572.2209944751381" y="40.38121546961325" type="curve" smooth="yes"/>
      <point x="504.98342541436466" y="40.38121546961325"/>
      <point x="435.182320441989" y="48.53591160220995"/>
    </contour>
  </outline>
</glyph>
<glyph name="C" format="2">
  <advance width="1238.8618784530388"/>
  <unicode hex="0043"/>
  <anchor x="676.7790055248619" y="0.0" name="bottom"/>
  <anchor x="685.2320441988951" y="1486.0" name="top"/>
  <outline>
    <contour>
      <point x="690.5414364640883" y="-20.56353591160221" type="curve" smooth="yes"/>
      <point x="957.2596685082872" y="-20.56353591160221"/>
      <point x="1010.2596685082873" y="51.12707182320442"/>
      <point x="1114.2596685082872" y="54.0" type="curve"/>
      <point x="1153.8508287292818" y="368.9116022099447" type="line"/>
      <point x="1054.8453038674033" y="384.6574585635359" type="line"/>
      <point x="976.4640883977901" y="158.1436464088398" type="line"/>
      <point x="934.0441988950276" y="104.17127071823204"/>
      <point x="854.4530386740332" y="30.972375690607738"/>
      <point x="732.4143646408841" y="30.972375690607738" type="curve" smooth="yes"/>
      <point x="382.86187845303874" y="30.972375690607738"/>
      <point x="273.25966850828723" y="387.4364640883978"/>
      <point x="273.25966850828723" y="749.3812154696133" type="curve" smooth="yes"/>
      <point x="273.25966850828723" y="1196.878453038674"/>
      <point x="442.7734806629834" y="1449.1546961325967"/>
      <point x="750.6353591160221" y="1449.1546961325967" type="curve" smooth="yes"/>
      <point x="868.0718232044198" y="1449.1546961325967"/>
      <point x="941.9558011049724" y="1406.1381215469612"/>
      <point x="970.6298342541437" y="1364.8397790055249" type="curve"/>
      <point x="1008.2651933701657" y="1079.2596685082874" type="line"/>
      <point x="1138.3149171270718" y="1079.2596685082874" type="line"/>
      <point x="1165.022099447514" y="1437.7182320441989" type="line"/>
      <point x="1061.2099447513815" y="1437.718232044199"/>
      <point x="976.4806629834254" y="1503.4088397790056"/>
      <point x="734.53591160221" y="1503.4088397790056" type="curve" smooth="yes"/>
      <point x="321.77348066298345" y="1503.4088397790056"/>
      <point x="30.0" y="1190.0165745856355"/>
      <point x="30.0" y="727.5359116022099" type="curve" smooth="yes"/>
      <point x="30.0" y="305.5193370165746"/>
      <point x="252.15469613259663" y="-20.56353591160221"/>
    </contour>
  </outline>
</glyph>
<glyph name="E" format="2">
  <advance width="1189.8397790055249"/>
  <unicode hex="0045"/>
  <anchor x="596.2596685082873" y="0.0" name="bottom"/>
  <anchor x="1006.9226519337017" y="20.0" name="ogonek"/>
  <anchor x="610.5138121546961" y="1486.0" name="top"/>
  <anchor x="27.38121546961326" y="1486.0" name="topleft"/>
  <outline>
    <contour>
      <point x="161.33701657458565" y="70.09944751381215" type="line"/>
      <point x="22.309392265193374" y="36.28176795580111" type="line"/>
      <point x="22.309392265193374" y="0.0" type="line"/>
      <point x="1092.0662983425414" y="0.0" type="line"/>
      <point x="1163.364640883978" y="366.1767955801105" type="line"/>
      <point x="1063.1878453038676" y="388.48618784530385" type="line"/>
      <point x="927.9447513812155" y="86.24309392265192" type="line"/>
      <point x="380.7348066298343" y="51.099447513812144" type="line"/>
      <point x="380.7348066298343" y="739.3093922651933" type="line"/>
      <point x="714.9613259668508" y="723.6906077348066" type="line"/>
      <point x="765.0497237569059" y="519.4585635359116" type="line"/>
      <point x="817.3591160220993" y="519.4585635359116" type="line"/>
      <point x="817.3591160220993" y="1000.6243093922652" type="line"/>
      <point x="765.0497237569059" y="1000.6243093922652" type="line"/>
      <point x="714.9613259668507" y="804.0552486187845" type="line"/>
      <point x="380.7348066298343" y="786.2817679558011" type="line"/>
      <point x="380.7348066298343" y="1432.7458563535913" type="line"/>
      <point x="855.878453038674" y="1412.7016574585634" type="line"/>
      <point x="959.839779005525" y="1168.3314917127072" type="line"/>
      <point x="1045.8453038674033" y="1168.3314917127072" type="line"/>
      <point x="1016.1546961325968" y="1486.0" type="line"/>
      <point x="23.309392265193374" y="1486.0" type="line"/>
      <point x="23.309392265193374" y="1450.0" type="line"/>
      <point x="161.33701657458565" y="1417.7458563535913" type="line"/>
    </contour>
  </outline>
</glyph>
<glyph name="L" format="2">
  <advance width="1092.5469613259668"/>
  <unicode hex="004C"/>
  <anchor x="642.1436464088398" y="0.0" name="bottom"/>
  <anchor x="633.9723756906078" y="744.0" name="center"/>
  <anchor x="374.3977900552486" y="1486.0" name="top"/>
  <anchor x="848.7127071823204" y="1110.2817679558011" name="topright"/>
  <outline>
    <contour>
      <point x="161.33701657458565" y="70.09944751381215" type="line"/>
      <point x="22.309392265193377" y="36.28176795580111" type="line"/>
      <point x="22.309392265193377" y="0.0" type="line"/>
      <point x="1010.5193370165747" y="0.0" type="line"/>
      <point x="1082.546961325967" y="421.353591160221" type="line"/>
      <point x="983.6519337016573" y="437.6353591160221" type="line"/>
      <point x="843.5801104972376" y="99.17127071823205" type="line"/>
      <point x="380.7348066298343" y="61.872928176795575" type="line"/>
      <point x="381.45303867403317" y="1417.7458563535913" type="line"/>
      <point x="541.7348066298342" y="1450.0" type="line"/>
      <point x="541.7348066298342" y="1486.0" type="line"/>
      <point x="23.30939226519337" y="1486.0" type="line"/>
      <point x="23.30939226519337" y="1450.0" type="line"/>
      <point x="161.33701657458565" y="1417.7458563535913" type="line"/>
    </contour>
  </outline>
</glyph>
<glyph name="N" format="2">
  <advance width="1368.011049723757"/>
  <unicode hex="004E"/>
  <anchor x="691.3922651933701" y="0.0" name="bottom"/>
  <anchor x="692.0828729281767" y="1486.0" name="top"/>
  <outline>
    <contour>
      <point x="167.54696132596686" y="74.88950276243094" type="line"/>
      <point x="11.038674033149166" y="36.00000000000001" type="line"/>
      <point x="11.038674033149166" y="0.0" type="line"/>
      <point x="419.11049723756906" y="0.0" type="line"/>
      <point x="419.11049723756906" y="36.00000000000001" type="line"/>
      <point x="260.6574585635359" y="74.88950276243095" type="line"/>
      <point x="244.70165745856352" y="1298.9005524861882" type="line"/>
      <point x="355.0939226519337" y="1101.8066298342544" type="line"/>
      <point x="1031.5138121546963" y="0.0" type="line"/>
      <point x="1198.2817679558011" y="0.0" type="line"/>
      <point x="1211.9281767955802" y="1411.3922651933703" type="line"/>
      <point x="1362.0994475138123" y="1450.0" type="line"/>
      <point x="1362.0994475138123" y="1486.0" type="line"/>
      <point x="964.8011049723757" y="1486.0" type="line"/>
      <point x="964.8011049723757" y="1450.0" type="line"/>
      <point x="1119.53591160221" y="1411.3922651933703" type="line"/>
      <point x="1133.46408839779" y="208.79558011049724" type="line"/>
      <point x="1002.6353591160221" y="457.5082872928178" type="line"/>
      <point x="370.74033149171265" y="1486.0" type="line"/>
      <point x="25.530386740331487" y="1486.0" type="line"/>
      <point x="25.530386740331487" y="1444.92817679558" type="line"/>
      <point x="82.50276243093921" y="1437.745856353591"/>
      <point x="174.0386740331492" y="1375.1049723756905"/>
      <point x="178.88397790055248" y="1341.5524861878455" type="curve"/>
    </contour>
  </outline>
</glyph>
<glyph name="V" format="2">
  <advance width="1288.3535911602212"/>
  <unicode hex="0056"/>
  <outline>
    <contour>
      <point x="-27.6353591160221" y="1452.0" type="line"/>
      <point x="99.06629834254144" y="1417.0000000000002" type="line"/>
      <point x="578.4475138121546" y="-11.491712707182321" type="line"/>
      <point x="738.9779005524862" y="-11.491712707182321" type="line"/>
      <point x="1192.6685082872928" y="1417.0000000000002" type="line"/>
      <point x="1328.6961325966852" y="1452.0" type="line"/>
      <point x="1328.6961325966852" y="1486.0" type="line"/>
      <point x="949.3867403314916" y="1486.0" type="line"/>
      <point x="949.3867403314916" y="1452.0" type="line"/>
      <point x="1090.8232044198896" y="1417.0000000000002" type="line"/>
      <point x="753.1933701657458" y="244.2707182320442" type="line"/>
      <point x="727.3756906077348" y="119.34254143646409" type="line"/>
      <point x="700.6850828729282" y="245.3977900552486" type="line"/>
      <point x="338.5082872928176" y="1417.0" type="line"/>
      <point x="485.0441988950276" y="1452.0" type="line"/>
      <point x="485.0441988950276" y="1486.0" type="line"/>
      <point x="-27.6353591160221" y="1486.0" type="line"/>
    </contour>
  </outline>
</glyph>
<glyph name="X" format="2">
  <advance width="1339.6629834254143"/>
  <unicode hex="0058"/>
  <anchor x="1319.325966850829" y="0.0" name="bottomright"/>
  <outline>
    <contour>
      <point x="186.85082872928177" y="64.53591160220994" type="line"/>
      <point x="28.90055248618784" y="36.563535911602216" type="line"/>
      <point x="30.337016574585633" y="0.0" type="line"/>
      <point x="482.0662983425414" y="0.0" type="line"/>
      <point x="480.62983425414365" y="36.563535911602216" type="line"/>
      <point x="304.82320441988946" y="66.69060773480662" type="line"/>
      <point x="616.6353591160222" y="637.1491712707183" type="line"/>
      <point x="925.2928176795581" y="64.81767955801105" type="line"/>
      <point x="764.9834254143647" y="36.563535911602216" type="line"/>
      <point x="766.4198895027624" y="0.0" type="line"/>
      <point x="1316.5082872928176" y="0.0" type="line"/>
      <point x="1315.0718232044198" y="36.563535911602216" type="line"/>
      <point x="1176.6077348066299" y="66.97237569060773" type="line"/>
      <point x="750.353591160221" y="793.5690607734807" type="line"/>
      <point x="1142.011049723757" y="1420.6187845303868" type="line"/>
      <point x="1297.6629834254143" y="1450.0" type="line"/>
      <point x="1297.6629834254143" y="1486.0" type="line"/>
      <point x="851.8232044198895" y="1486.0" type="line"/>
      <point x="851.8232044198895" y="1450.0" type="line"/>
      <point x="1027.9116022099447" y="1418.7458563535913" type="line"/>
      <point x="712.9171270718232" y="857.5966850828729" type="line"/>
      <point x="408.2596685082873" y="1420.3370165745857" type="line"/>
      <point x="567.414364640884" y="1450.0" type="line"/>
      <point x="567.414364640884" y="1486.0" type="line"/>
      <point x="26.535911602209946" y="1486.0" type="line"/>
      <point x="26.535911602209946" y="1450.0" type="line"/>
      <point x="162.8453038674033" y="1418.4640883977902" type="line"/>
      <point x="578.4806629834254" y="707.1767955801105" type="line"/>
    </contour>
  </outline>
</glyph>
<glyph name="bracketright" format="2">
  <advance width="730.7348066298342"/>
  <unicode hex="005D"/>
  <outline>
    <contour>
      <point x="566.1270718232043" y="1459.2596685082872" type="line"/>
      <point x="566.1270718232043" y="1581.7734806629835"/>
      <point x="518.5193370165746" y="1608.0"/>
      <point x="400.1491712707182" y="1608.0" type="curve" smooth="yes"/>
      <point x="315.414364640884" y="1608.0"/>
      <point x="232.87845303867405" y="1589.1546961325967"/>
      <point x="159.77900552486187" y="1572.3093922651933" type="curve"/>
      <point x="159.77900552486187" y="1533.7182320441989" type="line"/>
      <point x="406.61878453038673" y="1533.7182320441989" type="line"/>
      <point x="406.61878453038673" y="-197.71823204419888" type="line"/>
      <point x="159.77900552486187" y="-197.71823204419888" type="line"/>
      <point x="159.77900552486187" y="-236.87292817679557" type="line"/>
      <point x="236.90607734806633" y="-257.1546961325967"/>
      <point x="320.0055248618785" y="-274.0"/>
      <point x="400.1491712707182" y="-274.0" type="curve" smooth="yes"/>
      <point x="518.5193370165746" y="-274.0"/>
      <point x="566.1270718232043" y="-247.7734806629834"/>
      <point x="566.1270718232043" y="-125.25966850828728" type="curve" smooth="yes"/>
    </contour>
  </outline>
</glyph>
<glyph name="a" format="2">
  <advance width="916.4585635359116"/>
  <unicode hex="0061"/>
  <anchor x="428.77900552486193" y="0.0" name="bottom"/>
  <anchor x="765.4861878453039" y="20.0" name="ogonek"/>
  <anchor x="457.44198895027625" y="1110.0" name="top"/>
  <outline>
    <contour>
      <point x="26.646408839779" y="248.79005524861876" type="curve" smooth="yes"/>
      <point x="26.646408839779" y="71.88950276243094"/>
      <point x="162.24861878453038" y="-16.535911602209943"/>
      <point x="301.7734806629834" y="-16.535911602209943" type="curve" smooth="yes"/>
      <point x="461.7016574585636" y="-16.535911602209943"/>
      <point x="568.5745856353591" y="95.01104972375691"/>
      <point x="602.7292817679557" y="165.64640883977899" type="curve"/>
      <point x="602.7292817679557" y="66.84530386740332" type="line" smooth="yes"/>
      <point x="602.7292817679557" y="2.6464088397790055"/>
      <point x="643.7734806629835" y="-16.845303867403317"/>
      <point x="713.07182320442" y="-16.845303867403317" type="curve" smooth="yes"/>
      <point x="786.9060773480663" y="-16.845303867403317"/>
      <point x="851.2486187845304" y="0.8453038674033149"/>
      <point x="893.5303867403314" y="13.43646408839779" type="curve"/>
      <point x="893.5303867403314" y="47.281767955801115" type="line"/>
      <point x="796.8287292817679" y="52.91712707182322" type="line"/>
      <point x="796.8287292817679" y="684.4640883977901" type="line" smooth="yes"/>
      <point x="796.8287292817679" y="916.6077348066299"/>
      <point x="703.4419889502763" y="1034.2817679558011"/>
      <point x="485.4696132596685" y="1034.2817679558011" type="curve" smooth="yes"/>
      <point x="298.87292817679554" y="1034.2817679558011"/>
      <point x="158.3646408839779" y="956.4917127071824"/>
      <point x="84.61878453038673" y="895.3922651933701" type="curve"/>
      <point x="111.05524861878453" y="851.0110497237569" type="line"/>
      <point x="188.47513812154696" y="893.7127071823203"/>
      <point x="294.6298342541436" y="930.867403314917"/>
      <point x="424.0662983425414" y="930.867403314917" type="curve" smooth="yes"/>
      <point x="563.4861878453039" y="930.867403314917"/>
      <point x="599.4475138121547" y="818.4917127071822"/>
      <point x="599.4475138121547" y="696.5801104972375" type="curve" smooth="yes"/>
      <point x="599.4475138121547" y="588.5082872928177" type="line"/>
      <point x="359.4751381215469" y="588.5082872928177"/>
      <point x="26.646408839779" y="495.7348066298342"/>
    </contour>
    <contour>
      <point x="379.939226519337" y="88.31491712707182" type="curve" smooth="yes"/>
      <point x="298.8839779005525" y="88.31491712707182"/>
      <point x="229.33701657458565" y="164.90607734806633"/>
      <point x="229.33701657458565" y="275.524861878453" type="curve" smooth="yes"/>
      <point x="229.33701657458565" y="442.5635359116022"/>
      <point x="393.81767955801104" y="536.2541436464089"/>
      <point x="599.4475138121547" y="536.53591160221" type="curve"/>
      <point x="599.4475138121547" y="197.64640883977904" type="line"/>
      <point x="540.2265193370165" y="128.60773480662982"/>
      <point x="472.2707182320442" y="88.31491712707182"/>
    </contour>
  </outline>
</glyph>
<glyph name="b" format="2">
  <advance width="1039.7845303867402"/>
  <unicode hex="0062"/>
  <anchor x="458.0220994475138" y="-0.8453038674033149" name="bottom"/>
  <anchor x="660.6187845303867" y="1110.2817679558011" name="top"/>
  <outline>
    <contour>
      <point x="-15.027624309392262" y="1551.1049723756905" type="line"/>
      <point x="113.92817679558014" y="1524.2154696132598" type="line"/>
      <point x="113.92817679558014" y="54.0" type="line"/>
      <point x="147.6740331491713" y="48.646408839779006"/>
      <point x="289.3370165745857" y="-22.0"/>
      <point x="512.5303867403316" y="-22.0" type="curve" smooth="yes"/>
      <point x="777.1767955801105" y="-22.0"/>
      <point x="997.220994475138" y="207.72928176795577"/>
      <point x="997.220994475138" y="554.6077348066298" type="curve" smooth="yes"/>
      <point x="997.220994475138" y="857.8453038674033"/>
      <point x="860.7292817679557" y="1036.8176795580112"/>
      <point x="611.5027624309392" y="1036.8176795580112" type="curve" smooth="yes"/>
      <point x="446.74585635359114" y="1036.8176795580112"/>
      <point x="334.64640883977904" y="925.2983425414366"/>
      <point x="307.0276243093922" y="872.889502762431" type="curve"/>
      <point x="307.0276243093922" y="1615.1381215469612" type="line"/>
      <point x="281.756906077348" y="1636.8729281767955" type="line"/>
      <point x="240.88397790055242" y="1636.8729281767955" type="line"/>
      <point x="-15.027624309392262" y="1581.486187845304" type="line"/>
    </contour>
    <contour>
      <point x="542.0718232044198" y="949.939226519337" type="curve" smooth="yes"/>
      <point x="672.7292817679559" y="949.939226519337"/>
      <point x="775.5580110497237" y="826.8729281767957"/>
      <point x="775.5580110497237" y="529.182320441989" type="curve" smooth="yes"/>
      <point x="775.5580110497239" y="202.87292817679557"/>
      <point x="682.1270718232043" y="30.53591160220995"/>
      <point x="495.0220994475138" y="30.535911602209936" type="curve" smooth="yes"/>
      <point x="399.7734806629834" y="30.535911602209943"/>
      <point x="333.61878453038673" y="76.64640883977901"/>
      <point x="307.02762430939225" y="115.15469613259668" type="curve"/>
      <point x="307.0276243093922" y="831.9723756906078" type="line"/>
      <point x="343.29281767955797" y="872.6740331491714"/>
      <point x="422.16022099447514" y="949.939226519337"/>
    </contour>
  </outline>
</glyph>
<glyph name="f" format="2">
  <advance width="603.243093922652"/>
  <unicode hex="0066"/>
  <anchor x="411.25414364640886" y="1613.0" name="top"/>
  <outline>
    <contour>
      <point x="177.41988950276243" y="68.40883977900552" type="line"/>
      <point x="41.4364640883978" y="36.563535911602216" type="line"/>
      <point x="41.4364640883978" y="0.0" type="line"/>
      <point x="530.5027624309392" y="0.0" type="line"/>
      <point x="530.5027624309392" y="36.563535911602216" type="line"/>
      <point x="370.11049723756906" y="66.97237569060773" type="line"/>
      <point x="370.11049723756906" y="932.8563535911602" type="line"/>
      <point x="562.4309392265193" y="932.8563535911602" type="line"/>
      <point x="562.4309392265193" y="1005.0" type="line"/>
      <point x="370.11049723756906" y="1005.0" type="line"/>
      <point x="370.11049723756906" y="1321.3535911602212" type="line" smooth="yes"/>
      <point x="370.11049723756906" y="1495.193370165746"/>
      <point x="417.75690607734805" y="1535.7845303867402"/>
      <point x="544.9060773480663" y="1535.7845303867402" type="curve" smooth="yes"/>
      <point x="622.8618784530387" y="1535.7845303867402"/>
      <point x="687.1049723756905" y="1519.4585635359117"/>
      <point x="718.1491712707182" y="1501.8232044198896" type="curve"/>
      <point x="718.1491712707182" y="1642.8453038674033" type="line"/>
      <point x="702.5856353591159" y="1650.254143646409"/>
      <point x="673.767955801105" y="1659.1270718232045"/>
      <point x="624.0331491712707" y="1659.1270718232045" type="curve" smooth="yes"/>
      <point x="403.55248618784526" y="1659.1270718232045"/>
      <point x="177.41988950276243" y="1451.8950276243097"/>
      <point x="177.41988950276243" y="1123.8950276243095" type="curve" smooth="yes"/>
      <point x="177.41988950276243" y="1003.2817679558011" type="line"/>
      <point x="49.928176795580114" y="970.1381215469612" type="line"/>
      <point x="49.928176795580114" y="932.8563535911602" type="line"/>
      <point x="177.41988950276243" y="932.8563535911602" type="line"/>
    </contour>
  </outline>
</glyph>
<glyph name="h" format="2">
  <advance width="1078.9834254143648"/>
  <unicode hex="0068"/>
  <anchor x="542.6408839779006" y="0.0" name="bottom"/>
  <anchor x="277.65745856353595" y="1300.5469613259665" name="center"/>
  <anchor x="195.16022099447517" y="1600.3093922651933" name="top"/>
  <outline>
    <contour>
      <point x="124.49171270718233" y="68.40883977900553" type="line"/>
      <point x="5.309392265193368" y="36.563535911602216" type="line"/>
      <point x="5.309392265193368" y="0.0" type="line"/>
      <point x="437.9005524861879" y="0.0" type="line"/>
      <point x="437.9005524861879" y="36.563535911602216" type="line"/>
      <point x="319.56353591160223" y="68.40883977900552" type="line"/>
      <point x="319.56353591160223" y="807.6906077348067" type="line"/>
      <point x="401.96685082872926" y="873.3480662983427"/>
      <point x="475.3038674033149" y="911.8397790055249"/>
      <point x="591.3977900552486" y="911.8397790055249" type="curve" smooth="yes"/>
      <point x="732.292817679558" y="911.8397790055249"/>
      <point x="755.110497237569" y="799.5911602209944"/>
      <point x="755.110497237569" y="628.9613259668508" type="curve" smooth="yes"/>
      <point x="755.110497237569" y="68.40883977900553" type="line"/>
      <point x="644.5082872928176" y="36.563535911602216" type="line"/>
      <point x="644.5082872928176" y="0.0" type="line"/>
      <point x="1064.5193370165744" y="0.0" type="line"/>
      <point x="1064.5193370165744" y="36.563535911602216" type="line"/>
      <point x="952.6187845303867" y="68.40883977900553" type="line"/>
      <point x="952.6187845303867" y="633.9889502762431" type="line" smooth="yes"/>
      <point x="952.6187845303867" y="878.5138121546961"/>
      <point x="890.7845303867404" y="1030.3812154696132"/>
      <point x="668.4917127071823" y="1030.3812154696132" type="curve" smooth="yes"/>
      <point x="513.3370165745855" y="1030.3812154696132"/>
      <point x="388.84530386740335" y="927.1988950276244"/>
      <point x="316.0" y="836.5082872928177" type="curve"/>
      <point x="319.56353591160223" y="1001.0552486187846" type="line"/>
      <point x="319.56353591160223" y="1615.1381215469614" type="line"/>
      <point x="292.03867403314916" y="1636.8729281767955" type="line"/>
      <point x="251.44751381215465" y="1636.8729281767955" type="line"/>
      <point x="-4.464088397790057" y="1581.486187845304" type="line"/>
      <point x="-4.464088397790057" y="1551.1049723756907" type="line"/>
      <point x="124.49171270718233" y="1524.2154696132598" type="line"/>
    </contour>
  </outline>
</glyph>
<glyph name="l" format="2">
  <advance width="475.0939226519337"/>
  <unicode hex="006C"/>
  <anchor x="256.9060773480662" y="0.0" name="bottom"/>
  <anchor x="255.8895027624309" y="1634.0" name="top"/>
  <anchor x="522.756906077348" y="1110.2817679558011" name="topright"/>
  <outline>
    <contour>
      <point x="156.0939226519337" y="68.69060773480662" type="line"/>
      <point x="37.348066298342545" y="36.28176795580111" type="line"/>
      <point x="37.348066298342545" y="0.0" type="line"/>
      <point x="466.78453038674024" y="0.0" type="line"/>
      <point x="466.78453038674024" y="36.28176795580111" type="line"/>
      <point x="349.1933701657458" y="68.40883977900552" type="line"/>
      <point x="349.1933701657458" y="1615.1381215469614" type="line"/>
      <point x="323.64088397790056" y="1636.8729281767955" type="line"/>
      <point x="283.3314917127072" y="1636.8729281767955" type="line"/>
      <point x="27.856353591160225" y="1581.486187845304" type="line"/>
      <point x="27.856353591160225" y="1551.1049723756907" type="line"/>
      <point x="156.0939226519337" y="1524.2154696132598" type="line"/>
    </contour>
  </outline>
</glyph>
<glyph name="o" format="2">
  <advance width="1019.9392265193374"/>
  <unicode hex="006F"/>
  <anchor x="511.90607734806645" y="0.0" name="bottom"/>
  <anchor x="511.18784530386745" y="506.2817679558011" name="center"/>
  <anchor x="561.1767955801105" y="10.0" name="ogonek"/>
  <anchor x="511.9060773480664" y="1110.0" name="top"/>
  <anchor x="746.7182320441989" y="1005.0" name="topright"/>
  <outline>
    <contour>
      <point x="44.646408839779006" y="491.59116022099454" type="curve" smooth="yes"/>
      <point x="44.646408839779006" y="204.64088397790053"/>
      <point x="181.87845303867402" y="-22.56353591160221"/>
      <point x="493.6519337016575" y="-22.56353591160221" type="curve" smooth="yes"/>
      <point x="733.8397790055247" y="-22.56353591160221"/>
      <point x="975.292817679558" y="167.57458563535914"/>
      <point x="975.292817679558" y="525.7182320441989" type="curve" smooth="yes"/>
      <point x="975.292817679558" y="811.8232044198895"/>
      <point x="843.3149171270718" y="1039.0"/>
      <point x="528.4419889502764" y="1039.0" type="curve" smooth="yes"/>
      <point x="288.5359116022099" y="1039.0"/>
      <point x="44.646408839779006" y="849.5801104972376"/>
    </contour>
    <contour>
      <point x="511.3149171270717" y="29.127071823204425" type="curve" smooth="yes"/>
      <point x="331.8563535911602" y="29.127071823204425"/>
      <point x="267.1988950276243" y="266.44751381215474"/>
      <point x="267.1988950276243" y="516.9723756906077" type="curve" smooth="yes"/>
      <point x="267.1988950276243" y="832.7624309392264"/>
      <point x="354.91160220994476" y="987.3093922651935"/>
      <point x="513.0331491712707" y="987.3093922651935" type="curve" smooth="yes"/>
      <point x="690.5193370165746" y="987.3093922651935"/>
      <point x="753.3038674033149" y="748.8342541436464"/>
      <point x="753.3038674033149" y="499.77348066298345" type="curve" smooth="yes"/>
      <point x="753.3038674033149" y="186.6740331491713"/>
      <point x="665.7458563535911" y="29.127071823204425"/>
    </contour>
  </outline>
</glyph>
<glyph name="p" format="2">
  <advance width="1053.0110497237567"/>
  <unicode hex="0070"/>
  <anchor x="558.2209944751381" y="1110.5635359116022" name="top"/>
  <outline>
    <contour>
      <point x="1010.4475138121546" y="543.1712707182321" type="curve" smooth="yes"/>
      <point x="1010.4475138121546" y="857.1270718232045"/>
      <point x="873.9558011049724" y="1037.53591160221"/>
      <point x="624.0110497237569" y="1037.53591160221" type="curve" smooth="yes"/>
      <point x="461.4088397790055" y="1037.53591160221"/>
      <point x="347.8729281767956" y="926.7348066298342"/>
      <point x="318.81767955801104" y="872.171270718232" type="curve"/>
      <point x="320.22651933701655" y="995.3093922651933" type="line"/>
      <point x="292.5193370165746" y="1017.0441988950276" type="line"/>
      <point x="247.49171270718233" y="1017.0441988950276" type="line"/>
      <point x="4.662983425414364" y="947.292817679558" type="line"/>
      <point x="4.662983425414364" y="916.9116022099448" type="line"/>
      <point x="127.15469613259667" y="878.5303867403316" type="line"/>
      <point x="127.43646408839778" y="-380.35359116022096" type="line"/>
      <point x="9.845303867403324" y="-412.1988950276243" type="line"/>
      <point x="9.845303867403324" y="-448.76243093922653" type="line"/>
      <point x="469.7292817679558" y="-448.76243093922653" type="line"/>
      <point x="469.7292817679558" y="-412.1988950276243" type="line"/>
      <point x="320.25414364640875" y="-381.07182320441984" type="line"/>
      <point x="320.25414364640875" y="-161.84530386740332" type="line"/>
      <point x="317.38121546961327" y="12.364640883977902" type="line"/>
      <point x="349.8453038674033" y="-3.3812154696132604"/>
      <point x="432.7734806629834" y="-22.0"/>
      <point x="525.756906077348" y="-22.0" type="curve" smooth="yes"/>
      <point x="789.6850828729282" y="-22.0"/>
      <point x="1010.4475138121546" y="207.01104972375694"/>
    </contour>
    <contour>
      <point x="555.2983425414363" y="950.6574585635359" type="curve" smooth="yes"/>
      <point x="687.3922651933702" y="950.6574585635359"/>
      <point x="788.7845303867402" y="827.5911602209947"/>
      <point x="788.7845303867402" y="525.646408839779" type="curve" smooth="yes"/>
      <point x="788.7845303867402" y="202.87292817679557"/>
      <point x="695.3535911602211" y="30.535911602209943"/>
      <point x="508.2486187845305" y="30.535911602209943" type="curve" smooth="yes"/>
      <point x="413.00000000000006" y="30.535911602209943"/>
      <point x="346.8453038674033" y="76.64640883977901"/>
      <point x="320.2541436464088" y="115.1546961325967" type="curve"/>
      <point x="320.25414364640886" y="831.9723756906077" type="line"/>
      <point x="356.5193370165746" y="872.6740331491712"/>
      <point x="436.3867403314917" y="950.6574585635359"/>
    </contour>
  </outline>
</glyph>
<glyph name="r" format="2">
  <advance width="682.4254143646409"/>
  <unicode hex="0072"/>
  <anchor x="227.99447513812154" y="0.0" name="bottom"/>
  <anchor x="369.6132596685083" y="1110.0" name="top"/>
  <outline>
    <contour>
      <point x="16.309392265193374" y="0.0" type="line"/>
      <point x="470.9447513812155" y="0.0" type="line"/>
      <point x="470.9447513812155" y="36.5635359116022" type="line"/>
      <point x="330.1270718232044" y="68.69060773480663" type="line"/>
      <point x="329.8453038674033" y="721.9834254143647" type="line"/>
      <point x="387.05524861878445" y="825.0055248618785"/>
      <point x="479.65745856353595" y="855.2430939226521"/>
      <point x="576.6408839779006" y="855.2430939226521" type="curve" smooth="yes"/>
      <point x="606.6022099447514" y="855.2430939226521"/>
      <point x="628.4640883977901" y="844.9171270718233"/>
      <point x="641.1546961325967" y="836.817679558011" type="curve"/>
      <point x="641.1546961325967" y="1018.5635359116021" type="line"/>
      <point x="629.8729281767955" y="1023.4088397790056"/>
      <point x="614.3093922651933" y="1026.9723756906078"/>
      <point x="588.900552486188" y="1026.9723756906078" type="curve" smooth="yes"/>
      <point x="451.80110497237575" y="1026.9723756906078"/>
      <point x="342.74585635359114" y="865.7403314917128"/>
      <point x="327.2817679558011" y="769.2099447513813" type="curve"/>
      <point x="323.1546961325967" y="754.8453038674033" type="line"/>
      <point x="328.15469613259665" y="924.1712707182321" type="line"/>
      <point x="328.8729281767956" y="996.5911602209944" type="line"/>
      <point x="302.03867403314916" y="1017.0441988950276" type="line"/>
      <point x="248.3922651933702" y="1017.0441988950276" type="line"/>
      <point x="11.40883977900553" y="947.292817679558" type="line"/>
      <point x="11.40883977900553" y="916.6298342541437" type="line"/>
      <point x="132.90055248618788" y="878.5303867403316" type="line"/>
      <point x="132.90055248618788" y="68.40883977900552" type="line"/>
      <point x="16.309392265193374" y="36.563535911602216" type="line"/>
    </contour>
  </outline>
</glyph>
<glyph name="t" format="2">
  <advance width="590.121546961326"/>
  <unicode hex="0074"/>
  <anchor x="321.7348066298343" y="0.0" name="bottom"/>
  <anchor x="238.7237569060773" y="556.0" name="center"/>
  <anchor x="280.0497237569061" y="1361.2707182320444" name="top"/>
  <anchor x="551.9226519337017" y="1110.2817679558011" name="topright"/>
  <outline>
    <contour>
      <point x="327.1436464088398" y="-17.38121546961326" type="curve" smooth="yes"/>
      <point x="438.0662983425415" y="-17.38121546961326"/>
      <point x="534.0939226519338" y="27.972375690607734"/>
      <point x="584.7569060773479" y="73.1988950276243" type="curve"/>
      <point x="563.8121546961327" y="118.67955801104972" type="line"/>
      <point x="529.5303867403316" y="97.24309392265194"/>
      <point x="458.64640883977904" y="76.96132596685084"/>
      <point x="420.6464088397789" y="76.96132596685084" type="curve" smooth="yes"/>
      <point x="376.88397790055245" y="76.96132596685084"/>
      <point x="350.5745856353591" y="97.27071823204419"/>
      <point x="350.5745856353591" y="197.4585635359116" type="curve" smooth="yes"/>
      <point x="350.5745856353591" y="935.6740331491712" type="line"/>
      <point x="554.4861878453039" y="935.6740331491712" type="line"/>
      <point x="554.4861878453039" y="1005.0" type="line"/>
      <point x="350.4475138121547" y="1005.0" type="line"/>
      <point x="350.7292817679558" y="1316.0441988950274" type="line"/>
      <point x="262.9060773480663" y="1316.0441988950274" type="line"/>
      <point x="242.65193370165744" y="1234.3149171270718"/>
      <point x="208.80662983425415" y="1132.5690607734805"/>
      <point x="190.5524861878453" y="1089.8232044198894" type="curve" smooth="yes"/>
      <point x="174.04419889502762" y="1053.7237569060774"/>
      <point x="157.6906077348066" y="1021.5082872928178"/>
      <point x="126.30939226519337" y="1006.4088397790056" type="curve" smooth="yes"/>
      <point x="102.80110497237565" y="995.0276243093923"/>
      <point x="43.646408839779006" y="981.3370165745857"/>
      <point x="19.475138121546955" y="973.2375690607735" type="curve"/>
      <point x="19.475138121546955" y="935.6740331491712" type="line"/>
      <point x="151.0939226519337" y="935.6740331491712" type="line"/>
      <point x="151.0939226519337" y="172.93370165745856" type="line" smooth="yes"/>
      <point x="151.0939226519337" y="27.635359116022094"/>
      <point x="217.939226519337" y="-17.38121546961326"/>
    </contour>
  </outline>
</glyph>
<glyph name="z" format="2">
  <advance width="927.9779005524861"/>
  <unicode hex="007A"/>
  <anchor x="467.8066298342542" y="0.0" name="bottom"/>
  <anchor x="478.42541436464086" y="1110.2817679558011" name="top"/>
  <outline>
    <contour>
      <point x="682.0773480662986" y="956.9005524861878" type="line"/>
      <point x="564.9834254143645" y="825.4419889502763" type="line"/>
      <point x="37.98342541436464" y="54.000000000000014" type="line"/>
      <point x="73.20994475138122" y="0.0" type="line"/>
      <point x="846.3038674033149" y="0.0" type="line"/>
      <point x="886.2486187845304" y="330.4696132596685" type="line"/>
      <point x="793.4530386740331" y="346.69613259668506" type="line"/>
      <point x="687.8729281767955" y="74.09944751381217" type="line"/>
      <point x="241.0441988950276" y="48.25414364640884" type="line"/>
      <point x="377.85635359116026" y="208.78453038674033" type="line"/>
      <point x="884.8839779005525" y="950.1546961325968" type="line"/>
      <point x="851.657458563536" y="1005.0" type="line"/>
      <point x="97.51933701657458" y="1004.1546961325967" type="line"/>
      <point x="92.7292817679558" y="685.4751381215469" type="line"/>
      <point x="187.59668508287294" y="686.3204419889503" type="line"/>
      <point x="246.04972375690605" y="933.7458563535912" type="line"/>
    </contour>
  </outline>
</glyph>
<glyph name="braceright" format="2">
  <advance width="936.0386740331492"/>
  <unicode hex="007D"/>
  <outline>
    <contour>
      <point x="363.1491712707182" y="-274.81767955801104" type="curve" smooth="yes"/>
      <point x="558.7182320441989" y="-274.81767955801104"/>
      <point x="668.2541436464088" y="-183.15469613259668"/>
      <point x="668.2541436464088" y="-20.900552486187845" type="curve" smooth="yes"/>
      <point x="668.2541436464088" y="165.69060773480663"/>
      <point x="565.5193370165746" y="307.8618784530387"/>
      <point x="565.5193370165746" y="456.4806629834254" type="curve" smooth="yes"/>
      <point x="565.5193370165746" y="575.182320441989"/>
      <point x="634.0386740331492" y="644.0552486187845"/>
      <point x="848.3314917127071" y="642.6187845303867" type="curve"/>
      <point x="848.3314917127071" y="701.8011049723757" type="line"/>
      <point x="634.0386740331492" y="700.3646408839779"/>
      <point x="565.5193370165746" y="765.6906077348067"/>
      <point x="565.5193370165746" y="882.0828729281768" type="curve" smooth="yes"/>
      <point x="565.5193370165746" y="1030.4198895027623"/>
      <point x="668.2541436464088" y="1172.8729281767955"/>
      <point x="668.2541436464088" y="1357.745856353591" type="curve" smooth="yes"/>
      <point x="668.2541436464088" y="1521.1546961325967"/>
      <point x="562.7182320441988" y="1611.3812154696132"/>
      <point x="357.09392265193367" y="1611.3812154696132" type="curve" smooth="yes"/>
      <point x="276.38674033149175" y="1611.3812154696132"/>
      <point x="215.70718232044197" y="1596.8453038674033"/>
      <point x="143.3259668508287" y="1576.0" type="curve"/>
      <point x="143.3259668508287" y="1531.8453038674033" type="line"/>
      <point x="164.93370165745856" y="1535.0"/>
      <point x="236.59116022099448" y="1536.7182320441989"/>
      <point x="257.6353591160221" y="1536.7182320441989" type="curve" smooth="yes"/>
      <point x="363.69060773480663" y="1536.7182320441989"/>
      <point x="482.5027624309393" y="1499.4917127071824"/>
      <point x="482.5027624309393" y="1340.1712707182319" type="curve" smooth="yes"/>
      <point x="482.5027624309393" y="1215.5248618784528"/>
      <point x="423.3756906077348" y="1033.8342541436461"/>
      <point x="423.3756906077348" y="892.9337016574585" type="curve" smooth="yes"/>
      <point x="423.3756906077348" y="753.3646408839778"/>
      <point x="536.707182320442" y="690.8729281767955"/>
      <point x="687.8232044198894" y="670.3093922651934" type="curve"/>
      <point x="536.707182320442" y="650.9005524861878"/>
      <point x="423.3756906077348" y="580.889502762431"/>
      <point x="423.3756906077348" y="444.1933701657459" type="curve" smooth="yes"/>
      <point x="423.3756906077348" y="302.7292817679558"/>
      <point x="482.5027624309393" y="121.06629834254144"/>
      <point x="482.5027624309393" y="-3.2983425414364627" type="curve" smooth="yes"/>
      <point x="482.5027624309393" y="-164.92817679558013"/>
      <point x="367.09944751381215" y="-201.28176795580112"/>
      <point x="259.6077348066298" y="-201.28176795580112" type="curve" smooth="yes"/>
      <point x="235.1270718232044" y="-201.28176795580112"/>
      <point x="164.93370165745856" y="-198.12707182320443"/>
      <point x="143.3259668508287" y="-194.97237569060775" type="curve"/>
      <point x="143.3259668508287" y="-238.0" type="line"/>
      <point x="212.77900552486187" y="-259.6906077348066"/>
      <point x="285.3149171270719" y="-274.81767955801104"/>
    </contour>
  </outline>
</glyph>
<glyph name="asciitilde" format="2">
  <advance width="1188.0"/>
  <unicode hex="007E"/>
  <outline>
    <contour>
      <point x="154.0" y="546.0" type="curve"/>
      <point x="190.00000000000003" y="489.0" type="line"/>
      <point x="240.00000000000003" y="559.9999999999999"/>
      <point x="315.0" y="610.0"/>
      <point x="394.99999999999994" y="610.0" type="curve" smooth="yes"/>
      <point x="557.0" y="610.0"/>
      <point x="580.0" y="426.0"/>
      <point x="768.0" y="426.0" type="curve" smooth="yes"/>
      <point x="880.0" y="426.0"/>
      <point x="981.0000000000001" y="494.0"/>
      <point x="1034.0000000000002" y="581.0" type="curve"/>
      <point x="991.0000000000001" y="645.0" type="line"/>
      <point x="941.0000000000001" y="574.0"/>
      <point x="860.0" y="517.0"/>
      <point x="778.0" y="517.0" type="curve" smooth="yes"/>
      <point x="621.0" y="517.0"/>
      <point x="590.0" y="701.0"/>
      <point x="415.0" y="701.0" type="curve" smooth="yes"/>
      <point x="306.0" y="701.0"/>
      <point x="203.0" y="629.0"/>
    </contour>
  </outline>
</glyph>
<glyph name="exclamdown" format="2">
  <advance width="406.939226519337"/>
  <unicode hex="00A1"/>
  <outline>
    <contour>
      <point x="95.19337016574588" y="-267.6629834254143" type="line"/>
      <point x="311.7458563535912" y="-267.6629834254143" type="line"/>
      <point x="230.878453038674" y="1089.3591160220994" type="line"/>
      <point x="170.0331491712707" y="1089.3591160220994" type="line"/>
    </contour>
    <contour>
      <point x="213.00552486187848" y="1496.0" type="curve" smooth="yes"/>
      <point x="143.94475138121547" y="1496.0"/>
      <point x="87.18232044198895" y="1447.4917127071824"/>
      <point x="87.18232044198895" y="1372.6574585635358" type="curve" smooth="yes"/>
      <point x="87.18232044198895" y="1316.9226519337017"/>
      <point x="121.353591160221" y="1264.4696132596687"/>
      <point x="193.62430939226516" y="1264.4696132596687" type="curve" smooth="yes"/>
      <point x="260.585635359116" y="1264.4696132596687"/>
      <point x="319.47513812154693" y="1316.3867403314916"/>
      <point x="319.47513812154693" y="1387.8121546961324" type="curve" smooth="yes"/>
      <point x="319.47513812154693" y="1452.3922651933701"/>
      <point x="270.7403314917127" y="1496.0"/>
    </contour>
  </outline>
</glyph>
<glyph name="currency" format="2">
  <advance width="1381.7790055248618"/>
  <unicode hex="00A4"/>
  <outline>
    <contour>
      <point x="369.353591160221" y="459.7458563535912" type="curve"/>
      <point x="164.0" y="254.67403314917132" type="line"/>
      <point x="216.12707182320446" y="199.11049723756904" type="line"/>
      <point x="423.32596685082876" y="409.02762430939225" type="line"/>
      <point x="498.3259668508287" y="349.3370165745856"/>
      <point x="591.4530386740331" y="317.77348066298345"/>
      <point x="688.4530386740331" y="317.77348066298345" type="curve" smooth="yes"/>
      <point x="781.7624309392264" y="317.77348066298345"/>
      <point x="868.8895027624309" y="347.2099447513812"/>
      <point x="943.3259668508286" y="402.61878453038673" type="curve"/>
      <point x="1150.3701657458564" y="192.13812154696132" type="line"/>
      <point x="1227.779005524862" y="270.1104972375691" type="line"/>
      <point x="1020.5801104972375" y="476.4640883977901" type="line"/>
      <point x="1085.243093922652" y="554.6906077348067"/>
      <point x="1123.5248618784528" y="652.2265193370166"/>
      <point x="1123.5248618784528" y="760.6906077348067" type="curve" smooth="yes"/>
      <point x="1123.5248618784528" y="870.1546961325967"/>
      <point x="1084.8066298342542" y="970.0"/>
      <point x="1015.7071823204419" y="1047.5359116022098" type="curve"/>
      <point x="1221.624309392265" y="1252.6077348066297" type="line"/>
      <point x="1165.0607734806629" y="1309.1712707182319" type="line"/>
      <point x="957.4530386740331" y="1101.2541436464087" type="line"/>
      <point x="882.635359116022" y="1158.7900552486187"/>
      <point x="789.353591160221" y="1192.2265193370165"/>
      <point x="688.4530386740331" y="1192.2265193370165" type="curve" smooth="yes"/>
      <point x="595.2983425414365" y="1192.2265193370165"/>
      <point x="508.29834254143645" y="1163.5082872928176"/>
      <point x="436.2983425414365" y="1107.2265193370167" type="curve"/>
      <point x="227.97237569060775" y="1319.1436464088397" type="line"/>
      <point x="154.0" y="1242.6077348066299" type="line"/>
      <point x="361.1988950276243" y="1033.9723756906078" type="line"/>
      <point x="299.2541436464088" y="956.1546961325967"/>
      <point x="263.6906077348066" y="853.5911602209944"/>
      <point x="263.6906077348066" y="745.0" type="curve" smooth="yes"/>
      <point x="263.6906077348066" y="635.3812154696133"/>
      <point x="301.69060773480663" y="536.6906077348067"/>
    </contour>
    <contour>
      <point x="699.3812154696133" y="424.11049723756906" type="curve" smooth="yes"/>
      <point x="539.1049723756905" y="424.11049723756906"/>
      <point x="400.292817679558" y="580.7237569060774"/>
      <point x="400.292817679558" y="759.7734806629834" type="curve" smooth="yes"/>
      <point x="400.292817679558" y="927.6132596685082"/>
      <point x="516.5414364640884" y="1081.5801104972377"/>
      <point x="678.8618784530387" y="1081.5801104972377" type="curve" smooth="yes"/>
      <point x="844.3204419889503" y="1081.5801104972377"/>
      <point x="987.6961325966851" y="916.6022099447514"/>
      <point x="987.6961325966851" y="738.7900552486187" type="curve" smooth="yes"/>
      <point x="987.6961325966851" y="569.0773480662983"/>
      <point x="860.3646408839778" y="424.11049723756906"/>
    </contour>
  </outline>
</glyph>
<glyph name="brokenbar" format="2">
  <advance width="722.3812154696133"/>
  <unicode hex="00A6"/>
  <outline>
    <contour>
      <point x="407.74033149171277" y="1738.0" type="line"/>
      <point x="314.64088397790056" y="1738.0" type="line"/>
      <point x="314.64088397790056" y="928.0" type="line"/>
      <point x="407.74033149171277" y="928.0" type="line"/>
    </contour>
    <contour>
      <point x="407.74033149171277" y="626.0" type="line"/>
      <point x="314.64088397790056" y="626.0" type="line"/>
      <point x="314.64088397790056" y="-182.0" type="line"/>
      <point x="407.74033149171277" y="-182.0" type="line"/>
    </contour>
  </outline>
</glyph>
<glyph name="micro" format="2">
  <advance width="1044.7845303867402"/>
  <unicode hex="00B5"/>
  <outline>
    <contour>
      <point x="123.39226519337016" y="-363.43646408839777" type="line"/>
      <point x="293.0276243093923" y="-363.43646408839777" type="line"/>
      <point x="293.0276243093923" y="73.13812154696132" type="line"/>
      <point x="331.1546961325967" y="23.82872928176796"/>
      <point x="396.11049723756906" y="-19.43646408839779"/>
      <point x="510.28729281767954" y="-19.43646408839779" type="curve" smooth="yes"/>
      <point x="599.6519337016574" y="-19.43646408839779"/>
      <point x="684.353591160221" y="45.43646408839779"/>
      <point x="729.2099447513812" y="151.2375690607735" type="curve"/>
      <point x="729.2099447513812" y="67.40883977900553" type="line" smooth="yes"/>
      <point x="729.2099447513812" y="38.92817679558012"/>
      <point x="732.0276243093923" y="-17.12707182320442"/>
      <point x="846.1160220994475" y="-17.12707182320442" type="curve" smooth="yes"/>
      <point x="909.950276243094" y="-17.12707182320442"/>
      <point x="981.5193370165747" y="1.6906077348066306"/>
      <point x="1017.6022099447513" y="12.872928176795577" type="curve"/>
      <point x="1017.6022099447513" y="47.2817679558011" type="line"/>
      <point x="918.0552486187845" y="52.91712707182321" type="line"/>
      <point x="918.0552486187845" y="996.3093922651933" type="line"/>
      <point x="892.0939226519338" y="1017.0441988950276" type="line"/>
      <point x="854.9668508287292" y="1017.0441988950276" type="line"/>
      <point x="605.1823204419888" y="947.5745856353591" type="line"/>
      <point x="605.1823204419888" y="916.6298342541436" type="line"/>
      <point x="724.828729281768" y="878.2486187845304" type="line"/>
      <point x="724.828729281768" y="197.22651933701658" type="line"/>
      <point x="662.6629834254144" y="119.13259668508287"/>
      <point x="583.0055248618785" y="98.54143646408839"/>
      <point x="516.0055248618786" y="98.54143646408839" type="curve" smooth="yes"/>
      <point x="335.3425414364641" y="98.54143646408839"/>
      <point x="316.4640883977901" y="246.13812154696134"/>
      <point x="316.4640883977901" y="325.94475138121544" type="curve" smooth="yes"/>
      <point x="316.4640883977901" y="996.3093922651933" type="line"/>
      <point x="290.1933701657459" y="1017.0441988950276" type="line"/>
      <point x="250.4475138121547" y="1017.0441988950276" type="line"/>
      <point x="6.408839779005526" y="947.5745856353591" type="line"/>
      <point x="6.408839779005526" y="916.6298342541437" type="line"/>
      <point x="122.67403314917125" y="878.2486187845304" type="line"/>
    </contour>
  </outline>
</glyph>
<glyph name="guillemetright" format="2">
  <advance width="1091.3370165745857"/>
  <unicode hex="00BB"/>
  <outline>
    <contour>
      <point x="600.8232044198895" y="943.2320441988951" type="line"/>
      <point x="560.1325966850828" y="919.2044198895027" type="line"/>
      <point x="822.2707182320443" y="522.4088397790055" type="line"/>
      <point x="560.1325966850828" y="137.1767955801105" type="line"/>
      <point x="600.8232044198895" y="108.71270718232044" type="line"/>
      <point x="1012.4640883977901" y="494.1270718232044" type="line"/>
      <point x="1012.4640883977901" y="548.099447513812" type="line"/>
    </contour>
    <contour>
      <point x="142.07182320441987" y="943.2320441988951" type="line"/>
      <point x="100.81767955801105" y="919.2044198895027" type="line"/>
      <point x="386.3646408839779" y="522.4088397790055" type="line"/>
      <point x="100.81767955801105" y="137.1767955801105" type="line"/>
      <point x="142.07182320441987" y="108.71270718232044" type="line"/>
      <point x="576.5580110497237" y="494.1270718232044" type="line"/>
      <point x="576.5580110497237" y="548.099447513812" type="line"/>
    </contour>
  </outline>
</glyph>
<glyph name="questiondown" format="2">
  <advance width="795.4364640883977"/>
  <unicode hex="00BF"/>
  <outline>
    <contour>
      <point x="545.8618784530387" y="1089.3591160220994" type="curve"/>
      <point x="480.5524861878453" y="1089.3591160220994" type="line"/>
      <point x="491.524861878453" y="986.9944751381215"/>
      <point x="499.9337016574586" y="892.9779005524862"/>
      <point x="499.9337016574586" y="815.9779005524862" type="curve" smooth="yes"/>
      <point x="499.9337016574586" y="792.9060773480662"/>
      <point x="497.96132596685084" y="758.4696132596686"/>
      <point x="492.2983425414364" y="739.9337016574585" type="curve"/>
      <point x="411.9779005524862" y="570.5911602209944"/>
      <point x="45.80110497237569" y="502.8563535911602"/>
      <point x="45.80110497237568" y="150.81767955801104" type="curve" smooth="yes"/>
      <point x="45.80110497237569" y="-108.5635359116022"/>
      <point x="205.29834254143648" y="-296.0"/>
      <point x="560.889502762431" y="-296.0" type="curve" smooth="yes"/>
      <point x="651.0220994475139" y="-296.0"/>
      <point x="751.9668508287292" y="-271.7734806629834"/>
      <point x="792.2209944751381" y="-248.3646408839779" type="curve"/>
      <point x="772.3756906077348" y="-159.4364640883978" type="line"/>
      <point x="734.9392265193369" y="-177.15469613259668"/>
      <point x="661.6298342541436" y="-186.84530386740332"/>
      <point x="608.1491712707183" y="-186.84530386740332" type="curve" smooth="yes"/>
      <point x="362.0828729281768" y="-186.84530386740332"/>
      <point x="216.66298342541435" y="-39.110497237569064"/>
      <point x="216.66298342541435" y="200.28176795580112" type="curve" smooth="yes"/>
      <point x="216.66298342541435" y="347.01657458563534"/>
      <point x="270.4088397790056" y="442.2154696132597"/>
      <point x="360.3370165745857" y="503.19889502762436" type="curve"/>
      <point x="518.0828729281768" y="609.3646408839778"/>
      <point x="615.4143646408841" y="675.121546961326"/>
      <point x="614.4143646408841" y="778.4419889502763" type="curve"/>
      <point x="611.2596685082873" y="856.8950276243095"/>
      <point x="575.1436464088399" y="995.1657458563535"/>
    </contour>
    <contour>
      <point x="512.878453038674" y="1496.0" type="curve" smooth="yes"/>
      <point x="443.81767955801104" y="1496.0"/>
      <point x="387.0552486187845" y="1447.4917127071824"/>
      <point x="387.0552486187845" y="1372.6574585635358" type="curve" smooth="yes"/>
      <point x="387.0552486187845" y="1316.9226519337017"/>
      <point x="421.2265193370166" y="1264.4696132596687"/>
      <point x="493.4972375690608" y="1264.4696132596687" type="curve" smooth="yes"/>
      <point x="560.4585635359117" y="1264.4696132596687"/>
      <point x="619.3480662983426" y="1316.3867403314916"/>
      <point x="619.3480662983426" y="1387.8121546961324" type="curve" smooth="yes"/>
      <point x="619.3480662983426" y="1452.3922651933701"/>
      <point x="570.6132596685084" y="1496.0"/>
    </contour>
  </outline>
</glyph>
<glyph name="multiply" format="2">
  <advance width="1139.9834254143648"/>
  <unicode hex="00D7"/>
  <outline>
    <contour>
      <point x="513.4917127071823" y="565.4364640883978" type="line"/>
      <point x="165.4917127071823" y="197.4364640883978" type="line"/>
      <point x="221.49171270718233" y="135.4364640883978" type="line"/>
      <point x="566.4917127071824" y="509.4364640883977" type="line"/>
      <point x="912.4917127071823" y="135.4364640883978" type="line"/>
      <point x="974.4917127071824" y="197.4364640883978" type="line"/>
      <point x="626.4917127071824" y="563.4364640883978" type="line"/>
      <point x="974.4917127071824" y="931.4364640883978" type="line"/>
      <point x="912.4917127071824" y="993.4364640883978" type="line"/>
      <point x="569.4917127071823" y="622.4364640883979" type="line"/>
      <point x="221.49171270718233" y="993.4364640883978" type="line"/>
      <point x="165.49171270718233" y="931.4364640883978" type="line"/>
    </contour>
  </outline>
</glyph>
<glyph name="eth" format="2">
  <advance width="997.9668508287294"/>
  <unicode hex="00F0"/>
  <outline>
    <contour>
      <point x="494.1160220994475" y="-22.0" type="curve" smooth="yes"/>
      <point x="859.0773480662983" y="-22.0"/>
      <point x="953.6022099447514" y="359.5027624309392"/>
      <point x="953.6022099447514" y="601.5635359116022" type="curve" smooth="yes"/>
      <point x="953.6022099447514" y="956.1602209944749"/>
      <point x="848.1657458563536" y="1334.1546961325969"/>
      <point x="497.74033149171277" y="1562.2430939226522" type="curve"/>
      <point x="499.51381215469615" y="1530.889502762431" type="line"/>
      <point x="637.3204419889503" y="1713.7955801104972" type="line"/>
      <point x="577.7569060773482" y="1749.077348066298" type="line"/>
      <point x="431.5580110497238" y="1546.6961325966852" type="line"/>
      <point x="491.56906077348066" y="1564.7790055248618" type="line"/>
      <point x="379.3425414364641" y="1631.2596685082874"/>
      <point x="312.09944751381215" y="1657.3314917127072"/>
      <point x="183.00000000000003" y="1692.2596685082872" type="curve"/>
      <point x="159.8011049723757" y="1631.6795580110497" type="line"/>
      <point x="242.5082872928177" y="1609.4254143646408"/>
      <point x="356.9889502762431" y="1556.2265193370167"/>
      <point x="424.34254143646405" y="1503.0994475138123" type="curve"/>
      <point x="439.28729281767954" y="1556.889502762431" type="line"/>
      <point x="266.76243093922653" y="1336.9281767955802" type="line"/>
      <point x="326.88950276243094" y="1303.2099447513813" type="line"/>
      <point x="489.13259668508283" y="1516.3535911602212" type="line"/>
      <point x="428.2596685082873" y="1498.5635359116025" type="line"/>
      <point x="643.8066298342542" y="1328.5524861878453"/>
      <point x="719.7071823204419" y="1139.7071823204421"/>
      <point x="741.7071823204419" y="961.7071823204419" type="curve"/>
      <point x="694.5248618784531" y="1000.9171270718233"/>
      <point x="632.160220994475" y="1039.0"/>
      <point x="525.6795580110497" y="1039.0" type="curve" smooth="yes"/>
      <point x="258.5801104972375" y="1039.0"/>
      <point x="44.646408839779006" y="817.7237569060773"/>
      <point x="44.646408839779006" y="495.99999999999994" type="curve" smooth="yes"/>
      <point x="44.646408839779006" y="226.0"/>
      <point x="159.71823204419888" y="-22.0"/>
    </contour>
    <contour>
      <point x="510.6795580110497" y="28.000000000000007" type="curve" smooth="yes"/>
      <point x="315.82872928176795" y="28.000000000000007"/>
      <point x="268.7900552486188" y="296.6850828729282"/>
      <point x="268.7900552486188" y="513.0" type="curve" smooth="yes"/>
      <point x="268.7900552486188" y="745.596685082873"/>
      <point x="338.72928176795574" y="984.0"/>
      <point x="520.5524861878453" y="984.0" type="curve" smooth="yes"/>
      <point x="625.1546961325967" y="984.0"/>
      <point x="684.8287292817679" y="928.171270718232"/>
      <point x="733.5303867403314" y="858.1436464088398" type="curve"/>
      <point x="742.403314917127" y="767.3701657458563"/>
      <point x="741.6850828729281" y="641.0828729281768"/>
      <point x="741.6850828729281" y="542.0828729281768" type="curve" smooth="yes"/>
      <point x="741.6850828729281" y="278.5414364640884"/>
      <point x="693.939226519337" y="28.000000000000007"/>
    </contour>
  </outline>
</glyph>
<glyph name="divide" format="2">
  <advance width="1135.9999999999998"/>
  <unicode hex="00F7"/>
  <outline>
    <contour>
      <point x="556.0" y="772.0" type="curve" smooth="yes"/>
      <point x="639.0" y="772.0"/>
      <point x="700.0" y="820.0"/>
      <point x="700.0" y="902.9999999999999" type="curve" smooth="yes"/>
      <point x="700.0" y="966.0000000000001"/>
      <point x="655.0" y="1025.0"/>
      <point x="576.0" y="1025.0" type="curve" smooth="yes"/>
      <point x="499.99999999999994" y="1025.0"/>
      <point x="435.0" y="969.0"/>
      <point x="435.0" y="893.0" type="curve" smooth="yes"/>
      <point x="435.0" y="821.0"/>
      <point x="493.0" y="772.0"/>
    </contour>
    <contour>
      <point x="981.9999999999999" y="607.0" type="line"/>
      <point x="154.0" y="607.0" type="line"/>
      <point x="154.0" y="521.0" type="line"/>
      <point x="981.9999999999999" y="521.0" type="line"/>
    </contour>
    <contour>
      <point x="435.0" y="224.0" type="curve" smooth="yes"/>
      <point x="435.0" y="152.0"/>
      <point x="493.0" y="103.0"/>
      <point x="556.0" y="103.0" type="curve" smooth="yes"/>
      <point x="639.0" y="103.0"/>
      <point x="700.0" y="151.0"/>
      <point x="700.0" y="234.0" type="curve" smooth="yes"/>
      <point x="700.0" y="297.0"/>
      <point x="655.0" y="356.0"/>
      <point x="575.9999999999999" y="356.0" type="curve" smooth="yes"/>
      <point x="499.99999999999994" y="356.0"/>
      <point x="435.0" y="300.0"/>
    </contour>
  </outline>
</glyph>
<glyph name="oslash" format="2">
  <advance width="1019.9392265193374"/>
  <unicode hex="00F8"/>
  <anchor x="511.90607734806645" y="0.0" name="bottom"/>
  <anchor x="511.18784530386745" y="506.2817679558011" name="center"/>
  <anchor x="542.7237569060774" y="9.999999999999998" name="ogonek"/>
  <anchor x="511.9060773480664" y="1110.0" name="top"/>
  <anchor x="685.6685082872929" y="1005.0" name="topright"/>
  <outline>
    <contour>
      <point x="44.646408839779006" y="491.59116022099454" type="curve" smooth="yes"/>
      <point x="44.646408839779006" y="204.64088397790053"/>
      <point x="181.87845303867402" y="-22.56353591160221"/>
      <point x="493.6519337016575" y="-22.56353591160221" type="curve" smooth="yes"/>
      <point x="733.8397790055247" y="-22.56353591160221"/>
      <point x="975.292817679558" y="167.57458563535914"/>
      <point x="975.292817679558" y="525.7182320441989" type="curve" smooth="yes"/>
      <point x="975.292817679558" y="811.8232044198895"/>
      <point x="843.3149171270718" y="1039.0"/>
      <point x="528.4419889502764" y="1039.0" type="curve" smooth="yes"/>
      <point x="288.5359116022099" y="1039.0"/>
      <point x="44.646408839779006" y="849.5801104972376"/>
    </contour>
    <contour>
      <point x="511.3149171270717" y="29.127071823204425" type="curve" smooth="yes"/>
      <point x="331.8563535911602" y="29.127071823204425"/>
      <point x="267.1988950276243" y="266.44751381215474"/>
      <point x="267.1988950276243" y="516.9723756906077" type="curve" smooth="yes"/>
      <point x="267.1988950276243" y="832.7624309392264"/>
      <point x="354.91160220994476" y="987.3093922651935"/>
      <point x="513.0331491712707" y="987.3093922651935" type="curve" smooth="yes"/>
      <point x="690.5193370165746" y="987.3093922651935"/>
      <point x="753.3038674033149" y="748.8342541436464"/>
      <point x="753.3038674033149" y="499.77348066298345" type="curve" smooth="yes"/>
      <point x="753.3038674033149" y="186.6740331491713"/>
      <point x="665.7458563535911" y="29.127071823204425"/>
    </contour>
    <contour>
      <point x="148.30939226519337" y="-136.54696132596686" type="line"/>
      <point x="241.0718232044199" y="4.607734806629839" type="line"/>
      <point x="289.585635359116" y="71.99447513812156" type="line"/>
      <point x="765.0552486187845" y="865.3093922651934" type="line"/>
      <point x="841.0662983425415" y="958.3922651933702" type="line"/>
      <point x="936.8839779005525" y="1108.1657458563534" type="line"/>
      <point x="874.5303867403314" y="1147.674033149171" type="line"/>
      <point x="778.1491712707183" y="996.7734806629834" type="line"/>
      <point x="735.4364640883979" y="936.8618784530388" type="line"/>
      <point x="252.06629834254144" y="133.59116022099448" type="line"/>
      <point x="179.4364640883978" y="43.425414364640886" type="line"/>
      <point x="86.08287292817678" y="-95.44751381215468" type="line"/>
    </contour>
  </outline>
</glyph>
<glyph name="Eng" format="2">
  <advance width="1375.193370165746"/>
  <unicode hex="014A"/>
  <outline>
    <contour>
      <point x="166.82872928176795" y="74.32596685082872" type="line"/>
      <point x="11.038674033149166" y="36.0" type="line"/>
      <point x="11.038674033149166" y="0.0" type="line"/>
      <point x="419.110497237569" y="0.0" type="line"/>
      <point x="419.110497237569" y="36.0" type="line"/>
      <point x="260.6574585635359" y="74.32596685082872" type="line"/>
      <point x="244.98342541436458" y="1298.9005524861877" type="line"/>
      <point x="353.50276243093924" y="1110.5801104972377" type="line"/>
      <point x="1016.9779005524861" y="36.15469613259668" type="line"/>
      <point x="1011.0607734806629" y="-58.56353591160221"/>
      <point x="929.9171270718232" y="-226.11602209944752"/>
      <point x="746.646408839779" y="-317.7900552486188" type="curve"/>
      <point x="774.3370165745857" y="-367.6077348066298" type="line"/>
      <point x="1023.8784530386741" y="-289.5414364640884"/>
      <point x="1205.0276243093922" y="-48.983425414364646"/>
      <point x="1207.1823204419888" y="195.9613259668508" type="curve" smooth="yes"/>
      <point x="1219.3922651933703" y="1413.546961325967" type="line"/>
      <point x="1369.2817679558013" y="1450.0" type="line"/>
      <point x="1369.2817679558013" y="1486.0" type="line"/>
      <point x="974.1381215469613" y="1486.0" type="line"/>
      <point x="974.1381215469613" y="1450.0" type="line"/>
      <point x="1126.4364640883978" y="1411.9558011049726" type="line"/>
      <point x="1140.646408839779" y="210.79558011049724" type="line"/>
      <point x="1009.9171270718232" y="454.1270718232044" type="line"/>
      <point x="371.89502762430936" y="1486.0" type="line"/>
      <point x="25.530386740331487" y="1486.0" type="line"/>
      <point x="25.530386740331487" y="1445.6464088397788" type="line"/>
      <point x="81.50276243093921" y="1437.745856353591"/>
      <point x="174.03867403314916" y="1376.3867403314916"/>
      <point x="178.32044198895028" y="1342.1160220994475" type="curve"/>
    </contour>
  </outline>
</glyph>
<glyph name="tbar" format="2">
  <advance width="590.121546961326"/>
  <unicode hex="0167"/>
  <anchor x="342.56353591160223" y="0.0" name="bottom"/>
  <anchor x="259.55248618784526" y="556.0" name="center"/>
  <anchor x="300.878453038674" y="1361.2707182320444" name="top"/>
  <anchor x="572.7513812154697" y="1110.2817679558011" name="topright"/>
  <outline>
    <contour>
      <point x="559.6850828729281" y="584.8453038674033" type="line"/>
      <point x="25.629834254143645" y="584.8453038674033" type="line"/>
      <point x="25.629834254143645" y="519.2099447513813" type="line"/>
      <point x="559.6850828729281" y="519.2099447513813" type="line"/>
    </contour>
    <contour>
      <point x="327.1436464088398" y="-17.38121546961326" type="curve" smooth="yes"/>
      <point x="450.27624309392263" y="-17.38121546961326"/>
      <point x="558.5138121546962" y="27.972375690607734"/>
      <point x="609.1767955801104" y="73.1988950276243" type="curve"/>
      <point x="588.232044198895" y="118.67955801104972" type="line"/>
      <point x="553.950276243094" y="97.24309392265194"/>
      <point x="470.85635359116026" y="76.96132596685084"/>
      <point x="420.6464088397789" y="76.96132596685084" type="curve" smooth="yes"/>
      <point x="376.88397790055245" y="76.96132596685084"/>
      <point x="350.5745856353591" y="97.27071823204419"/>
      <point x="350.5745856353591" y="197.4585635359116" type="curve" smooth="yes"/>
      <point x="350.5745856353591" y="935.6740331491712" type="line"/>
      <point x="560.4033149171271" y="935.6740331491712" type="line"/>
      <point x="560.4033149171271" y="1005.0" type="line"/>
      <point x="350.44751381215474" y="1005.0" type="line"/>
      <point x="350.7292817679558" y="1316.0441988950274" type="line"/>
      <point x="262.9060773480663" y="1316.0441988950274" type="line"/>
      <point x="242.65193370165744" y="1234.3149171270718"/>
      <point x="208.80662983425415" y="1132.5690607734805"/>
      <point x="190.5524861878453" y="1089.8232044198894" type="curve" smooth="yes"/>
      <point x="174.04419889502762" y="1053.7237569060774"/>
      <point x="157.6906077348066" y="1021.5082872928178"/>
      <point x="126.30939226519337" y="1006.4088397790056" type="curve" smooth="yes"/>
      <point x="102.80110497237565" y="995.0276243093923"/>
      <point x="43.646408839779006" y="981.3370165745857"/>
      <point x="19.475138121546955" y="973.2375690607735" type="curve"/>
      <point x="19.475138121546955" y="935.6740331491712" type="line"/>
      <point x="151.0939226519337" y="935.6740331491712" type="line"/>
      <point x="151.0939226519337" y="176.59668508287294" type="line" smooth="yes"/>
      <point x="151.0939226519337" y="31.29834254143646"/>
      <point x="217.93922651933704" y="-17.38121546961326"/>
    </contour>
  </outline>
</glyph>
<glyph name="florin" format="2">
  <advance width="928.4585635359116"/>
  <unicode hex="0192"/>
  <outline>
    <contour>
      <point x="140.47513812154693" y="978.0" type="line"/>
      <point x="294.75690607734805" y="978.0" type="line"/>
      <point x="190.09392265193372" y="-348.0" type="line"/>
      <point x="386.585635359116" y="-348.0" type="line"/>
      <point x="495.121546961326" y="978.0" type="line"/>
      <point x="766.4033149171271" y="978.0" type="line"/>
      <point x="773.4033149171271" y="1047.3812154696134" type="line"/>
      <point x="502.6850828729282" y="1047.3812154696134" type="line"/>
      <point x="513.121546961326" y="1148.0" type="line"/>
      <point x="544.0220994475138" y="1448.4861878453041"/>
      <point x="590.6243093922651" y="1556.4088397790056"/>
      <point x="672.7513812154696" y="1556.4088397790056" type="curve" smooth="yes"/>
      <point x="729.0055248618784" y="1556.4088397790056"/>
      <point x="791.4585635359117" y="1516.756906077348"/>
      <point x="834.4033149171271" y="1461.1602209944751" type="curve"/>
      <point x="851.220994475138" y="1625.0" type="line"/>
      <point x="829.5580110497237" y="1638.4364640883978"/>
      <point x="799.9226519337017" y="1646.0"/>
      <point x="767.5690607734806" y="1646.0" type="curve" smooth="yes"/>
      <point x="553.2154696132596" y="1646.0"/>
      <point x="348.90055248618785" y="1374.4419889502763"/>
      <point x="311.4475138121547" y="1086.2265193370165" type="curve"/>
      <point x="306.6022099447514" y="1047.9447513812154" type="line"/>
      <point x="143.75690607734808" y="1016.5359116022098" type="line"/>
    </contour>
  </outline>
</glyph>
<glyph name="Ohorn" format="2">
  <advance width="1382.707182320442"/>
  <unicode hex="01A0"/>
  <anchor x="1299.9171270718232" y="20.0" name="ogonek"/>
  <anchor x="700.3701657458564" y="0.0" name="bottom"/>
  <anchor x="691.6353591160221" y="741.0" name="center"/>
  <anchor x="834.8831657458564" y="0.0" name="qq"/>
  <anchor x="696.4806629834254" y="1486.0" name="top"/>
  <anchor x="16.988950276243095" y="1486.0" name="topleft"/>
  <anchor x="1303.7292817679559" y="1486.0" name="topright"/>
  <outline>
    <contour>
      <point x="1072.1325966850827" y="1337.0662983425416" type="line"/>
      <point x="1309.3701657458564" y="1337.0662983425416"/>
      <point x="1437.5966850828731" y="1461.657458563536"/>
      <point x="1437.5966850828731" y="1686.2817679558011" type="curve" smooth="yes"/>
      <point x="1437.5966850828731" y="1700.2817679558011"/>
      <point x="1435.5966850828731" y="1714.8453038674033"/>
      <point x="1433.314917127072" y="1730.0" type="curve"/>
      <point x="1266.4088397790056" y="1730.0" type="line"/>
      <point x="1268.9723756906078" y="1720.8729281767955"/>
      <point x="1269.817679558011" y="1708.0276243093922"/>
      <point x="1269.817679558011" y="1690.9281767955802" type="curve" smooth="yes"/>
      <point x="1269.817679558011" y="1595.1546961325967"/>
      <point x="1220.8342541436466" y="1412.2265193370165"/>
      <point x="1029.3977900552486" y="1412.2265193370165" type="curve"/>
    </contour>
    <component base="O"/>
  </outline>
</glyph>
<glyph name="Uhorn" format="2">
  <advance width="1345.5082872928176"/>
  <unicode hex="01AF"/>
  <anchor x="774.0" y="0.0" name="bottom"/>
  <anchor x="1340.0" y="20.0" name="ogonek"/>
  <anchor x="735.7071823204419" y="1486.0" name="top"/>
  <anchor x="1416.6795580110497" y="1486.0" name="topright"/>
  <outline>
    <contour>
      <point x="1156.9060773480662" y="1486.0" type="curve"/>
      <point x="1160.7237569060776" y="1412.0" type="line"/>
      <point x="1354.3591160220994" y="1412.0"/>
      <point x="1472.4585635359115" y="1494.4198895027623"/>
      <point x="1472.1767955801104" y="1687.0" type="curve" smooth="yes"/>
      <point x="1472.1767955801104" y="1701.0"/>
      <point x="1470.1767955801106" y="1717.0"/>
      <point x="1467.1767955801106" y="1730.0" type="curve"/>
      <point x="1302.4696132596684" y="1730.0" type="line"/>
      <point x="1305.4696132596684" y="1718.0"/>
      <point x="1308.4696132596684" y="1706.5911602209944"/>
      <point x="1308.4696132596684" y="1685.182320441989" type="curve" smooth="yes"/>
      <point x="1308.4696132596684" y="1618.1381215469614"/>
      <point x="1291.7237569060771" y="1486.0"/>
    </contour>
    <component base="U"/>
  </outline>
</glyph>
<glyph name="Gstroke" format="2">
  <advance width="1343.6132596685084"/>
  <unicode hex="01E4"/>
  <anchor x="731.646408839779" y="0.0" name="bottom"/>
  <anchor x="791.646408839779" y="1486.0" name="top"/>
  <anchor x="1123.5690607734805" y="347.8729281767956" name="rstem"/>
  <outline>
    <contour>
      <point x="1324.895027624309" y="419.4806629834254" type="line"/>
      <point x="791.817679558011" y="419.4806629834254" type="line"/>
      <point x="791.817679558011" y="349.4806629834254" type="line"/>
      <point x="1324.895027624309" y="349.4806629834254" type="line"/>
    </contour>
    <component base="G"/>
  </outline>
</glyph>
<glyph name="schwa" format="2">
  <advance width="915.7237569060773"/>
  <unicode hex="0259"/>
  <anchor x="400.49723756906076" y="-105.0" name="bottom"/>
  <anchor x="449.9060773480663" y="1110.0" name="top"/>
  <outline>
    <contour>
      <point x="415.8342541436464" y="1034.2817679558011" type="curve" smooth="yes"/>
      <point x="276.5911602209945" y="1034.2817679558011"/>
      <point x="139.75690607734805" y="968.9834254143645"/>
      <point x="72.54696132596685" y="901.5193370165747" type="curve"/>
      <point x="94.95580110497237" y="857.0110497237569" type="line"/>
      <point x="153.11049723756906" y="904.3204419889502"/>
      <point x="262.54696132596683" y="946.7127071823205"/>
      <point x="365.1491712707182" y="946.7127071823205" type="curve" smooth="yes"/>
      <point x="575.6519337016573" y="946.7127071823205"/>
      <point x="656.1602209944751" y="744.7955801104972"/>
      <point x="658.9779005524862" y="503.707182320442" type="curve"/>
      <point x="44.61878453038674" y="503.707182320442" type="line"/>
      <point x="37.49171270718232" y="472.11602209944755"/>
      <point x="32.209944751381215" y="427.22651933701655"/>
      <point x="32.928176795580114" y="341.74585635359114" type="curve"/>
      <point x="36.209944751381215" y="103.02762430939228"/>
      <point x="182.02762430939225" y="-24.535911602209946"/>
      <point x="414.88950276243094" y="-24.535911602209946" type="curve" smooth="yes"/>
      <point x="649.657458563536" y="-24.535911602209946"/>
      <point x="877.7679558011051" y="174.38121546961324"/>
      <point x="877.7679558011051" y="526.7182320441989" type="curve" smooth="yes"/>
      <point x="877.7679558011051" y="840.4364640883979"/>
      <point x="714.1215469613259" y="1034.2817679558011"/>
    </contour>
    <contour>
      <point x="658.8232044198895" y="458.8618784530386" type="line"/>
      <point x="661.0773480662983" y="219.16022099447514"/>
      <point x="582.3314917127072" y="27.15469613259668"/>
      <point x="416.9337016574586" y="27.15469613259668" type="curve" smooth="yes"/>
      <point x="287.34806629834253" y="27.15469613259668"/>
      <point x="236.56353591160223" y="138.8011049723757"/>
      <point x="236.56353591160223" y="339.2375690607735" type="curve" smooth="yes"/>
      <point x="236.56353591160223" y="367.2375690607735"/>
      <point x="237.12707182320443" y="410.29834254143645"/>
      <point x="240.71823204419888" y="440.01657458563534" type="curve"/>
    </contour>
  </outline>
</glyph>
<glyph name="ringhalfleft" format="2">
  <advance width="257.7237569060773"/>
  <unicode hex="02BF"/>
  <anchor x="247.72375690607734" y="1110.0" name="_top"/>
  <anchor x="247.72375690607734" y="1675.5801104972375" name="top"/>
  <outline>
    <contour>
      <point x="247.72375690607734" y="1149.2928176795583" type="curve"/>
      <point x="247.72375690607734" y="1194.0828729281768" type="line"/>
      <point x="181.72375690607734" y="1199.8011049723757"/>
      <point x="144.31491712707185" y="1254.6187845303868"/>
      <point x="144.31491712707185" y="1374.281767955801" type="curve" smooth="yes"/>
      <point x="144.31491712707185" y="1482.917127071823"/>
      <point x="181.72375690607734" y="1551.5801104972375"/>
      <point x="247.72375690607734" y="1557.2983425414366" type="curve"/>
      <point x="247.72375690607734" y="1602.0883977900555" type="line"/>
      <point x="133.14364640883977" y="1602.0883977900555"/>
      <point x="10.0" y="1511.734806629834"/>
      <point x="10.0" y="1361.436464088398" type="curve" smooth="yes"/>
      <point x="10.0" y="1231.574585635359"/>
      <point x="97.32596685082875" y="1149.2928176795583"/>
    </contour>
  </outline>
</glyph>
<glyph name="gravecomb" format="2">
  <unicode hex="0300"/>
  <anchor x="270.5966850828729" y="1110.0" name="_top"/>
  <anchor x="270.5966850828729" y="1555.0773480662983" name="top"/>
  <outline>
    <contour>
      <point x="381.0939226519337" y="1138.6740331491715" type="curve"/>
      <point x="383.0939226519337" y="1138.6740331491715" type="line"/>
      <point x="412.7569060773481" y="1162.3370165745857" type="line"/>
      <point x="157.1325966850829" y="1583.7624309392265" type="line"/>
      <point x="10.0" y="1474.9668508287293" type="line"/>
      <point x="82.67955801104972" y="1357.6132596685081"/>
      <point x="263.8232044198896" y="1204.9116022099447"/>
    </contour>
  </outline>
</glyph>
<glyph name="acutecomb" format="2">
  <unicode hex="0301"/>
  <anchor x="140.04419889502762" y="1110.0" name="_top"/>
  <anchor x="142.04419889502762" y="1565.635359116022" name="top"/>
  <outline>
    <contour>
      <point x="41.66298342541437" y="1138.6740331491715" type="line"/>
      <point x="158.93370165745856" y="1204.9116022099447"/>
      <point x="340.0773480662983" y="1357.6132596685084"/>
      <point x="412.7569060773481" y="1474.9668508287293" type="curve"/>
      <point x="265.62430939226516" y="1583.7624309392265" type="line"/>
      <point x="10.0" y="1162.3370165745857" type="line"/>
      <point x="39.66298342541437" y="1138.6740331491715" type="line"/>
    </contour>
  </outline>
</glyph>
<glyph name="tildecomb" format="2">
  <unicode hex="0303"/>
  <anchor x="287.69613259668506" y="1110.0" name="_top"/>
  <anchor x="287.69613259668506" y="1471.5580110497237" name="top"/>
  <outline>
    <contour>
      <point x="10.0" y="1209.5193370165746" type="curve"/>
      <point x="48.22651933701657" y="1198.546961325967" type="line"/>
      <point x="74.01657458563537" y="1273.182320441989"/>
      <point x="99.8618784530387" y="1300.364640883978"/>
      <point x="145.55248618784535" y="1300.364640883978" type="curve" smooth="yes"/>
      <point x="214.9060773480663" y="1300.364640883978"/>
      <point x="291.7790055248619" y="1171.6022099447512"/>
      <point x="391.4585635359116" y="1171.6022099447512" type="curve" smooth="yes"/>
      <point x="487.3204419889502" y="1171.6022099447512"/>
      <point x="542.2099447513812" y="1256.353591160221"/>
      <point x="565.3922651933701" y="1407.4972375690606" type="curve"/>
      <point x="527.1657458563535" y="1418.4696132596684" type="line"/>
      <point x="501.3756906077347" y="1343.8342541436464"/>
      <point x="475.5303867403315" y="1316.6519337016575"/>
      <point x="429.83977900552486" y="1316.6519337016575" type="curve" smooth="yes"/>
      <point x="360.4861878453039" y="1316.6519337016575"/>
      <point x="283.61325966850825" y="1445.4143646408836"/>
      <point x="183.93370165745856" y="1445.4143646408836" type="curve" smooth="yes"/>
      <point x="88.0718232044199" y="1445.4143646408836"/>
      <point x="33.18232044198895" y="1360.6629834254145"/>
    </contour>
  </outline>
</glyph>
<glyph name="macroncomb" format="2">
  <unicode hex="0304"/>
  <anchor x="245.3591160220994" y="1110.0" name="_top"/>
  <anchor x="245.3591160220994" y="1380.6077348066299" name="top"/>
  <outline>
    <contour>
      <point x="480.7182320441988" y="1317.8066298342542" type="line"/>
      <point x="10.0" y="1317.8066298342542" type="line"/>
      <point x="10.0" y="1185.2375690607735" type="line"/>
      <point x="480.7182320441988" y="1185.2375690607735" type="line"/>
    </contour>
  </outline>
</glyph>
<glyph name="dotaccentcomb" format="2">
  <unicode hex="0307"/>
  <anchor x="135.25966850828732" y="1110.0" name="_top"/>
  <anchor x="135.25966850828732" y="1437.5027624309391" name="top"/>
  <outline>
    <contour>
      <point x="126.00552486187846" y="1166.5745856353592" type="curve" smooth="yes"/>
      <point x="128.00552486187846" y="1166.5745856353592" type="line" smooth="yes"/>
      <point x="197.292817679558" y="1166.5745856353592"/>
      <point x="256.5193370165746" y="1225.5635359116022"/>
      <point x="256.5193370165746" y="1310.4530386740332" type="curve" smooth="yes"/>
      <point x="256.5193370165746" y="1391.5524861878453"/>
      <point x="208.13812154696132" y="1434.1049723756905"/>
      <point x="144.51381215469615" y="1434.1049723756905" type="curve"/>
      <point x="142.51381215469615" y="1434.1049723756905" type="line" smooth="yes"/>
      <point x="73.22651933701657" y="1434.1049723756905"/>
      <point x="14.0" y="1375.3977900552486"/>
      <point x="14.0" y="1290.2265193370167" type="curve" smooth="yes"/>
      <point x="14.0" y="1209.1270718232042"/>
      <point x="62.38121546961326" y="1166.5745856353592"/>
    </contour>
  </outline>
</glyph>
<glyph name="hookabovecomb" format="2">
  <unicode hex="0309"/>
  <anchor x="159.59668508287294" y="1110.0" name="_top"/>
  <anchor x="159.59668508287294" y="1577.7624309392265" name="top"/>
  <outline>
    <contour>
      <point x="136.4972375690608" y="1157.9558011049726" type="curve"/>
      <point x="179.0055248618784" y="1157.9558011049726" type="line"/>
      <point x="162.72375690607737" y="1224.5911602209944"/>
      <point x="172.97790055248615" y="1256.7734806629833"/>
      <point x="216.07734806629836" y="1290.6187845303866" type="curve" smooth="yes"/>
      <point x="287.9944751381216" y="1346.5911602209942"/>
      <point x="339.6298342541437" y="1397.0276243093922"/>
      <point x="339.6298342541437" y="1471.635359116022" type="curve" smooth="yes"/>
      <point x="339.6298342541437" y="1561.6243093922653"/>
      <point x="248.31491712707182" y="1634.1325966850827"/>
      <point x="121.73480662983427" y="1634.1325966850827" type="curve" smooth="yes"/>
      <point x="75.9171270718232" y="1634.1325966850827"/>
      <point x="45.0" y="1628.0055248618785"/>
      <point x="10.0" y="1615.1602209944751" type="curve"/>
      <point x="10.0" y="1490.1546961325967" type="line"/>
      <point x="31.0" y="1497.5635359116022"/>
      <point x="59.408839779005525" y="1501.1270718232045"/>
      <point x="86.2817679558011" y="1501.1270718232045" type="curve" smooth="yes"/>
      <point x="154.05524861878453" y="1501.1270718232045"/>
      <point x="192.01657458563537" y="1468.7900552486187"/>
      <point x="192.01657458563537" y="1428.46408839779" type="curve" smooth="yes"/>
      <point x="192.01657458563537" y="1364.3922651933701"/>
      <point x="106.98895027624309" y="1328.646408839779"/>
      <point x="106.98895027624309" y="1249.4640883977902" type="curve" smooth="yes"/>
      <point x="106.98895027624309" y="1218.3922651933703"/>
      <point x="119.24309392265194" y="1188.2375690607735"/>
    </contour>
  </outline>
</glyph>
<glyph name="hungarumlautcomb" format="2">
  <unicode hex="030B"/>
  <anchor x="253.16022099447514" y="1110.0" name="_top"/>
  <anchor x="253.1602209944751" y="1609.6629834254143" name="top"/>
  <outline>
    <contour>
      <point x="41.66298342541437" y="1138.6740331491715" type="line"/>
      <point x="148.9889502762431" y="1209.292817679558"/>
      <point x="298.060773480663" y="1372.8839779005525"/>
      <point x="362.56906077348066" y="1489.110497237569" type="curve"/>
      <point x="220.05524861878453" y="1583.7624309392265" type="line"/>
      <point x="10.0" y="1162.3370165745857" type="line"/>
      <point x="39.66298342541437" y="1138.6740331491715" type="line"/>
    </contour>
    <contour>
      <point x="379.1878453038674" y="1138.6740331491715" type="line"/>
      <point x="486.5138121546961" y="1209.292817679558"/>
      <point x="635.585635359116" y="1372.8839779005525"/>
      <point x="700.0939226519337" y="1489.110497237569" type="curve"/>
      <point x="557.5801104972376" y="1583.7624309392265" type="line"/>
      <point x="347.524861878453" y="1162.3370165745857" type="line"/>
      <point x="377.1878453038674" y="1138.6740331491715" type="line"/>
    </contour>
  </outline>
</glyph>
<glyph name="dotbelowcomb" format="2">
  <unicode hex="0323"/>
  <anchor x="135.2596685082873" y="0.0" name="_bottom"/>
  <anchor x="135.2596685082873" y="-354.7348066298343" name="bottom"/>
  <outline>
    <contour>
      <point x="126.00552486187846" y="-422.56906077348066" type="curve" smooth="yes"/>
      <point x="128.00552486187846" y="-422.56906077348066" type="line" smooth="yes"/>
      <point x="199.292817679558" y="-422.56906077348066"/>
      <point x="260.5193370165746" y="-364.1436464088398"/>
      <point x="260.5193370165746" y="-279.8176795580111" type="curve" smooth="yes"/>
      <point x="260.5193370165746" y="-199.28176795580112"/>
      <point x="210.13812154696132" y="-157.0110497237569"/>
      <point x="144.51381215469615" y="-157.0110497237569" type="curve" smooth="yes"/>
      <point x="142.51381215469615" y="-157.0110497237569" type="line" smooth="yes"/>
      <point x="71.22651933701657" y="-157.0110497237569"/>
      <point x="10.0" y="-215.15469613259668"/>
      <point x="10.0" y="-299.7624309392265" type="curve" smooth="yes"/>
      <point x="10.0" y="-380.29834254143645"/>
      <point x="60.38121546961326" y="-422.56906077348066"/>
    </contour>
  </outline>
</glyph>
<glyph name="ogonekcomb" format="2">
  <unicode hex="0328"/>
  <anchor x="310.4972375690608" y="6.30939226519337" name="_ogonek"/>
  <outline>
    <contour>
      <point x="201.81767955801104" y="-479.0" type="curve" smooth="yes"/>
      <point x="294.7790055248619" y="-479.0"/>
      <point x="391.414364640884" y="-429.8839779005525"/>
      <point x="447.0055248618784" y="-368.7292817679558" type="curve"/>
      <point x="424.16022099447514" y="-327.1657458563536" type="line"/>
      <point x="378.10497237569064" y="-358.6298342541436"/>
      <point x="330.97790055248623" y="-370.34806629834253"/>
      <point x="286.38674033149175" y="-370.34806629834253" type="curve" smooth="yes"/>
      <point x="227.92265193370164" y="-370.34806629834253"/>
      <point x="176.66850828729278" y="-337.41988950276243"/>
      <point x="176.66850828729278" y="-266.1381215469613" type="curve" smooth="yes"/>
      <point x="176.66850828729278" y="-180.11049723756906"/>
      <point x="226.5966850828729" y="-82.28176795580112"/>
      <point x="378.56906077348066" y="2.154696132596685" type="curve"/>
      <point x="349.90607734806633" y="10.154696132596685" type="line"/>
      <point x="322.1878453038674" y="2.1546961325966847" type="line"/>
      <point x="128.3425414364641" y="-81.51933701657458"/>
      <point x="10.0" y="-202.49171270718233"/>
      <point x="10.0" y="-316.94475138121544" type="curve" smooth="yes"/>
      <point x="10.0" y="-425.8453038674033"/>
      <point x="100.38121546961327" y="-479.0"/>
    </contour>
  </outline>
</glyph>
<glyph name="slashlongcomb" format="2">
  <unicode hex="0338"/>
  <anchor x="398.8176795580111" y="744.0" name="_center"/>
  <outline>
    <contour>
      <point x="720.0" y="1650.0" type="line"/>
      <point x="10.0" y="-162.0" type="line"/>
      <point x="77.63535911602212" y="-162.0" type="line"/>
      <point x="787.6353591160222" y="1650.0" type="line"/>
    </contour>
  </outline>
</glyph>
<glyph name="Yi-cy" format="2">
  <advance width="544.6519337016574"/>
  <unicode hex="0407"/>
  <anchor x="281.6132596685083" y="0.0" name="bottom"/>
  <anchor x="342.38121546961327" y="20.0" name="ogonek"/>
  <anchor x="281.6132596685083" y="1486.0" name="top"/>
  <anchor x="28.226519337016576" y="1486.0" name="topleft"/>
  <outline>
    <contour>
      <point x="103.65193370165746" y="1596.900552486188" type="curve" smooth="yes"/>
      <point x="105.65193370165746" y="1596.900552486188" type="line" smooth="yes"/>
      <point x="176.3591160220994" y="1596.900552486188"/>
      <point x="224.27624309392263" y="1667.3259668508288"/>
      <point x="224.27624309392263" y="1742.2154696132598" type="curve" smooth="yes"/>
      <point x="224.27624309392263" y="1811.6408839779006"/>
      <point x="194.25966850828726" y="1862.4585635359117"/>
      <point x="121.37016574585635" y="1862.4585635359117" type="curve" smooth="yes"/>
      <point x="119.37016574585635" y="1862.4585635359117" type="line" smooth="yes"/>
      <point x="49.226519337016576" y="1862.4585635359117"/>
      <point x="0.7458563535911598" y="1794.5690607734807"/>
      <point x="0.7458563535911598" y="1717.14364640884" type="curve" smooth="yes"/>
      <point x="0.7458563535911598" y="1647.7182320441989"/>
      <point x="31.48066298342541" y="1596.900552486188"/>
    </contour>
    <contour>
      <point x="420.6187845303867" y="1596.900552486188" type="curve" smooth="yes"/>
      <point x="422.6187845303867" y="1596.900552486188" type="line" smooth="yes"/>
      <point x="493.3259668508287" y="1596.900552486188"/>
      <point x="541.2430939226518" y="1667.3259668508288"/>
      <point x="541.2430939226518" y="1742.2154696132598" type="curve" smooth="yes"/>
      <point x="541.2430939226518" y="1811.6408839779006"/>
      <point x="510.50828729281767" y="1862.4585635359117"/>
      <point x="438.3370165745856" y="1862.4585635359117" type="curve" smooth="yes"/>
      <point x="436.3370165745856" y="1862.4585635359117" type="line" smooth="yes"/>
      <point x="366.1933701657458" y="1862.4585635359117"/>
      <point x="317.7127071823204" y="1794.5690607734807"/>
      <point x="317.7127071823204" y="1717.14364640884" type="curve" smooth="yes"/>
      <point x="317.7127071823204" y="1647.7182320441989"/>
      <point x="348.4475138121547" y="1596.900552486188"/>
    </contour>
    <component base="I"/>
  </outline>
</glyph>
<glyph name="Tshe-cy" format="2">
  <advance width="1676.1104972375692"/>
  <unicode hex="040B"/>
  <outline>
    <contour>
      <point x="335.8950276243094" y="0.0" type="line"/>
      <point x="983.5580110497239" y="0.0" type="line"/>
      <point x="983.5580110497239" y="36.28176795580111" type="line"/>
      <point x="792.2651933701657" y="67.69060773480663" type="line"/>
      <point x="792.2651933701657" y="718.1546961325967" type="line"/>
      <point x="844.3480662983426" y="749.0"/>
      <point x="938.6408839779004" y="778.3093922651934"/>
      <point x="1063.1436464088397" y="778.3093922651934" type="curve" smooth="yes"/>
      <point x="1301.243093922652" y="778.3093922651934"/>
      <point x="1317.3038674033148" y="627.2872928176796"/>
      <point x="1317.3038674033148" y="420.48618784530385" type="curve" smooth="yes"/>
      <point x="1317.3038674033148" y="67.69060773480663" type="line"/>
      <point x="1159.3646408839777" y="36.28176795580111" type="line"/>
      <point x="1159.3646408839777" y="0.0" type="line"/>
      <point x="1661.646408839779" y="0.0" type="line"/>
      <point x="1661.646408839779" y="36.28176795580111" type="line"/>
      <point x="1541.1381215469614" y="67.69060773480663" type="line"/>
      <point x="1541.1381215469614" y="462.9337016574585" type="line" smooth="yes"/>
      <point x="1541.1381215469614" y="654.3756906077349"/>
      <point x="1500.662983425414" y="854.5359116022099"/>
      <point x="1131.419889502762" y="854.5359116022099" type="curve" smooth="yes"/>
      <point x="1024.4198895027625" y="854.5359116022099"/>
      <point x="887.292817679558" y="826.6629834254144"/>
      <point x="792.2651933701657" y="776.8453038674033" type="curve"/>
      <point x="792.2651933701657" y="1433.9999999999998" type="line"/>
      <point x="1143.9226519337017" y="1409.5359116022098" type="line"/>
      <point x="1261.375690607735" y="1014.3370165745856" type="line"/>
      <point x="1363.0441988950276" y="1014.3370165745856" type="line"/>
      <point x="1323.8342541436464" y="1486.0" type="line"/>
      <point x="84.26519337016575" y="1486.0" type="line"/>
      <point x="44.33701657458565" y="1014.3370165745856" type="line"/>
      <point x="145.44198895027625" y="1014.3370165745856" type="line"/>
      <point x="264.4585635359116" y="1409.5359116022098" type="line"/>
      <point x="572.3038674033148" y="1433.9999999999998" type="line"/>
      <point x="572.3038674033148" y="67.69060773480663" type="line"/>
      <point x="335.8950276243094" y="36.281767955801115" type="line"/>
    </contour>
  </outline>
</glyph>
<glyph name="Ge-cy" format="2">
  <advance width="1123.6629834254143"/>
  <unicode hex="0413"/>
  <anchor x="775.7292817679559" y="0.0" name="bottomright"/>
  <anchor x="538.8950276243094" y="744.0" name="center"/>
  <anchor x="636.3756906077348" y="1486.0" name="top"/>
  <outline>
    <contour>
      <point x="31.337016574585643" y="0.0" type="line"/>
      <point x="735.4530386740331" y="0.0" type="line"/>
      <point x="735.4530386740331" y="36.2817679558011" type="line"/>
      <point x="447.3480662983425" y="68.40883977900552" type="line"/>
      <point x="447.3480662983425" y="1437.0276243093922" type="line"/>
      <point x="879.0773480662983" y="1416.2928176795579" type="line"/>
      <point x="978.2651933701658" y="960.3314917127071" type="line"/>
      <point x="1074.3259668508288" y="960.3314917127071" type="line"/>
      <point x="1057.3093922651933" y="1486.0" type="line"/>
      <point x="37.364640883977906" y="1486.0" type="line"/>
      <point x="37.364640883977906" y="1449.7182320441989" type="line"/>
      <point x="218.48618784530385" y="1418.3093922651935" type="line"/>
      <point x="218.48618784530385" y="68.40883977900552" type="line"/>
      <point x="31.337016574585643" y="36.2817679558011" type="line"/>
    </contour>
  </outline>
</glyph>
<glyph name="Ii-cy" format="2">
  <advance width="1458.4198895027625"/>
  <unicode hex="0418"/>
  <anchor x="1430.110497237569" y="0.0" name="bottomright"/>
  <anchor x="726.9779005524863" y="1486.0" name="top"/>
  <outline>
    <contour>
      <point x="31.337016574585643" y="0.0" type="line"/>
      <point x="532.1712707182321" y="0.0" type="line"/>
      <point x="532.1712707182321" y="36.281767955801115" type="line"/>
      <point x="390.3259668508287" y="67.69060773480663" type="line"/>
      <point x="390.3259668508287" y="143.21546961325967" type="line"/>
      <point x="918.6353591160221" y="961.8453038674033" type="line"/>
      <point x="1062.4585635359115" y="1196.314917127072" type="line"/>
      <point x="1062.4585635359115" y="67.69060773480663" type="line"/>
      <point x="926.2486187845303" y="36.281767955801115" type="line"/>
      <point x="926.2486187845303" y="0.0" type="line"/>
      <point x="1427.0828729281768" y="0.0" type="line"/>
      <point x="1427.0828729281768" y="36.281767955801115" type="line"/>
      <point x="1282.4198895027625" y="67.69060773480663" type="line"/>
      <point x="1282.4198895027625" y="1418.3093922651935" type="line"/>
      <point x="1426.0828729281766" y="1449.7182320441989" type="line"/>
      <point x="1426.0828729281766" y="1486.0" type="line"/>
      <point x="926.5303867403316" y="1486.0" type="line"/>
      <point x="926.5303867403316" y="1449.7182320441989" type="line"/>
      <point x="1062.4585635359115" y="1418.3093922651935" type="line"/>
      <point x="1062.4585635359115" y="1305.3038674033148" type="line"/>
      <point x="563.3038674033149" y="523.2817679558011" type="line"/>
      <point x="390.3259668508287" y="255.23204419889504" type="line"/>
      <point x="390.3259668508287" y="1418.3093922651935" type="line"/>
      <point x="531.8895027624311" y="1449.7182320441989" type="line"/>
      <point x="531.8895027624311" y="1486.0" type="line"/>
      <point x="32.33701657458564" y="1486.0" type="line"/>
      <point x="32.33701657458564" y="1449.7182320441989" type="line"/>
      <point x="170.36464088397787" y="1418.3093922651935" type="line"/>
      <point x="170.36464088397787" y="67.69060773480663" type="line"/>
      <point x="31.337016574585643" y="36.281767955801115" type="line"/>
    </contour>
  </outline>
</glyph>
<glyph name="El-cy" format="2">
  <advance width="1335.6243093922656"/>
  <unicode hex="041B"/>
  <anchor x="1305.0055248618785" y="0.0" name="bottomright"/>
  <outline>
    <contour>
      <point x="138.02762430939225" y="-10.845303867403315" type="curve" smooth="yes"/>
      <point x="242.73480662983425" y="-10.845303867403315"/>
      <point x="314.2707182320442" y="35.408839779005525"/>
      <point x="372.6795580110498" y="139.7624309392265" type="curve" smooth="yes"/>
      <point x="483.9889502762431" y="338.58011049723757"/>
      <point x="538.4530386740331" y="751.4088397790056"/>
      <point x="538.4530386740333" y="1181.46408839779" type="curve" smooth="yes"/>
      <point x="538.4530386740331" y="1425.4917127071824" type="line"/>
      <point x="907.0607734806631" y="1425.4917127071824" type="line"/>
      <point x="907.0607734806631" y="67.69060773480662" type="line"/>
      <point x="722.8950276243095" y="36.281767955801115" type="line"/>
      <point x="722.8950276243095" y="0.0" type="line"/>
      <point x="1304.2872928176794" y="0.0" type="line"/>
      <point x="1304.2872928176794" y="36.281767955801115" type="line"/>
      <point x="1127.3038674033148" y="66.25414364640883" type="line"/>
      <point x="1127.3038674033148" y="1418.3093922651935" type="line"/>
      <point x="1295.3867403314916" y="1449.7182320441989" type="line"/>
      <point x="1295.3867403314916" y="1486.0" type="line"/>
      <point x="288.646408839779" y="1486.0" type="line"/>
      <point x="288.646408839779" y="1449.7182320441989" type="line"/>
      <point x="464.04419889502765" y="1418.3093922651935" type="line"/>
      <point x="464.04419889502765" y="1203.171270718232" type="line" smooth="yes"/>
      <point x="464.0441988950276" y="726.0276243093923"/>
      <point x="397.96132596685084" y="436.0662983425414"/>
      <point x="305.3867403314917" y="275.49171270718233" type="curve" smooth="yes"/>
      <point x="265.31491712707185" y="203.6850828729282"/>
      <point x="217.62430939226516" y="189.19337016574585"/>
      <point x="153.73480662983425" y="189.19337016574585" type="curve" smooth="yes"/>
      <point x="93.73480662983425" y="189.19337016574585"/>
      <point x="60.734806629834246" y="192.62983425414365"/>
      <point x="32.81767955801105" y="196.62983425414365" type="curve"/>
      <point x="21.226519337016576" y="0.0" type="line"/>
      <point x="45.508287292817684" y="-5.127071823204419"/>
      <point x="81.66298342541437" y="-10.845303867403315"/>
    </contour>
  </outline>
</glyph>
<glyph name="U-cy" format="2">
  <advance width="1167.9226519337017"/>
  <unicode hex="0423"/>
  <anchor x="648.9668508287292" y="1486.0" name="top"/>
  <outline>
    <contour>
      <point x="328.9779005524862" y="-27.25414364640884" type="curve" smooth="yes"/>
      <point x="536.8232044198894" y="-27.25414364640884"/>
      <point x="626.0497237569061" y="186.59116022099448"/>
      <point x="673.585635359116" y="305.97237569060775" type="curve" smooth="yes"/>
      <point x="1111.7292817679559" y="1417.0276243093924" type="line"/>
      <point x="1212.5745856353592" y="1449.7182320441989" type="line"/>
      <point x="1212.5745856353592" y="1486.0" type="line"/>
      <point x="871.0110497237569" y="1486.0" type="line"/>
      <point x="871.0110497237569" y="1449.7182320441989" type="line"/>
      <point x="1011.1657458563535" y="1417.0276243093924" type="line"/>
      <point x="737.4088397790056" y="627.9447513812155" type="line"/>
      <point x="673.7624309392265" y="436.0331491712707" type="line"/>
      <point x="702.6077348066298" y="431.2209944751381" type="line"/>
      <point x="633.3701657458564" y="629.3812154696132" type="line"/>
      <point x="325.34254143646405" y="1417.0276243093924" type="line"/>
      <point x="469.06077348066304" y="1449.7182320441989" type="line"/>
      <point x="469.06077348066304" y="1486.0" type="line"/>
      <point x="-32.53591160220994" y="1486.0" type="line"/>
      <point x="-32.53591160220994" y="1449.7182320441989" type="line"/>
      <point x="79.49171270718232" y="1417.0276243093924" type="line"/>
      <point x="587.9668508287292" y="241.4917127071823" type="line"/>
      <point x="622.3149171270718" y="364.2044198895028" type="line"/>
      <point x="567.0220994475138" y="208.04419889502765"/>
      <point x="487.9944751381216" y="143.0331491712707"/>
      <point x="329.36464088397787" y="143.0331491712707" type="curve" smooth="yes"/>
      <point x="289.878453038674" y="143.0331491712707"/>
      <point x="182.47513812154696" y="149.2596685082873"/>
      <point x="155.93370165745858" y="157.7403314917127" type="curve"/>
      <point x="155.93370165745858" y="13.76243093922652" type="line"/>
      <point x="193.6243093922652" y="-8.74585635359116"/>
      <point x="253.8232044198895" y="-27.25414364640884"/>
    </contour>
  </outline>
</glyph>
<glyph name="Ef-cy" format="2">
  <advance width="1628.9447513812156"/>
  <unicode hex="0424"/>
  <outline>
    <contour>
      <point x="525.8895027624309" y="-42.71823204419889" type="line"/>
      <point x="1105.182320441989" y="-42.71823204419889" type="line"/>
      <point x="1105.182320441989" y="-6.436464088397791" type="line"/>
      <point x="922.4530386740331" y="24.972375690607734" type="line"/>
      <point x="922.4530386740331" y="233.73480662983425" type="line"/>
      <point x="1355.3701657458564" y="258.38121546961327"/>
      <point x="1589.2983425414363" y="479.49171270718233"/>
      <point x="1589.2983425414363" y="760.3646408839779" type="curve" smooth="yes"/>
      <point x="1589.2983425414363" y="1014.7458563535911"/>
      <point x="1488.707182320442" y="1262.574585635359"/>
      <point x="922.4530386740331" y="1278.475138121547" type="curve"/>
      <point x="922.4530386740331" y="1459.1546961325967" type="line"/>
      <point x="1103.4640883977902" y="1490.5635359116022" type="line"/>
      <point x="1103.4640883977902" y="1526.8453038674033" type="line"/>
      <point x="526.1712707182321" y="1526.8453038674033" type="line"/>
      <point x="526.1712707182321" y="1490.5635359116022" type="line"/>
      <point x="706.92817679558" y="1459.1546961325967" type="line"/>
      <point x="706.92817679558" y="1276.1933701657458" type="line"/>
      <point x="265.6850828729282" y="1253.4475138121547"/>
      <point x="39.646408839779006" y="1039.0276243093922"/>
      <point x="39.646408839779006" y="752.1270718232045" type="curve" smooth="yes"/>
      <point x="39.646408839779006" y="503.74585635359114"/>
      <point x="147.0828729281768" y="249.353591160221"/>
      <point x="706.92817679558" y="232.29834254143645" type="curve"/>
      <point x="706.92817679558" y="24.972375690607727" type="line"/>
      <point x="525.8895027624309" y="-6.436464088397793" type="line"/>
    </contour>
    <contour>
      <point x="706.92817679558" y="274.6077348066299" type="line"/>
      <point x="343.7182320441989" y="308.524861878453"/>
      <point x="279.7348066298343" y="560.7900552486187"/>
      <point x="279.7348066298343" y="757.0994475138122" type="curve" smooth="yes"/>
      <point x="279.7348066298343" y="995.3093922651934"/>
      <point x="359.0828729281768" y="1207.0662983425414"/>
      <point x="706.92817679558" y="1233.756906077348" type="curve"/>
    </contour>
    <contour>
      <point x="922.4530386740331" y="275.32596685082876" type="curve"/>
      <point x="922.4530386740331" y="1234.475138121547" type="line"/>
      <point x="1284.6353591160223" y="1202.2762430939226"/>
      <point x="1348.92817679558" y="974.756906077348"/>
      <point x="1348.92817679558" y="765.5469613259669" type="curve" smooth="yes"/>
      <point x="1348.92817679558" y="521.4917127071823"/>
      <point x="1265.1160220994475" y="305.171270718232"/>
    </contour>
  </outline>
</glyph>
<glyph name="Che-cy" format="2">
  <advance width="1324.232044198895"/>
  <unicode hex="0427"/>
  <anchor x="1293.585635359116" y="0.0" name="bottomright"/>
  <anchor x="697.4640883977901" y="715.2707182320441" name="center"/>
  <anchor x="643.6353591160221" y="1486.0" name="top"/>
  <outline>
    <contour>
      <point x="907.9226519337017" y="645.3204419889503" type="curve"/>
      <point x="907.9226519337017" y="67.69060773480663" type="line"/>
      <point x="706.7955801104972" y="36.281767955801115" type="line"/>
      <point x="706.7955801104972" y="0.0" type="line"/>
      <point x="1292.8950276243095" y="0.0" type="line"/>
      <point x="1292.8950276243095" y="36.281767955801115" type="line"/>
      <point x="1127.8839779005525" y="67.69060773480663" type="line"/>
      <point x="1127.8839779005525" y="1418.3093922651935" type="line"/>
      <point x="1291.4585635359117" y="1449.7182320441989" type="line"/>
      <point x="1291.4585635359117" y="1486.0" type="line"/>
      <point x="741.756906077348" y="1486.0" type="line"/>
      <point x="741.756906077348" y="1449.7182320441989" type="line"/>
      <point x="907.9226519337017" y="1418.3093922651935" type="line"/>
      <point x="907.9226519337017" y="703.4475138121547" type="line"/>
      <point x="853.121546961326" y="674.5745856353591"/>
      <point x="755.2099447513813" y="646.9558011049724"/>
      <point x="630.5690607734806" y="646.9558011049724" type="curve" smooth="yes"/>
      <point x="369.54143646408835" y="646.9558011049724"/>
      <point x="351.7900552486188" y="802.5248618784531"/>
      <point x="351.7900552486188" y="1012.2375690607735" type="curve" smooth="yes"/>
      <point x="351.7900552486188" y="1418.3093922651933" type="line"/>
      <point x="510.01104972375686" y="1448.2817679558011" type="line"/>
      <point x="510.01104972375686" y="1486.0" type="line"/>
      <point x="22.309392265193367" y="1486.0" type="line"/>
      <point x="22.309392265193367" y="1448.2817679558011" type="line"/>
      <point x="131.82872928176795" y="1418.3093922651935" type="line"/>
      <point x="131.82872928176795" y="972.6077348066299" type="line" smooth="yes"/>
      <point x="131.82872928176795" y="779.4364640883978"/>
      <point x="175.4033149171271" y="570.7292817679559"/>
      <point x="567.9281767955802" y="570.7292817679559" type="curve" smooth="yes"/>
      <point x="675.4475138121547" y="570.7292817679559"/>
      <point x="811.5580110497236" y="597.756906077348"/>
    </contour>
  </outline>
</glyph>
<glyph name="Ia-cy" format="2">
  <advance width="1320.1381215469614"/>
  <unicode hex="042F"/>
  <outline>
    <contour>
      <point x="7.182320441988949" y="0.0" type="line"/>
      <point x="272.5524861878453" y="0.0" type="line" smooth="yes"/>
      <point x="365.04419889502765" y="0.0"/>
      <point x="481.95580110497235" y="559.5856353591162"/>
      <point x="680.8784530386739" y="667.6022099447513" type="curve"/>
      <point x="756.2707182320441" y="664.7292817679557"/>
      <point x="830.9447513812155" y="666.1657458563535"/>
      <point x="904.900552486188" y="666.1657458563535" type="curve"/>
      <point x="904.900552486188" y="67.69060773480662" type="line"/>
      <point x="732.1712707182321" y="36.28176795580111" type="line"/>
      <point x="732.1712707182321" y="0.0" type="line"/>
      <point x="1288.8011049723757" y="0.0" type="line"/>
      <point x="1288.8011049723757" y="36.28176795580111" type="line"/>
      <point x="1121.7624309392265" y="67.69060773480662" type="line"/>
      <point x="1121.7624309392265" y="1418.3093922651935" type="line"/>
      <point x="1275.5911602209944" y="1449.7182320441989" type="line"/>
      <point x="1275.5911602209944" y="1486.0" type="line"/>
      <point x="992.4309392265193" y="1486.0" type="line" smooth="yes"/>
      <point x="896.8784530386741" y="1486.0"/>
      <point x="830.3425414364641" y="1498.3370165745857"/>
      <point x="728.9005524861877" y="1498.3370165745857" type="curve" smooth="yes"/>
      <point x="422.1878453038674" y="1498.3370165745857"/>
      <point x="178.02762430939228" y="1381.4751381215472"/>
      <point x="178.02762430939228" y="1056.889502762431" type="curve" smooth="yes"/>
      <point x="178.02762430939228" y="864.8176795580112"/>
      <point x="302.9558011049724" y="713.0"/>
      <point x="535.7016574585635" y="679.1104972375691" type="curve"/>
      <point x="265.8066298342541" y="605.7845303867405"/>
      <point x="176.51933701657458" y="87.8453038674033"/>
      <point x="76.49171270718232" y="57.84530386740332" type="curve"/>
      <point x="7.182320441988949" y="36.563535911602216" type="line"/>
    </contour>
    <contour>
      <point x="738.6850828729282" y="717.1104972375691" type="curve" smooth="yes"/>
      <point x="527.5082872928177" y="717.1104972375691"/>
      <point x="412.27071823204415" y="832.292817679558"/>
      <point x="412.27071823204415" y="1066.2983425414366" type="curve" smooth="yes"/>
      <point x="412.27071823204415" y="1315.3204419889503"/>
      <point x="529.6022099447514" y="1448.0828729281768"/>
      <point x="729.3867403314916" y="1448.0828729281768" type="curve" smooth="yes"/>
      <point x="788.6519337016575" y="1448.0828729281768"/>
      <point x="845.9171270718233" y="1440.3370165745855"/>
      <point x="904.900552486188" y="1427.3093922651933" type="curve"/>
      <point x="904.900552486188" y="730.4475138121546" type="line"/>
      <point x="876.9723756906077" y="723.1381215469613"/>
      <point x="820.9889502762431" y="717.1104972375691"/>
    </contour>
  </outline>
</glyph>
<glyph name="be-cy" format="2">
  <advance width="1032.1215469613257"/>
  <unicode hex="0431"/>
  <outline>
    <contour>
      <point x="531.0994475138122" y="-24.0" type="curve" smooth="yes"/>
      <point x="798.4751381215468" y="-24.0"/>
      <point x="975.4751381215468" y="202.9171270718232"/>
      <point x="975.4751381215468" y="547.900552486188" type="curve" smooth="yes"/>
      <point x="975.4751381215468" y="909.7458563535912"/>
      <point x="775.4585635359116" y="1039.0"/>
      <point x="568.6961325966851" y="1039.0" type="curve" smooth="yes"/>
      <point x="357.110497237569" y="1039.0"/>
      <point x="230.98342541436466" y="927.4198895027625"/>
      <point x="139.11049723756906" y="778.4917127071823" type="curve"/>
      <point x="141.98342541436463" y="1174.6519337016573"/>
      <point x="337.9447513812155" y="1339.0939226519338"/>
      <point x="664.7845303867402" y="1387.331491712707" type="curve" smooth="yes"/>
      <point x="770.0055248618785" y="1405.2596685082874"/>
      <point x="852.1325966850831" y="1420.5690607734807"/>
      <point x="890.5690607734807" y="1449.878453038674" type="curve"/>
      <point x="924.6408839779006" y="1703.3812154696134" type="line"/>
      <point x="886.3867403314918" y="1703.3812154696134" type="line"/>
      <point x="874.0055248618785" y="1664.5635359116022" type="line" smooth="yes"/>
      <point x="851.1602209944751" y="1585.8618784530388"/>
      <point x="768.9337016574585" y="1553.3535911602212"/>
      <point x="645.8397790055249" y="1533.9889502762433" type="curve" smooth="yes"/>
      <point x="254.8839779005525" y="1481.2872928176794"/>
      <point x="58.41988950276244" y="1187.3480662983425"/>
      <point x="58.41988950276244" y="684.0" type="curve" smooth="yes"/>
      <point x="58.41988950276244" y="171.26519337016572"/>
      <point x="233.17127071823208" y="-24.0"/>
    </contour>
    <contour>
      <point x="539.2265193370166" y="27.690607734806626" type="curve" smooth="yes"/>
      <point x="330.8839779005525" y="27.690607734806626"/>
      <point x="269.2541436464088" y="252.33701657458565"/>
      <point x="269.2541436464088" y="545.5635359116022" type="curve" smooth="yes"/>
      <point x="269.2541436464088" y="671.1160220994476"/>
      <point x="273.2265193370166" y="732.243093922652"/>
      <point x="280.35359116022096" y="811.7513812154697" type="curve"/>
      <point x="328.95580110497235" y="910.8618784530386"/>
      <point x="423.48618784530385" y="979.0"/>
      <point x="528.8342541436464" y="979.0" type="curve" smooth="yes"/>
      <point x="657.6187845303867" y="979.0"/>
      <point x="753.4861878453038" y="871.0994475138122"/>
      <point x="753.4861878453038" y="538.5193370165746" type="curve" smooth="yes"/>
      <point x="753.4861878453038" y="219.17127071823202"/>
      <point x="672.7458563535911" y="27.690607734806626"/>
    </contour>
  </outline>
</glyph>
<glyph name="ve-cy" format="2">
  <advance width="986.4917127071823"/>
  <unicode hex="0432"/>
  <outline>
    <contour>
      <point x="491.50276243093924" y="-8.0" type="curve" smooth="yes"/>
      <point x="799.7624309392265" y="-8.0"/>
      <point x="940.3535911602211" y="105.59116022099448"/>
      <point x="940.3535911602211" y="298.15469613259665" type="curve" smooth="yes"/>
      <point x="940.3535911602211" y="446.1436464088398"/>
      <point x="832.4917127071823" y="532.9447513812155"/>
      <point x="642.6629834254144" y="541.2541436464089" type="curve"/>
      <point x="782.6077348066299" y="570.5359116022099"/>
      <point x="869.7348066298342" y="652.7182320441989"/>
      <point x="869.7348066298342" y="785.2541436464089" type="curve" smooth="yes"/>
      <point x="869.7348066298342" y="933.3259668508288"/>
      <point x="757.6740331491712" y="1014.1270718232045"/>
      <point x="501.1657458563536" y="1014.1270718232045" type="curve" smooth="yes"/>
      <point x="400.37569060773484" y="1014.1270718232045"/>
      <point x="291.03314917127074" y="1005.0"/>
      <point x="217.04419889502762" y="1005.0" type="curve" smooth="yes"/>
      <point x="22.055248618784532" y="1005.0" type="line"/>
      <point x="22.055248618784532" y="967.7182320441989" type="line"/>
      <point x="148.92817679558013" y="936.5911602209945" type="line"/>
      <point x="148.92817679558013" y="68.40883977900553" type="line"/>
      <point x="22.055248618784525" y="36.56353591160221" type="line"/>
      <point x="22.055248618784525" y="0.0" type="line"/>
      <point x="211.5524861878453" y="0.0" type="line" smooth="yes"/>
      <point x="280.8232044198896" y="0.0"/>
      <point x="394.4309392265194" y="-8.0"/>
    </contour>
    <contour>
      <point x="476.1491712707182" y="50.817679558011044" type="curve" smooth="yes"/>
      <point x="426.34806629834253" y="50.817679558011044"/>
      <point x="373.3646408839779" y="57.690607734806626"/>
      <point x="343.0276243093923" y="65.12707182320442" type="curve"/>
      <point x="343.0276243093923" y="488.0994475138122" type="line"/>
      <point x="519.243093922652" y="488.0994475138122" type="line" smooth="yes"/>
      <point x="646.07182320442" y="488.0994475138122"/>
      <point x="735.6906077348066" y="420.25414364640886"/>
      <point x="735.6906077348066" y="280.7182320441989" type="curve" smooth="yes"/>
      <point x="735.6906077348066" y="143.0"/>
      <point x="639.6629834254145" y="50.817679558011044"/>
    </contour>
    <contour>
      <point x="343.0276243093923" y="544.3535911602211" type="line"/>
      <point x="343.0276243093923" y="945.1546961325967" type="line"/>
      <point x="379.23756906077347" y="950.5911602209944"/>
      <point x="430.93922651933707" y="955.3093922651933"/>
      <point x="484.4585635359116" y="955.3093922651933" type="curve" smooth="yes"/>
      <point x="606.6795580110497" y="955.3093922651933"/>
      <point x="677.8342541436464" y="876.6353591160221"/>
      <point x="677.8342541436464" y="772.9447513812155" type="curve" smooth="yes"/>
      <point x="677.8342541436464" y="651.817679558011"/>
      <point x="599.9779005524862" y="544.3535911602211"/>
      <point x="493.1049723756906" y="544.3535911602211" type="curve"/>
    </contour>
  </outline>
</glyph>
<glyph name="ge-cy" format="2">
  <advance width="818.5469613259669"/>
  <unicode hex="0433"/>
  <anchor x="346.15469613259677" y="0.0" name="bottomright"/>
  <anchor x="454.6795580110498" y="556.0" name="center"/>
  <anchor x="423.7237569060773" y="1110.2817679558011" name="top"/>
  <outline>
    <contour>
      <point x="22.055248618784535" y="1005.0" type="line"/>
      <point x="22.055248618784535" y="968.4364640883979" type="line"/>
      <point x="148.9281767955801" y="936.5911602209944" type="line"/>
      <point x="148.9281767955801" y="68.40883977900553" type="line"/>
      <point x="22.055248618784532" y="36.563535911602216" type="line"/>
      <point x="22.055248618784532" y="0.0" type="line"/>
      <point x="528.4088397790055" y="0.0" type="line"/>
      <point x="528.4088397790055" y="36.563535911602216" type="line"/>
      <point x="346.15469613259665" y="68.40883977900553" type="line"/>
      <point x="346.15469613259665" y="951.8453038674033" type="line"/>
      <point x="617.2983425414366" y="944.7182320441989" type="line"/>
      <point x="673.5524861878454" y="620.4198895027623" type="line"/>
      <point x="786.8011049723757" y="620.4198895027623" type="line"/>
      <point x="778.2375690607735" y="1005.0" type="line"/>
    </contour>
  </outline>
</glyph>
<glyph name="zhe-cy" format="2">
  <advance width="1562.6408839779006"/>
  <unicode hex="0436"/>
  <anchor x="1560.3591160220994" y="0.0" name="bottomright"/>
  <anchor x="781.6022099447514" y="1110.0" name="top"/>
  <outline>
    <contour>
      <point x="2.5635359116022114" y="0.0" type="line"/>
      <point x="180.15469613259668" y="0.0" type="line"/>
      <point x="410.5193370165746" y="0.0"/>
      <point x="384.9834254143646" y="497.8729281767955"/>
      <point x="606.8508287292817" y="497.8729281767955" type="curve" smooth="yes"/>
      <point x="684.5524861878453" y="497.8729281767955" type="line"/>
      <point x="684.5524861878453" y="68.40883977900552" type="line"/>
      <point x="559.9337016574585" y="36.563535911602216" type="line"/>
      <point x="559.9337016574585" y="0.0" type="line"/>
      <point x="1003.2707182320443" y="0.0" type="line"/>
      <point x="1003.2707182320443" y="36.563535911602216" type="line"/>
      <point x="878.6519337016574" y="68.40883977900552" type="line"/>
      <point x="878.6519337016574" y="497.8729281767955" type="line"/>
      <point x="947.5082872928176" y="497.8729281767955" type="line" smooth="yes"/>
      <point x="1171.0662983425414" y="497.8729281767955"/>
      <point x="1146.966850828729" y="0.0"/>
      <point x="1376.2044198895026" y="0.0" type="curve"/>
      <point x="1557.2044198895028" y="0.0" type="line"/>
      <point x="1557.2044198895028" y="36.5635359116022" type="line"/>
      <point x="1512.331491712707" y="54.2817679558011" type="line" smooth="yes"/>
      <point x="1330.4585635359117" y="125.56353591160219"/>
      <point x="1380.718232044199" y="585.9116022099448"/>
      <point x="1018.8839779005524" y="544.0552486187845" type="curve"/>
      <point x="1052.171270718232" y="491.44751381215474" type="line"/>
      <point x="1354.4696132596687" y="936.0276243093922" type="line"/>
      <point x="1501.088397790055" y="968.4364640883978" type="line"/>
      <point x="1501.088397790055" y="1005.0" type="line"/>
      <point x="1141.790055248619" y="1005.0" type="line"/>
      <point x="1141.790055248619" y="968.4364640883978" type="line"/>
      <point x="1274.6077348066297" y="936.0276243093922" type="line"/>
      <point x="1025.624309392265" y="554.4088397790056" type="line"/>
      <point x="878.6519337016574" y="554.4088397790056" type="line"/>
      <point x="878.6519337016574" y="936.5911602209944" type="line"/>
      <point x="998.1436464088398" y="968.4364640883978" type="line"/>
      <point x="998.1436464088398" y="1005.0" type="line"/>
      <point x="565.0607734806631" y="1005.0" type="line"/>
      <point x="565.0607734806631" y="968.4364640883978" type="line"/>
      <point x="684.5524861878453" y="936.5911602209944" type="line"/>
      <point x="684.5524861878453" y="554.4088397790056" type="line"/>
      <point x="539.5801104972376" y="554.4088397790056" type="line"/>
      <point x="290.5966850828729" y="936.0276243093922" type="line"/>
      <point x="421.97790055248623" y="968.4364640883978" type="line"/>
      <point x="421.97790055248623" y="1005.0" type="line"/>
      <point x="61.5524861878453" y="1005.0" type="line"/>
      <point x="61.5524861878453" y="968.4364640883978" type="line"/>
      <point x="208.17127071823205" y="936.0276243093922" type="line"/>
      <point x="510.4696132596684" y="491.44751381215474" type="line"/>
      <point x="543.756906077348" y="544.0552486187845" type="line"/>
      <point x="179.61325966850828" y="585.9116022099448"/>
      <point x="227.33701657458562" y="125.84530386740329"/>
      <point x="47.7182320441989" y="54.56353591160221" type="curve" smooth="yes"/>
      <point x="2.5635359116022114" y="36.5635359116022" type="line"/>
    </contour>
  </outline>
</glyph>
<glyph name="te-cy" format="2">
  <advance width="1031.8453038674033"/>
  <unicode hex="0442"/>
  <outline>
    <contour>
      <point x="228.5911602209945" y="0.0" type="line"/>
      <point x="801.8176795580112" y="0.0" type="line"/>
      <point x="801.8176795580112" y="36.563535911602216" type="line"/>
      <point x="613.8176795580109" y="68.40883977900552" type="line"/>
      <point x="613.8176795580109" y="953.0" type="line"/>
      <point x="830.5966850828728" y="943.8729281767955" type="line"/>
      <point x="886.8508287292818" y="620.4198895027624" type="line"/>
      <point x="1000.0994475138122" y="620.4198895027624" type="line"/>
      <point x="992.0994475138122" y="1005.0" type="line"/>
      <point x="39.745856353591165" y="1005.0" type="line"/>
      <point x="31.74585635359115" y="620.4198895027624" type="line"/>
      <point x="143.55801104972375" y="620.4198895027624" type="line"/>
      <point x="199.81215469613258" y="943.8729281767955" type="line"/>
      <point x="416.59116022099454" y="953.0" type="line"/>
      <point x="416.59116022099454" y="68.40883977900552" type="line"/>
      <point x="228.5911602209945" y="36.563535911602216" type="line"/>
    </contour>
  </outline>
</glyph>
<glyph name="sha-cy" format="2">
  <advance width="1612.3867403314916"/>
  <unicode hex="0448"/>
  <anchor x="1589.767955801105" y="0.0" name="bottomright"/>
  <outline>
    <contour>
      <point x="22.055248618784532" y="0.0" type="line"/>
      <point x="1590.3314917127072" y="0.0" type="line"/>
      <point x="1590.3314917127072" y="36.563535911602216" type="line"/>
      <point x="1463.4585635359115" y="68.40883977900552" type="line"/>
      <point x="1463.4585635359115" y="936.8729281767955" type="line"/>
      <point x="1589.204419889503" y="968.7182320441989" type="line"/>
      <point x="1589.204419889503" y="1005.2817679558011" type="line"/>
      <point x="1150.6850828729282" y="1005.2817679558011" type="line"/>
      <point x="1150.6850828729282" y="968.7182320441989" type="line"/>
      <point x="1266.232044198895" y="936.8729281767955" type="line"/>
      <point x="1266.232044198895" y="59.94475138121547" type="line"/>
      <point x="904.8066298342541" y="59.94475138121547" type="line"/>
      <point x="904.8066298342541" y="936.8729281767955" type="line"/>
      <point x="1017.7900552486187" y="968.7182320441989" type="line"/>
      <point x="1017.7900552486187" y="1005.2817679558011" type="line"/>
      <point x="592.0331491712707" y="1005.2817679558011" type="line"/>
      <point x="592.0331491712707" y="968.7182320441989" type="line"/>
      <point x="707.5801104972376" y="936.8729281767955" type="line"/>
      <point x="707.5801104972376" y="59.94475138121547" type="line"/>
      <point x="346.1546961325967" y="59.94475138121547" type="line"/>
      <point x="346.1546961325967" y="936.8729281767955" type="line"/>
      <point x="459.1381215469612" y="968.7182320441989" type="line"/>
      <point x="459.1381215469612" y="1005.2817679558011" type="line"/>
      <point x="23.18232044198895" y="1005.2817679558011" type="line"/>
      <point x="23.18232044198895" y="968.7182320441989" type="line"/>
      <point x="148.9281767955801" y="936.8729281767955" type="line"/>
      <point x="148.9281767955801" y="68.40883977900552" type="line"/>
      <point x="22.055248618784532" y="36.563535911602216" type="line"/>
    </contour>
  </outline>
</glyph>
<glyph name="ereversed-cy" format="2">
  <advance width="906.3314917127071"/>
  <unicode hex="044D"/>
  <anchor x="428.3977900552486" y="1110.0" name="top"/>
  <outline>
    <contour>
      <point x="375.52486187845307" y="-23.69060773480663" type="curve" smooth="yes"/>
      <point x="660.756906077348" y="-23.69060773480663"/>
      <point x="861.6850828729283" y="187.9171270718232"/>
      <point x="861.6850828729283" y="527.1270718232045" type="curve" smooth="yes"/>
      <point x="861.6850828729283" y="853.7458563535912"/>
      <point x="702.7845303867402" y="1039.0"/>
      <point x="399.0331491712707" y="1039.0" type="curve" smooth="yes"/>
      <point x="278.353591160221" y="1039.0"/>
      <point x="160.91712707182322" y="1005.9005524861877"/>
      <point x="77.18232044198895" y="963.6740331491714" type="curve"/>
      <point x="83.18232044198895" y="711.292817679558" type="line"/>
      <point x="192.4309392265193" y="711.292817679558" type="line"/>
      <point x="237.50276243093927" y="917.9613259668508" type="line"/>
      <point x="252.91160220994473" y="955.7900552486187"/>
      <point x="307.9226519337017" y="987.3093922651934"/>
      <point x="382.5801104972375" y="987.3093922651934" type="curve" smooth="yes"/>
      <point x="553.8839779005524" y="987.3093922651934"/>
      <point x="637.5138121546961" y="805.1657458563535"/>
      <point x="646.5138121546961" y="541.1546961325968" type="curve"/>
      <point x="648.5138121546961" y="483.9723756906078" type="line"/>
      <point x="658.5138121546961" y="202.3701657458563"/>
      <point x="545.0" y="28.000000000000004"/>
      <point x="388.5966850828729" y="28.000000000000004" type="curve" smooth="yes"/>
      <point x="302.6574585635359" y="28.000000000000004"/>
      <point x="258.57458563535914" y="74.95580110497238"/>
      <point x="250.1657458563536" y="102.92817679558011" type="curve" smooth="yes"/>
      <point x="187.86740331491714" y="312.50828729281767" type="line"/>
      <point x="79.18232044198895" y="312.50828729281767" type="line"/>
      <point x="87.43646408839778" y="40.591160220994475" type="line"/>
      <point x="158.04419889502762" y="6.209944751381215"/>
      <point x="269.5524861878453" y="-23.69060773480663"/>
    </contour>
    <contour>
      <point x="269.1436464088398" y="452.8563535911602" type="line"/>
      <point x="681.5193370165746" y="495.77348066298345" type="line"/>
      <point x="681.5193370165746" y="538.0276243093922" type="line"/>
      <point x="269.1436464088398" y="576.0165745856353" type="line"/>
    </contour>
  </outline>
</glyph>
<glyph name="iu-cy" format="2">
  <advance width="1548.6077348066299"/>
  <unicode hex="044E"/>
  <outline>
    <contour>
      <point x="1026.2928176795579" y="-22.56353591160221" type="curve" smooth="yes"/>
      <point x="1262.7624309392265" y="-22.56353591160221"/>
      <point x="1503.9613259668508" y="169.32044198895028"/>
      <point x="1503.9613259668508" y="523.4640883977901" type="curve" smooth="yes"/>
      <point x="1503.9613259668508" y="806.2872928176795"/>
      <point x="1371.0552486187844" y="1039.0"/>
      <point x="1057.0828729281768" y="1039.0" type="curve" smooth="yes"/>
      <point x="832.7403314917127" y="1039.0"/>
      <point x="598.5414364640883" y="863.0441988950276"/>
      <point x="580.8508287292818" y="546.4088397790056" type="curve"/>
      <point x="346.15469613259677" y="546.4088397790056" type="line"/>
      <point x="346.15469613259677" y="936.5911602209944" type="line"/>
      <point x="474.26519337016566" y="968.4364640883978" type="line"/>
      <point x="474.26519337016566" y="1005.0" type="line"/>
      <point x="22.618784530386748" y="1005.0" type="line"/>
      <point x="22.618784530386748" y="968.4364640883978" type="line"/>
      <point x="148.9281767955801" y="936.5911602209944" type="line"/>
      <point x="148.9281767955801" y="68.40883977900552" type="line"/>
      <point x="22.055248618784532" y="36.563535911602216" type="line"/>
      <point x="22.055248618784532" y="0.0" type="line"/>
      <point x="474.2651933701657" y="0.0" type="line"/>
      <point x="474.2651933701657" y="36.563535911602216" type="line"/>
      <point x="346.15469613259677" y="68.40883977900552" type="line"/>
      <point x="346.15469613259677" y="489.59116022099454" type="line"/>
      <point x="578.8508287292817" y="489.59116022099454" type="line"/>
      <point x="581.414364640884" y="209.61325966850828"/>
      <point x="714.4475138121546" y="-22.56353591160221"/>
    </contour>
    <contour>
      <point x="1041.6740331491715" y="29.127071823204425" type="curve" smooth="yes"/>
      <point x="868.4696132596686" y="29.127071823204425"/>
      <point x="800.8397790055249" y="252.9226519337017"/>
      <point x="800.8397790055249" y="516.4088397790055" type="curve" smooth="yes"/>
      <point x="800.8397790055249" y="828.5359116022099"/>
      <point x="889.5524861878454" y="987.3093922651935"/>
      <point x="1041.7016574585634" y="987.3093922651935" type="curve" smooth="yes"/>
      <point x="1215.1878453038673" y="987.3093922651935"/>
      <point x="1282.53591160221" y="758.414364640884"/>
      <point x="1282.53591160221" y="500.3370165745857" type="curve" smooth="yes"/>
      <point x="1282.53591160221" y="186.6740331491713"/>
      <point x="1192.1049723756905" y="29.127071823204425"/>
    </contour>
  </outline>
</glyph>
<glyph name="dje-cy" format="2">
  <advance width="1073.292817679558"/>
  <unicode hex="0452"/>
  <outline>
    <contour>
      <point x="599.7790055248618" y="-480.69060773480663" type="curve"/>
      <point x="808.1878453038674" y="-480.69060773480663"/>
      <point x="951.1823204419888" y="-299.889502762431"/>
      <point x="951.1823204419888" y="-14.513812154696131" type="curve" smooth="yes"/>
      <point x="951.1823204419888" y="633.9889502762431" type="line" smooth="yes"/>
      <point x="951.1823204419888" y="875.6408839779007"/>
      <point x="890.5027624309392" y="1027.5082872928178"/>
      <point x="668.4917127071823" y="1027.5082872928178" type="curve" smooth="yes"/>
      <point x="499.2541436464088" y="1027.5082872928178"/>
      <point x="388.12707182320435" y="927.1988950276242"/>
      <point x="315.99999999999994" y="836.5082872928177" type="curve"/>
      <point x="319.5635359116022" y="1001.0552486187845" type="line"/>
      <point x="319.5635359116022" y="1615.1381215469614" type="line"/>
      <point x="292.03867403314916" y="1636.8729281767955" type="line"/>
      <point x="251.44751381215465" y="1636.8729281767955" type="line"/>
      <point x="-4.464088397790057" y="1581.486187845304" type="line"/>
      <point x="-4.464088397790057" y="1551.1049723756907" type="line"/>
      <point x="124.49171270718232" y="1524.2154696132595" type="line"/>
      <point x="124.49171270718232" y="68.40883977900552" type="line"/>
      <point x="5.309392265193364" y="36.563535911602216" type="line"/>
      <point x="5.309392265193364" y="0.0" type="line"/>
      <point x="435.02762430939237" y="0.0" type="line"/>
      <point x="435.02762430939237" y="36.563535911602216" type="line"/>
      <point x="319.56353591160223" y="68.40883977900552" type="line"/>
      <point x="319.56353591160223" y="807.6906077348066" type="line"/>
      <point x="401.96685082872926" y="873.3480662983425"/>
      <point x="475.30386740331494" y="908.9668508287293"/>
      <point x="591.3977900552485" y="908.9668508287293" type="curve" smooth="yes"/>
      <point x="732.2928176795581" y="908.9668508287293"/>
      <point x="754.3922651933701" y="796.7182320441989"/>
      <point x="754.3922651933701" y="628.9613259668508" type="curve" smooth="yes"/>
      <point x="754.3922651933701" y="49.02209944751381" type="line" smooth="yes"/>
      <point x="754.3922651933701" y="-252.39226519337018"/>
      <point x="708.8729281767957" y="-334.5911602209944"/>
      <point x="631.2099447513812" y="-390.0828729281768" type="curve" smooth="yes"/>
      <point x="596.9558011049724" y="-414.3922651933701"/>
      <point x="542.0552486187844" y="-424.1381215469613"/>
      <point x="521.2651933701657" y="-422.70165745856355" type="curve"/>
      <point x="526.2099447513812" y="-474.74585635359114" type="line"/>
      <point x="542.7734806629833" y="-477.4364640883978"/>
      <point x="572.099447513812" y="-480.69060773480663"/>
    </contour>
    <contour>
      <point x="615.2651933701658" y="1292.0" type="line"/>
      <point x="14.872928176795575" y="1292.0" type="line"/>
      <point x="14.872928176795623" y="1229.1823204419888" type="line"/>
      <point x="615.2651933701658" y="1229.1823204419888" type="line"/>
    </contour>
  </outline>
</glyph>
<glyph name="e-cy" format="2">
  <advance width="908.767955801105"/>
  <unicode hex="0454"/>
  <outline>
    <contour>
      <point x="506.14364640883974" y="-23.69060773480663" type="curve" smooth="yes"/>
      <point x="627.9779005524862" y="-23.69060773480663"/>
      <point x="751.8232044198895" y="11.408839779005522"/>
      <point x="831.5856353591159" y="55.63535911602211" type="curve"/>
      <point x="825.5856353591159" y="312.50828729281767" type="line"/>
      <point x="716.3370165745856" y="312.50828729281767" type="line"/>
      <point x="670.2651933701658" y="101.34806629834254" type="line"/>
      <point x="657.7016574585635" y="68.70165745856353"/>
      <point x="608.4364640883978" y="28.000000000000004"/>
      <point x="526.5966850828729" y="28.000000000000004" type="curve" smooth="yes"/>
      <point x="350.9834254143646" y="28.000000000000004"/>
      <point x="268.81767955801104" y="221.29834254143648"/>
      <point x="259.81767955801104" y="479.0276243093923" type="curve"/>
      <point x="257.81767955801104" y="536.2099447513813" type="line"/>
      <point x="247.81767955801106" y="816.939226519337"/>
      <point x="366.0220994475138" y="987.3093922651933"/>
      <point x="520.9613259668508" y="987.3093922651933" type="curve" smooth="yes"/>
      <point x="606.0552486187845" y="987.3093922651933"/>
      <point x="653.2928176795581" y="940.9171270718232"/>
      <point x="659.1381215469613" y="916.3812154696133" type="curve" smooth="yes"/>
      <point x="703.7734806629835" y="711.292817679558" type="line"/>
      <point x="812.4585635359116" y="711.292817679558" type="line"/>
      <point x="821.0220994475138" y="978.7182320441989" type="line"/>
      <point x="745.0607734806631" y="1011.3812154696133"/>
      <point x="641.1878453038674" y="1039.0"/>
      <point x="534.9060773480663" y="1039.0" type="curve" smooth="yes"/>
      <point x="258.91160220994476" y="1039.0"/>
      <point x="44.646408839779006" y="838.8287292817679"/>
      <point x="44.646408839779006" y="491.87292817679565" type="curve" smooth="yes"/>
      <point x="44.646408839779006" y="164.43646408839777"/>
      <point x="200.1823204419889" y="-23.69060773480663"/>
    </contour>
    <contour>
      <point x="629.1436464088397" y="454.1381215469613" type="line"/>
      <point x="629.1436464088397" y="577.2983425414365" type="line"/>
      <point x="224.5303867403315" y="535.8176795580109" type="line"/>
      <point x="224.5303867403315" y="494.69060773480663" type="line"/>
    </contour>
  </outline>
</glyph>
<glyph name="yat-cy" format="2">
  <advance width="1223.0994475138123"/>
  <unicode hex="0463"/>
  <outline>
    <contour>
      <point x="756.9447513812154" y="-12.0" type="curve" smooth="yes"/>
      <point x="1023.4088397790055" y="-12.0"/>
      <point x="1178.1712707182319" y="114.92817679558011"/>
      <point x="1178.1712707182319" y="323.71823204419894" type="curve" smooth="yes"/>
      <point x="1178.1712707182319" y="527.1270718232045"/>
      <point x="1031.1988950276243" y="599.3812154696133"/>
      <point x="831.1270718232045" y="599.3812154696133" type="curve" smooth="yes"/>
      <point x="734.8453038674032" y="599.3812154696133"/>
      <point x="664.5635359116022" y="581.9447513812155"/>
      <point x="606.3812154696133" y="560.7900552486187" type="curve"/>
      <point x="606.3812154696133" y="966.3812154696133" type="line"/>
      <point x="827.7237569060774" y="959.2541436464088" type="line"/>
      <point x="883.9779005524861" y="704.8729281767955" type="line"/>
      <point x="997.2265193370166" y="704.8729281767955" type="line"/>
      <point x="988.6629834254144" y="1018.6906077348067" type="line"/>
      <point x="606.3812154696133" y="1018.6906077348067" type="line"/>
      <point x="606.3812154696133" y="1615.1381215469614" type="line"/>
      <point x="580.8287292817678" y="1636.8729281767955" type="line"/>
      <point x="540.5193370165747" y="1636.8729281767955" type="line"/>
      <point x="282.63535911602213" y="1581.486187845304" type="line"/>
      <point x="282.63535911602213" y="1551.1049723756907" type="line"/>
      <point x="410.59116022099454" y="1524.2154696132598" type="line"/>
      <point x="410.59116022099454" y="1018.6906077348067" type="line"/>
      <point x="40.30939226519337" y="1018.6906077348067" type="line"/>
      <point x="31.74585635359115" y="704.8729281767955" type="line"/>
      <point x="143.55801104972375" y="704.8729281767955" type="line"/>
      <point x="199.8121546961326" y="959.2541436464088" type="line"/>
      <point x="410.59116022099454" y="966.3812154696133" type="line"/>
      <point x="410.59116022099454" y="68.40883977900553" type="line"/>
      <point x="222.59116022099448" y="36.563535911602216" type="line"/>
      <point x="222.59116022099448" y="0.0" type="line"/>
      <point x="483.0497237569062" y="0.0" type="line" smooth="yes"/>
      <point x="565.4309392265193" y="0.0"/>
      <point x="677.353591160221" y="-12.0"/>
    </contour>
    <contour>
      <point x="725.6850828729283" y="45.12707182320442" type="curve" smooth="yes"/>
      <point x="672.9558011049724" y="45.12707182320442"/>
      <point x="632.1546961325968" y="56.872928176795575"/>
      <point x="606.3812154696133" y="66.30939226519337" type="curve"/>
      <point x="606.3812154696133" y="516.7900552486187" type="line"/>
      <point x="642.92817679558" y="527.5359116022099"/>
      <point x="709.8121546961327" y="536.8453038674033"/>
      <point x="757.3591160220994" y="536.8453038674033" type="curve" smooth="yes"/>
      <point x="880.7071823204419" y="536.8453038674033"/>
      <point x="975.5082872928175" y="470.0994475138122"/>
      <point x="975.5082872928175" y="305.56353591160223" type="curve" smooth="yes"/>
      <point x="975.5082872928175" y="129.71823204419888"/>
      <point x="865.3701657458563" y="45.12707182320442"/>
    </contour>
  </outline>
</glyph>
<glyph name="Yusbig-cy" format="2">
  <advance width="2020.4309392265188"/>
  <unicode hex="046A"/>
  <outline>
    <contour>
      <point x="7.182320441988953" y="0.0" type="line"/>
      <point x="279.7348066298342" y="0.0" type="line" smooth="yes"/>
      <point x="414.8397790055249" y="0.0"/>
      <point x="658.3591160220993" y="726.0441988950276"/>
      <point x="820.878453038674" y="726.0441988950276" type="curve" smooth="yes"/>
      <point x="899.7348066298343" y="726.0441988950276" type="line"/>
      <point x="899.7348066298343" y="66.97237569060775" type="line"/>
      <point x="751.3701657458563" y="38.0" type="line"/>
      <point x="751.3701657458563" y="0.0" type="line"/>
      <point x="1279.7237569060774" y="0.0" type="line"/>
      <point x="1279.7237569060774" y="36.563535911602216" type="line"/>
      <point x="1119.9779005524863" y="68.40883977900553" type="line"/>
      <point x="1119.9779005524863" y="726.0441988950276" type="line"/>
      <point x="1185.1878453038673" y="726.0441988950276" type="line" smooth="yes"/>
      <point x="1369.2541436464087" y="726.0441988950276"/>
      <point x="1605.5911602209944" y="0.0"/>
      <point x="1740.6961325966852" y="0.0" type="curve" smooth="yes"/>
      <point x="2013.2486187845302" y="0.0" type="line"/>
      <point x="2013.2486187845302" y="30.817679558011054" type="line"/>
      <point x="1946.9944751381217" y="50.66298342541437" type="line" smooth="yes"/>
      <point x="1873.220994475138" y="72.53591160220994"/>
      <point x="1732.46408839779" y="341.97237569060775"/>
      <point x="1597.7790055248622" y="544.0994475138122" type="curve" smooth="yes"/>
      <point x="1505.8508287292816" y="687.878453038674"/>
      <point x="1415.977900552486" y="789.1712707182321"/>
      <point x="1313.2265193370167" y="789.1712707182321" type="curve" smooth="yes"/>
      <point x="1163.1878453038676" y="789.1712707182321" type="line"/>
      <point x="1660.0883977900553" y="1419.1546961325967" type="line"/>
      <point x="1645.0165745856355" y="1486.0" type="line"/>
      <point x="370.9502762430939" y="1486.0" type="line"/>
      <point x="355.878453038674" y="1419.1546961325967" type="line"/>
      <point x="851.3425414364641" y="789.1712707182321" type="line"/>
      <point x="707.2044198895028" y="789.1712707182321" type="line" smooth="yes"/>
      <point x="604.4530386740332" y="789.1712707182321"/>
      <point x="514.5801104972376" y="687.878453038674"/>
      <point x="422.65193370165747" y="544.0994475138122" type="curve" smooth="yes"/>
      <point x="287.96685082872926" y="341.97237569060775"/>
      <point x="147.20994475138124" y="72.53591160220992"/>
      <point x="73.43646408839778" y="50.66298342541437" type="curve" smooth="yes"/>
      <point x="7.182320441988953" y="30.817679558011054" type="line"/>
    </contour>
    <contour>
      <point x="527.0939226519337" y="1383.5745856353592" type="line"/>
      <point x="1488.3093922651933" y="1383.5745856353592" type="line"/>
      <point x="1008.7016574585634" y="716.1602209944751" type="line"/>
    </contour>
  </outline>
</glyph>
<glyph name="fita-cy" format="2">
  <advance width="1019.9392265193374"/>
  <unicode hex="0473"/>
  <anchor x="511.90607734806645" y="0.0" name="bottom"/>
  <anchor x="511.18784530386745" y="506.2817679558011" name="center"/>
  <anchor x="561.1767955801105" y="10.0" name="ogonek"/>
  <anchor x="511.9060773480664" y="1110.0" name="top"/>
  <anchor x="746.7182320441989" y="1005.0" name="topright"/>
  <outline>
    <contour>
      <point x="265.19889502762425" y="484.3204419889503" type="line"/>
      <point x="292.97237569060775" y="497.91160220994465"/>
      <point x="332.80110497237575" y="508.2209944751381"/>
      <point x="369.62983425414365" y="508.2209944751381" type="curve" smooth="yes"/>
      <point x="479.060773480663" y="508.2209944751381"/>
      <point x="511.0883977900552" y="410.110497237569"/>
      <point x="629.92817679558" y="410.110497237569" type="curve" smooth="yes"/>
      <point x="689.3480662983426" y="410.110497237569"/>
      <point x="726.9668508287292" y="435.57458563535914"/>
      <point x="755.3038674033149" y="466.70165745856355" type="curve"/>
      <point x="755.3038674033149" y="527.6077348066299" type="line"/>
      <point x="727.5303867403316" y="514.0165745856353"/>
      <point x="687.7016574585635" y="503.707182320442"/>
      <point x="650.8729281767955" y="503.707182320442" type="curve" smooth="yes"/>
      <point x="541.4419889502764" y="503.707182320442"/>
      <point x="510.2596685082872" y="601.8176795580109"/>
      <point x="391.1381215469614" y="601.8176795580109" type="curve" smooth="yes"/>
      <point x="331.71823204419894" y="601.8176795580109"/>
      <point x="293.53591160221" y="576.353591160221"/>
      <point x="265.1988950276243" y="545.2265193370166" type="curve"/>
    </contour>
    <component base="o"/>
  </outline>
</glyph>
<glyph name="Ertick-cy" format="2">
  <advance width="1150.8066298342542"/>
  <unicode hex="048E"/>
  <anchor x="266.71270718232034" y="0.0" name="bottom"/>
  <anchor x="597.5745856353591" y="1486.0" name="top"/>
  <outline>
    <contour>
      <point x="980.1270718232043" y="414.7127071823204" type="line"/>
      <point x="1039.2817679558011" y="464.43093922651934" type="line"/>
      <point x="606.2762430939227" y="973.5027624309391" type="line"/>
      <point x="547.121546961326" y="923.7845303867404" type="line"/>
    </contour>
    <component base="P"/>
  </outline>
</glyph>
<glyph name="gheupturn-cy" format="2">
  <advance width="778.2099447513812"/>
  <unicode hex="0491"/>
  <outline>
    <contour>
      <point x="22.055248618784532" y="0.0" type="line"/>
      <point x="525.5911602209944" y="0.0" type="line"/>
      <point x="525.5911602209944" y="36.563535911602216" type="line"/>
      <point x="346.15469613259665" y="69.12707182320442" type="line"/>
      <point x="346.15469613259665" y="952.6906077348067" type="line"/>
      <point x="754.7734806629835" y="939.9005524861878" type="line"/>
      <point x="741.9558011049724" y="1336.524861878453" type="line"/>
      <point x="673.5027624309392" y="1336.524861878453" type="line"/>
      <point x="586.6519337016575" y="1005.0" type="line"/>
      <point x="22.055248618784535" y="1005.0" type="line"/>
      <point x="22.055248618784535" y="968.4364640883978" type="line"/>
      <point x="148.9281767955801" y="935.8729281767955" type="line"/>
      <point x="148.9281767955801" y="69.12707182320442" type="line"/>
      <point x="22.055248618784532" y="36.563535911602216" type="line"/>
    </contour>
  </outline>
</glyph>
<glyph name="Enghe-cy" format="2">
  <advance width="1810.4198895027623"/>
  <unicode hex="04A4"/>
  <outline>
    <contour>
      <point x="31.337016574585643" y="0.0" type="line"/>
      <point x="535.0441988950275" y="0.0" type="line"/>
      <point x="535.0441988950275" y="36.56353591160222" type="line"/>
      <point x="389.1988950276243" y="67.69060773480663" type="line"/>
      <point x="389.1988950276243" y="732.0" type="line"/>
      <point x="1044.7679558011048" y="732.0" type="line"/>
      <point x="1044.7679558011048" y="67.69060773480663" type="line"/>
      <point x="901.7403314917127" y="36.56353591160222" type="line"/>
      <point x="901.7403314917127" y="0.0" type="line"/>
      <point x="1404.8839779005525" y="0.0" type="line"/>
      <point x="1404.8839779005525" y="36.56353591160222" type="line"/>
      <point x="1264.7292817679559" y="67.69060773480663" type="line"/>
      <point x="1264.7292817679559" y="1437.5911602209944" type="line"/>
      <point x="1554.7734806629835" y="1423.9005524861877" type="line"/>
      <point x="1655.7955801104974" y="960.6132596685084" type="line"/>
      <point x="1766.0828729281766" y="960.6132596685084" type="line"/>
      <point x="1751.3204419889503" y="1486.0" type="line"/>
      <point x="901.7403314917127" y="1486.0" type="line"/>
      <point x="901.7403314917127" y="1450.0" type="line"/>
      <point x="1044.7679558011048" y="1417.7458563535913" type="line"/>
      <point x="1044.7679558011048" y="795.1270718232045" type="line"/>
      <point x="389.1988950276243" y="795.1270718232045" type="line"/>
      <point x="389.1988950276243" y="1417.7458563535913" type="line"/>
      <point x="534.7624309392264" y="1450.0" type="line"/>
      <point x="534.7624309392264" y="1486.0" type="line"/>
      <point x="32.33701657458565" y="1486.0" type="line"/>
      <point x="32.33701657458565" y="1450.0" type="line"/>
      <point x="169.23756906077347" y="1417.7458563535913" type="line"/>
      <point x="169.23756906077347" y="67.69060773480663" type="line"/>
      <point x="31.337016574585643" y="36.56353591160222" type="line"/>
    </contour>
  </outline>
</glyph>
<glyph name="Pemiddlehook-cy" format="2">
  <advance width="2044.834254143646"/>
  <unicode hex="04A6"/>
  <anchor x="1409.6574585635358" y="0.0" name="bottomright"/>
  <outline>
    <contour>
      <point x="1502.8839779005525" y="-398.50828729281767" type="curve" smooth="yes"/>
      <point x="1824.3093922651933" y="-398.50828729281767"/>
      <point x="2000.187845303867" y="-95.75138121546962"/>
      <point x="2000.187845303867" y="331.96685082872926" type="curve" smooth="yes"/>
      <point x="2000.187845303867" y="642.7071823204419"/>
      <point x="1899.574585635359" y="855.6906077348067"/>
      <point x="1509.4364640883978" y="852.817679558011" type="curve" smooth="yes"/>
      <point x="1417.3370165745857" y="852.0994475138122"/>
      <point x="1320.7292817679559" y="828.817679558011"/>
      <point x="1213.2541436464091" y="779.7624309392266" type="curve"/>
      <point x="1209.9447513812156" y="725.07182320442" type="line"/>
      <point x="1289.0110497237567" y="759.8453038674033"/>
      <point x="1362.9668508287293" y="777.6906077348067"/>
      <point x="1453.3591160220994" y="777.6906077348067" type="curve" smooth="yes"/>
      <point x="1687.2265193370165" y="777.6906077348067"/>
      <point x="1771.635359116022" y="624.5469613259669"/>
      <point x="1771.635359116022" y="322.16574585635357" type="curve" smooth="yes"/>
      <point x="1771.635359116022" y="-138.77348066298345"/>
      <point x="1676.4530386740332" y="-348.0"/>
      <point x="1454.5414364640885" y="-348.0" type="curve" smooth="yes"/>
      <point x="1414.9337016574586" y="-348.0"/>
      <point x="1385.7513812154696" y="-344.8729281767956"/>
      <point x="1369.160220994475" y="-340.8729281767956" type="curve"/>
      <point x="1369.160220994475" y="-379.4364640883978" type="line"/>
      <point x="1392.8508287292818" y="-390.0"/>
      <point x="1453.9779005524863" y="-398.50828729281767"/>
    </contour>
    <component base="Pe-cy"/>
  </outline>
</glyph>
<glyph name="Esdescender-cy" format="2">
  <advance width="1238.8618784530388"/>
  <unicode hex="04AA"/>
  <anchor x="676.7790055248619" y="0.0" name="bottom"/>
  <anchor x="685.2320441988951" y="1486.0" name="top"/>
  <outline>
    <contour>
      <point x="721.7900552486187" y="-255.74585635359114" type="curve"/>
      <point x="683.9889502762431" y="-255.74585635359114" type="line"/>
      <point x="707.1878453038674" y="-192.04419889502762"/>
      <point x="729.0607734806631" y="-166.40883977900552"/>
      <point x="739.8342541436465" y="-108.34254143646409" type="curve"/>
      <point x="665.6353591160222" y="-106.9060773480663" type="line"/>
      <point x="679.1270718232045" y="-157.67403314917127"/>
      <point x="703.1270718232045" y="-191.76243093922653"/>
    </contour>
    <component base="C"/>
  </outline>
</glyph>
<glyph name="Tedescender-cy" format="2">
  <advance width="1345.5580110497237"/>
  <unicode hex="04AC"/>
  <anchor x="677.3425414364641" y="0.0" name="bottom"/>
  <anchor x="1042.121546961326" y="0.0" name="bottomright"/>
  <anchor x="675.6519337016575" y="705.5469613259669" name="center"/>
  <anchor x="676.7790055248619" y="1486.0" name="top"/>
  <outline>
    <contour>
      <point x="769.9005524861878" y="68.40883977900553" type="line"/>
      <point x="769.9005524861878" y="12.408839779005524" type="line"/>
      <point x="978.9005524861878" y="12.408839779005524" type="line"/>
      <point x="978.9005524861878" y="68.40883977900553" type="line"/>
    </contour>
    <component base="T"/>
    <component base="righttooth_part." xOffset="863.2707182320443"/>
  </outline>
</glyph>
<glyph name="ustrait-cy" format="2">
  <advance width="921.486187845304"/>
  <unicode hex="04AF"/>
  <anchor x="472.2707182320442" y="6.198895027624309" name="center"/>
  <outline>
    <contour>
      <point x="242.88397790055248" y="-448.76243093922653" type="line"/>
      <point x="708.9834254143648" y="-448.76243093922653" type="line"/>
      <point x="708.9834254143648" y="-412.1988950276243" type="line"/>
      <point x="572.9834254143647" y="-380.35359116022096" type="line"/>
      <point x="572.9834254143647" y="61.662983425414374" type="line"/>
      <point x="873.4309392265192" y="936.8011049723756" type="line"/>
      <point x="964.193370165746" y="969.1546961325967" type="line"/>
      <point x="964.193370165746" y="1005.0" type="line"/>
      <point x="678.3977900552487" y="1005.0" type="line"/>
      <point x="678.3977900552487" y="969.1546961325967" type="line"/>
      <point x="782.7955801104973" y="936.8011049723757" type="line"/>
      <point x="577.7458563535912" y="294.23756906077347" type="line"/>
      <point x="538.5745856353591" y="156.3977900552486" type="line"/>
      <point x="497.6850828729282" y="294.23756906077347" type="line"/>
      <point x="277.48066298342536" y="936.8011049723756" type="line"/>
      <point x="377.73480662983417" y="968.4364640883978" type="line"/>
      <point x="377.73480662983417" y="1005.0" type="line"/>
      <point x="-25.425414364640883" y="1005.0" type="line"/>
      <point x="-25.425414364640883" y="969.1546961325967" type="line"/>
      <point x="53.95580110497239" y="936.8011049723756" type="line"/>
      <point x="378.8839779005525" y="55.972375690607734" type="line"/>
      <point x="378.8839779005525" y="-380.35359116022096" type="line"/>
      <point x="242.88397790055248" y="-412.1988950276243" type="line"/>
    </contour>
  </outline>
</glyph>
<glyph name="tetse-cy" format="2">
  <advance width="1556.7845303867405"/>
  <unicode hex="04B5"/>
  <outline>
    <contour>
      <point x="228.59116022099448" y="0.0" type="line"/>
      <point x="1376.7016574585634" y="0.0" type="line"/>
      <point x="1376.7016574585634" y="936.5911602209944" type="line"/>
      <point x="1502.4475138121547" y="968.4364640883978" type="line"/>
      <point x="1502.4475138121547" y="1005.0" type="line"/>
      <point x="1055.0552486187842" y="1005.0" type="line"/>
      <point x="1055.0552486187842" y="968.4364640883978" type="line"/>
      <point x="1179.4751381215472" y="936.5911602209944" type="line"/>
      <point x="1179.4751381215472" y="59.94475138121547" type="line"/>
      <point x="613.817679558011" y="59.94475138121547" type="line"/>
      <point x="613.817679558011" y="953.0" type="line"/>
      <point x="824.5966850828728" y="943.8729281767955" type="line"/>
      <point x="880.8508287292818" y="620.4198895027624" type="line"/>
      <point x="994.0994475138123" y="620.4198895027624" type="line"/>
      <point x="986.0994475138123" y="1005.0" type="line"/>
      <point x="39.74585635359116" y="1005.0" type="line"/>
      <point x="31.74585635359115" y="620.4198895027624" type="line"/>
      <point x="143.55801104972375" y="620.4198895027624" type="line"/>
      <point x="199.8121546961326" y="943.8729281767955" type="line"/>
      <point x="416.5911602209946" y="953.0" type="line"/>
      <point x="416.5911602209946" y="68.40883977900552" type="line"/>
      <point x="228.59116022099448" y="36.563535911602216" type="line"/>
    </contour>
    <component base="righttooth_part." xOffset="1282.8066298342544"/>
  </outline>
</glyph>
<glyph name="Cheverticalstroke-cy" format="2">
  <advance width="1324.232044198895"/>
  <unicode hex="04B8"/>
  <anchor x="1293.585635359116" y="0.0" name="bottomright"/>
  <anchor x="697.4640883977901" y="715.2707182320441" name="center"/>
  <anchor x="643.6353591160221" y="1486.0" name="top"/>
  <outline>
    <contour>
      <point x="608.3977900552485" y="342.0" type="line"/>
      <point x="677.524861878453" y="342.0" type="line"/>
      <point x="677.524861878453" y="1062.0" type="line"/>
      <point x="608.3977900552485" y="1062.0" type="line"/>
    </contour>
    <component base="Che-cy"/>
  </outline>
</glyph>
<glyph name="cheverticalstroke-cy" format="2">
  <advance width="1098.745856353591"/>
  <unicode hex="04B9"/>
  <outline>
    <contour>
      <point x="601.2099447513812" y="0.0" type="line"/>
      <point x="1076.6906077348067" y="0.0" type="line"/>
      <point x="1076.6906077348067" y="36.84530386740332" type="line"/>
      <point x="949.817679558011" y="68.40883977900553" type="line"/>
      <point x="949.817679558011" y="937.7182320441989" type="line"/>
      <point x="1076.6906077348065" y="969.0" type="line"/>
      <point x="1076.6906077348065" y="1005.0" type="line"/>
      <point x="633.5524861878454" y="1005.0" type="line"/>
      <point x="633.5524861878454" y="969.0" type="line"/>
      <point x="752.5911602209944" y="937.1546961325967" type="line"/>
      <point x="752.5911602209944" y="514.0552486187846" type="line"/>
      <point x="697.3259668508288" y="481.28176795580106"/>
      <point x="600.8508287292817" y="451.635359116022"/>
      <point x="516.9944751381215" y="451.635359116022" type="curve" smooth="yes"/>
      <point x="397.939226519337" y="451.635359116022"/>
      <point x="315.3370165745856" y="511.0718232044198"/>
      <point x="315.3370165745856" y="742.4364640883979" type="curve" smooth="yes"/>
      <point x="315.3370165745856" y="937.1546961325967" type="line"/>
      <point x="434.3756906077348" y="969.0" type="line"/>
      <point x="434.3756906077348" y="1005.0" type="line"/>
      <point x="17.18232044198895" y="1005.0" type="line"/>
      <point x="17.18232044198895" y="969.0" type="line"/>
      <point x="118.11049723756905" y="937.7182320441989" type="line"/>
      <point x="118.11049723756905" y="722.4917127071824" type="line" smooth="yes"/>
      <point x="118.11049723756905" y="479.92817679558016"/>
      <point x="256.70165745856355" y="369.7458563535912"/>
      <point x="459.97237569060775" y="369.7458563535912" type="curve" smooth="yes"/>
      <point x="583.889502762431" y="369.7458563535912"/>
      <point x="687.1988950276243" y="409.3370165745857"/>
      <point x="752.5911602209944" y="464.6740331491713" type="curve"/>
      <point x="752.5911602209944" y="68.40883977900553" type="line"/>
      <point x="601.2099447513812" y="36.84530386740332" type="line"/>
    </contour>
    <contour>
      <point x="507.69613259668506" y="169.69060773480663" type="line"/>
      <point x="565.950276243094" y="169.69060773480663" type="line"/>
      <point x="565.950276243094" y="732.707182320442" type="line"/>
      <point x="507.69613259668506" y="732.707182320442" type="line"/>
    </contour>
  </outline>
</glyph>
<glyph name="Cheabkhasian-cy" format="2">
  <advance width="1606.1160220994475"/>
  <unicode hex="04BC"/>
  <anchor x="969.3204419889503" y="0.0" name="bottom"/>
  <outline>
    <contour>
      <point x="1477.3093922651933" y="371.83977900552486" type="line"/>
      <point x="1330.1160220994473" y="373.27624309392263" type="line"/>
      <point x="1287.0165745856352" y="129.77900552486187" type="line"/>
      <point x="1243.414364640884" y="79.45303867403317"/>
      <point x="1162.911602209945" y="29.381215469613263"/>
      <point x="984.4917127071824" y="29.381215469613263" type="curve" smooth="yes"/>
      <point x="719.779005524862" y="29.381215469613263"/>
      <point x="580.0220994475137" y="328.41436464088395"/>
      <point x="580.0220994475138" y="713.8563535911603" type="curve"/>
      <point x="1513.9060773480662" y="713.2928176795581" type="line"/>
      <point x="1524.1878453038673" y="760.7016574585635"/>
      <point x="1526.4696132596684" y="841.5524861878454"/>
      <point x="1526.4696132596684" y="900.4475138121546" type="curve" smooth="yes"/>
      <point x="1525.0331491712707" y="1253.0331491712707"/>
      <point x="1340.2209944751382" y="1503.4088397790056"/>
      <point x="981.8950276243095" y="1503.4088397790056" type="curve" smooth="yes"/>
      <point x="624.9723756906078" y="1503.4088397790056"/>
      <point x="376.6077348066299" y="1218.5635359116022"/>
      <point x="348.14364640883974" y="779.5745856353591" type="curve"/>
      <point x="189.6685082872928" y="781.5745856353591"/>
      <point x="163.77900552486187" y="846.939226519337"/>
      <point x="163.77900552486187" y="926.7292817679559" type="curve" smooth="yes"/>
      <point x="163.77900552486187" y="971.4640883977902"/>
      <point x="189.4972375690608" y="1046.6187845303866"/>
      <point x="211.6961325966851" y="1073.6629834254143" type="curve"/>
      <point x="63.29834254143646" y="1098.7900552486187" type="line"/>
      <point x="32.84530386740332" y="1079.1546961325967"/>
      <point x="0.0" y="995.6906077348066"/>
      <point x="0.0" y="930.646408839779" type="curve" smooth="yes"/>
      <point x="0.0" y="780.1104972375691"/>
      <point x="114.43646408839778" y="711.2928176795581"/>
      <point x="344.707182320442" y="710.9834254143647" type="curve"/>
      <point x="346.14364640883974" y="269.0110497237569"/>
      <point x="585.1878453038674" y="-22.0"/>
      <point x="971.4751381215469" y="-22.0" type="curve" smooth="yes"/>
      <point x="1253.2265193370165" y="-22.0"/>
      <point x="1357.5193370165746" y="49.71823204419889"/>
      <point x="1482.806629834254" y="52.591160220994475" type="curve"/>
    </contour>
    <contour>
      <point x="579.7403314917128" y="779.5745856353591" type="line"/>
      <point x="587.6408839779006" y="1232.8618784530388"/>
      <point x="742.3756906077349" y="1450.2817679558011"/>
      <point x="950.0386740331492" y="1450.2817679558011" type="curve" smooth="yes"/>
      <point x="1182.9889502762433" y="1450.2817679558011"/>
      <point x="1287.6629834254143" y="1183.353591160221"/>
      <point x="1289.099447513812" y="940.6795580110497" type="curve" smooth="yes"/>
      <point x="1289.099447513812" y="893.9337016574586"/>
      <point x="1287.3812154696132" y="821.3204419889503"/>
      <point x="1282.2265193370165" y="779.5745856353591" type="curve"/>
    </contour>
  </outline>
</glyph>
<glyph name="cheabkhasian-cy" format="2">
  <advance width="1162.292817679558"/>
  <unicode hex="04BD"/>
  <anchor x="719.7955801104972" y="0.0" name="bottom"/>
  <anchor x="869.2596685082872" y="20.0" name="ogonek"/>
  <anchor x="761.7955801104972" y="1110.0" name="top"/>
  <outline>
    <contour>
      <point x="298.39779005524866" y="556.4198895027624" type="line"/>
      <point x="207.31491712707182" y="559.292817679558"/>
      <point x="182.28729281767957" y="629.1657458563535"/>
      <point x="182.28729281767957" y="691.7016574585635" type="curve" smooth="yes"/>
      <point x="182.28729281767957" y="752.4917127071823"/>
      <point x="205.00552486187846" y="806.0994475138122"/>
      <point x="224.28729281767954" y="832.6353591160221" type="curve"/>
      <point x="74.98342541436463" y="858.3259668508288" type="line"/>
      <point x="47.26519337016575" y="831.6353591160221"/>
      <point x="20.983425414364646" y="767.8176795580112"/>
      <point x="20.983425414364646" y="708.4364640883978" type="curve" smooth="yes"/>
      <point x="20.983425414364646" y="583.3370165745856"/>
      <point x="138.06629834254144" y="518.1657458563535"/>
      <point x="294.39779005524866" y="514.7292817679557" type="curve"/>
    </contour>
    <component base="ie-cy" xOffset="246.5690607734807"/>
  </outline>
</glyph>
<glyph name="Kahook-cy" format="2">
  <advance width="1224.5966850828727"/>
  <unicode hex="04C3"/>
  <outline>
    <contour>
      <point x="1061.563535911602" y="1417.0276243093924" type="line"/>
      <point x="1189.2154696132598" y="1450.0" type="line"/>
      <point x="1189.2154696132598" y="1486.0" type="line"/>
      <point x="762.6629834254145" y="1486.0" type="line"/>
      <point x="762.6629834254145" y="1450.0" type="line"/>
      <point x="932.0165745856353" y="1417.0276243093924" type="line"/>
      <point x="587.1988950276243" y="841.5082872928177" type="line"/>
      <point x="527.4640883977901" y="830.5082872928178"/>
      <point x="458.6906077348066" y="809.5359116022099"/>
      <point x="397.7900552486187" y="780.5635359116023" type="curve"/>
      <point x="397.7900552486187" y="1417.0276243093924" type="line"/>
      <point x="561.5635359116022" y="1450.0" type="line"/>
      <point x="561.5635359116022" y="1486.0" type="line"/>
      <point x="31.618784530386744" y="1486.0" type="line"/>
      <point x="31.618784530386744" y="1450.0" type="line"/>
      <point x="178.26519337016572" y="1417.0276243093924" type="line"/>
      <point x="178.26519337016572" y="68.40883977900553" type="line"/>
      <point x="31.337016574585643" y="36.563535911602216" type="line"/>
      <point x="31.337016574585643" y="0.0" type="line"/>
      <point x="564.7182320441989" y="0.0" type="line"/>
      <point x="564.7182320441989" y="36.563535911602216" type="line"/>
      <point x="397.7900552486187" y="68.40883977900553" type="line"/>
      <point x="397.7900552486187" y="725.9005524861877" type="line"/>
      <point x="470.1104972375691" y="758.9005524861878"/>
      <point x="543.6850828729282" y="777.6906077348067"/>
      <point x="633.4033149171271" y="777.6906077348067" type="curve" smooth="yes"/>
      <point x="843.0441988950276" y="777.6906077348067"/>
      <point x="976.0441988950275" y="625.1104972375691"/>
      <point x="976.0441988950275" y="322.16574585635357" type="curve" smooth="yes"/>
      <point x="976.0441988950275" y="-138.77348066298345"/>
      <point x="845.2265193370165" y="-348.0"/>
      <point x="623.3149171270718" y="-348.0" type="curve" smooth="yes"/>
      <point x="583.707182320442" y="-348.0"/>
      <point x="554.5248618784531" y="-344.8729281767956"/>
      <point x="537.9337016574585" y="-340.8729281767956" type="curve"/>
      <point x="537.9337016574585" y="-379.4364640883978" type="line"/>
      <point x="561.6243093922651" y="-390.0"/>
      <point x="622.7513812154697" y="-398.50828729281767"/>
      <point x="671.6574585635359" y="-398.50828729281767" type="curve" smooth="yes"/>
      <point x="993.082872928177" y="-398.50828729281767"/>
      <point x="1204.5966850828727" y="-95.75138121546962"/>
      <point x="1204.5966850828727" y="331.96685082872926" type="curve" smooth="yes"/>
      <point x="1204.5966850828727" y="639.3977900552486"/>
      <point x="1063.4475138121547" y="849.9447513812155"/>
      <point x="706.646408839779" y="852.8176795580112" type="curve"/>
    </contour>
  </outline>
</glyph>
<glyph name="Enhook-cy" format="2">
  <advance width="1454.8950276243095"/>
  <unicode hex="04C7"/>
  <outline>
    <contour>
      <point x="796.0" y="-357.5524861878453" type="line"/>
      <point x="1000.0220994475137" y="-326.1160220994475"/>
      <point x="1197.1491712707182" y="-191.40883977900552"/>
      <point x="1244.911602209945" y="21.099447513812148" type="curve" smooth="yes"/>
      <point x="1270.3204419889505" y="136.36464088397793"/>
      <point x="1265.85635359116" y="266.3977900552486"/>
      <point x="1265.85635359116" y="496.8508287292818" type="curve" smooth="yes"/>
      <point x="1265.85635359116" y="1418.3093922651935" type="line"/>
      <point x="1403.6022099447512" y="1449.7182320441989" type="line"/>
      <point x="1403.6022099447512" y="1486.0" type="line"/>
      <point x="901.7403314917127" y="1486.0" type="line"/>
      <point x="901.7403314917127" y="1449.7182320441989" type="line"/>
      <point x="1045.8950276243093" y="1418.3093922651935" type="line"/>
      <point x="1045.8950276243093" y="795.1270718232045" type="line"/>
      <point x="390.32596685082876" y="795.1270718232045" type="line"/>
      <point x="390.32596685082876" y="1418.3093922651935" type="line"/>
      <point x="534.7624309392265" y="1449.7182320441989" type="line"/>
      <point x="534.7624309392265" y="1486.0" type="line"/>
      <point x="32.33701657458565" y="1486.0" type="line"/>
      <point x="32.33701657458565" y="1449.7182320441989" type="line"/>
      <point x="170.36464088397787" y="1418.3093922651935" type="line"/>
      <point x="170.36464088397787" y="67.69060773480662" type="line"/>
      <point x="31.337016574585643" y="36.281767955801115" type="line"/>
      <point x="31.337016574585643" y="0.0" type="line"/>
      <point x="535.0441988950276" y="0.0" type="line"/>
      <point x="535.0441988950276" y="36.281767955801115" type="line"/>
      <point x="390.32596685082876" y="67.69060773480662" type="line"/>
      <point x="390.32596685082876" y="732.0" type="line"/>
      <point x="1045.8950276243093" y="732.0" type="line"/>
      <point x="1045.8950276243093" y="453.02762430939225" type="line" smooth="yes"/>
      <point x="1045.8950276243093" y="179.5414364640884"/>
      <point x="1040.9502762430939" y="63.59668508287294"/>
      <point x="1009.6408839779002" y="-40.82320441988951" type="curve"/>
      <point x="965.9502762430939" y="-185.97790055248618"/>
      <point x="868.0276243093923" y="-273.7900552486187"/>
      <point x="755.3812154696133" y="-309.17127071823205" type="curve"/>
    </contour>
  </outline>
</glyph>
<glyph name="Obarred-cy" format="2">
  <advance width="1382.707182320442"/>
  <unicode hex="04E8"/>
  <anchor x="700.3701657458564" y="0.0" name="bottom"/>
  <anchor x="691.6353591160221" y="741.0" name="center"/>
  <anchor x="791.8618784530387" y="12.81767955801105" name="ogonek"/>
  <anchor x="834.8831657458564" y="0.0" name="qq"/>
  <anchor x="696.4806629834254" y="1486.0" name="top"/>
  <anchor x="16.988950276243095" y="1486.0" name="topleft"/>
  <anchor x="1303.7292817679559" y="1486.0" name="topright"/>
  <outline>
    <contour>
      <point x="206.92265193370167" y="706.7182320441989" type="line"/>
      <point x="1162.4475138121547" y="706.7182320441989" type="line"/>
      <point x="1164.4475138121547" y="776.7182320441989" type="line"/>
      <point x="207.92265193370164" y="776.7182320441989" type="line"/>
    </contour>
    <component base="O"/>
  </outline>
</glyph>
<glyph name="Gedescender-cy" format="2">
  <advance width="1118.6629834254143"/>
  <unicode hex="04F6"/>
  <anchor x="775.7292817679559" y="0.0" name="bottomright"/>
  <anchor x="538.8950276243094" y="744.0" name="center"/>
  <anchor x="636.3756906077348" y="1486.0" name="top"/>
  <outline>
    <contour>
      <point x="354.00000000000006" y="68.40883977900552" type="line"/>
      <point x="354.00000000000006" y="23.127071823204414" type="line"/>
      <point x="736.0" y="23.127071823204414" type="line"/>
      <point x="736.0" y="68.40883977900552" type="line"/>
    </contour>
    <component base="Ge-cy"/>
    <component base="righttooth_part." xOffset="547.6408839779006"/>
  </outline>
</glyph>
<glyph name="hastroke-cy" format="2">
  <advance width="1014.0331491712706"/>
  <unicode hex="04FF"/>
  <outline>
    <contour>
      <point x="136.09392265193367" y="483.05524861878445" type="line"/>
      <point x="470.364640883978" y="483.05524861878445" type="line"/>
      <point x="561.0773480662983" y="483.05524861878445" type="line"/>
      <point x="858.0386740331492" y="483.05524861878445" type="line"/>
      <point x="858.0386740331492" y="533.5635359116022" type="line"/>
      <point x="522.5690607734807" y="533.5635359116022" type="line"/>
      <point x="434.54696132596683" y="533.5635359116022" type="line"/>
      <point x="136.09392265193367" y="533.5635359116022" type="line"/>
    </contour>
    <component base="x"/>
  </outline>
</glyph>
<glyph name="Komidje-cy" format="2">
  <advance width="1738.6740331491715"/>
  <unicode hex="0502"/>
  <outline>
    <contour>
      <point x="1640.878453038674" y="810.7458563535911" type="line"/>
      <point x="1779.0165745856352" y="843.7182320441989" type="line"/>
      <point x="1779.0165745856352" y="879.7182320441989" type="line"/>
      <point x="1269.9613259668508" y="879.7182320441989" type="line"/>
      <point x="1269.9613259668508" y="843.7182320441989" type="line"/>
      <point x="1420.9171270718232" y="810.7458563535911" type="line"/>
      <point x="1420.9171270718232" y="324.37016574585635" type="line" smooth="yes"/>
      <point x="1420.9171270718232" y="103.01657458563537"/>
      <point x="1326.2044198895028" y="30.198895027624307"/>
      <point x="1199.7403314917128" y="30.198895027624314" type="curve" smooth="yes"/>
      <point x="1040.9558011049724" y="30.198895027624303"/>
      <point x="980.7182320441989" y="111.6353591160221"/>
      <point x="980.7182320441989" y="288.4585635359116" type="curve" smooth="yes"/>
      <point x="980.7182320441989" y="1418.3093922651933" type="line"/>
      <point x="1129.5193370165748" y="1450.4364640883978" type="line"/>
      <point x="1129.5193370165748" y="1486.7182320441989" type="line"/>
      <point x="578.7458563535913" y="1486.7182320441989" type="line"/>
      <point x="578.7458563535912" y="1450.4364640883978" type="line"/>
      <point x="756.8839779005525" y="1418.3093922651933" type="line"/>
      <point x="756.8839779005524" y="896.8011049723757" type="line"/>
      <point x="677.46408839779" y="906.6740331491714"/>
      <point x="625.2265193370166" y="915.1104972375691"/>
      <point x="551.6519337016575" y="915.1104972375691" type="curve" smooth="yes"/>
      <point x="288.5303867403315" y="915.1104972375691"/>
      <point x="20.0" y="749.110497237569"/>
      <point x="19.999999999999993" y="424.4640883977901" type="curve" smooth="yes"/>
      <point x="19.999999999999996" y="146.80110497237567"/>
      <point x="221.25414364640883" y="-16.0"/>
      <point x="532.8729281767957" y="-16.0" type="curve" smooth="yes"/>
      <point x="662.0386740331492" y="-16.0"/>
      <point x="765.4475138121546" y="22.41988950276243"/>
      <point x="850.4364640883978" y="83.71823204419888" type="curve"/>
      <point x="919.4806629834254" y="17.30939226519337"/>
      <point x="1029.187845303867" y="-16.0"/>
      <point x="1196.867403314917" y="-16.0" type="curve" smooth="yes"/>
      <point x="1471.022099447514" y="-16.0"/>
      <point x="1640.878453038674" y="111.49171270718233"/>
      <point x="1640.878453038674" y="357.35911602209944" type="curve" smooth="yes"/>
    </contour>
    <contour>
      <point x="756.8839779005525" y="363.10497237569064" type="line" smooth="yes"/>
      <point x="756.8839779005525" y="269.91712707182324"/>
      <point x="774.5469613259669" y="183.5635359116022"/>
      <point x="817.1546961325968" y="123.61878453038673" type="curve"/>
      <point x="760.0994475138123" y="75.56353591160222"/>
      <point x="691.0994475138122" y="42.94475138121547"/>
      <point x="592.5248618784531" y="42.94475138121547" type="curve" smooth="yes"/>
      <point x="392.9944751381216" y="42.94475138121547"/>
      <point x="252.29834254143645" y="183.39779005524863"/>
      <point x="252.29834254143648" y="440.05524861878456" type="curve" smooth="yes"/>
      <point x="252.29834254143648" y="730.6574585635359"/>
      <point x="436.23204419889504" y="850.5469613259668"/>
      <point x="595.1325966850828" y="850.5469613259668" type="curve" smooth="yes"/>
      <point x="661.7624309392265" y="850.5469613259668"/>
      <point x="700.6906077348067" y="842.9558011049724"/>
      <point x="756.8839779005524" y="834.3646408839779" type="curve"/>
    </contour>
  </outline>
</glyph>
<glyph name="Komidzje-cy" format="2">
  <advance width="1103.4143646408838"/>
  <unicode hex="0506"/>
  <outline>
    <contour>
      <point x="906.2817679558011" y="0.0" type="line"/>
      <point x="1013.8618784530387" y="72.0" type="line"/>
      <point x="756.8895027624309" y="72.0" type="line"/>
      <point x="906.0883977900552" y="137.1270718232044"/>
      <point x="989.4530386740331" y="253.2817679558011"/>
      <point x="989.4530386740331" y="410.0276243093923" type="curve" smooth="yes"/>
      <point x="989.4530386740331" y="620.2265193370166"/>
      <point x="838.2541436464088" y="774.7458563535912"/>
      <point x="567.7845303867405" y="784.0" type="curve"/>
      <point x="721.8453038674033" y="811.4088397790056"/>
      <point x="920.0441988950275" y="931.8453038674032"/>
      <point x="920.0441988950275" y="1155.6629834254143" type="curve" smooth="yes"/>
      <point x="920.0441988950275" y="1377.7182320441989"/>
      <point x="736.4530386740332" y="1502.0"/>
      <point x="434.0110497237569" y="1502.0" type="curve" smooth="yes"/>
      <point x="250.45856353591157" y="1502.0"/>
      <point x="167.75690607734805" y="1443.8453038674033"/>
      <point x="41.07182320441989" y="1437.4088397790056" type="curve"/>
      <point x="36.408839779005525" y="1095.3756906077347" type="line"/>
      <point x="166.72928176795583" y="1095.3756906077347" type="line"/>
      <point x="227.18232044198894" y="1374.2265193370165" type="line"/>
      <point x="249.64640883977907" y="1412.2817679558011"/>
      <point x="315.2928176795581" y="1450.4640883977902"/>
      <point x="420.8397790055248" y="1450.4640883977902" type="curve" smooth="yes"/>
      <point x="597.9447513812154" y="1450.4640883977902"/>
      <point x="699.9834254143647" y="1341.4806629834254"/>
      <point x="699.9834254143647" y="1133.1988950276243" type="curve" smooth="yes"/>
      <point x="699.9834254143647" y="892.2541436464088"/>
      <point x="525.7790055248619" y="795.2265193370166"/>
      <point x="368.02209944751377" y="797.3812154696133" type="curve"/>
      <point x="263.20441988950273" y="806.353591160221" type="line"/>
      <point x="263.9226519337016" y="721.8729281767957" type="line"/>
      <point x="393.767955801105" y="734.3812154696134" type="line"/>
      <point x="667.1546961325967" y="739.4088397790056"/>
      <point x="760.0386740331492" y="600.9723756906077"/>
      <point x="760.0386740331492" y="396.2817679558011" type="curve" smooth="yes"/>
      <point x="760.0386740331492" y="171.11602209944755"/>
      <point x="641.4806629834254" y="65.18232044198894"/>
      <point x="515.2928176795581" y="64.46408839779005" type="curve"/>
      <point x="515.011049723757" y="0.0" type="line"/>
    </contour>
    <component base="righttooth_part." xOffset="807.5745856353591"/>
  </outline>
</glyph>
<glyph name="komilje-cy" format="2">
  <advance width="1479.8342541436464"/>
  <unicode hex="0509"/>
  <outline>
    <contour>
      <point x="1010.5138121546961" y="-19.972375690607734" type="curve" smooth="yes"/>
      <point x="1235.817679558011" y="-19.972375690607734"/>
      <point x="1366.6519337016573" y="88.74585635359115"/>
      <point x="1366.6519337016573" y="323.39779005524866" type="curve" smooth="yes"/>
      <point x="1366.6519337016573" y="527.2817679558011" type="line"/>
      <point x="1479.8342541436464" y="559.1270718232045" type="line"/>
      <point x="1479.8342541436464" y="595.6906077348067" type="line"/>
      <point x="1046.4972375690609" y="595.6906077348067" type="line"/>
      <point x="1046.4972375690609" y="559.1270718232045" type="line"/>
      <point x="1169.988950276243" y="527.2817679558011" type="line"/>
      <point x="1169.988950276243" y="313.57458563535914" type="line" smooth="yes"/>
      <point x="1169.988950276243" y="114.28176795580112"/>
      <point x="1117.0331491712707" y="33.97237569060773"/>
      <point x="1013.232044198895" y="33.97237569060773" type="curve" smooth="yes"/>
      <point x="909.4309392265194" y="33.97237569060773"/>
      <point x="857.6022099447514" y="114.28176795580112"/>
      <point x="857.6022099447514" y="313.57458563535914" type="curve" smooth="yes"/>
      <point x="857.6022099447514" y="936.5911602209945" type="line"/>
      <point x="986.1657458563536" y="968.4364640883978" type="line"/>
      <point x="986.1657458563536" y="1005.0" type="line"/>
      <point x="138.1270718232044" y="1005.0" type="line"/>
      <point x="138.1270718232044" y="968.4364640883978" type="line"/>
      <point x="301.56353591160223" y="936.5911602209944" type="line"/>
      <point x="301.56353591160223" y="417.8618784530387"/>
      <point x="258.49171270718233" y="169.8121546961326"/>
      <point x="113.56353591160222" y="169.8121546961326" type="curve" smooth="yes"/>
      <point x="81.49171270718233" y="169.8121546961326"/>
      <point x="36.027624309392266" y="174.8121546961326"/>
      <point x="9.74585635359116" y="181.81215469613255" type="curve"/>
      <point x="24.309392265193367" y="-5.690607734806631" type="line"/>
      <point x="44.30939226519337" y="-12.408839779005524"/>
      <point x="70.46408839779005" y="-17.69060773480663"/>
      <point x="98.30939226519338" y="-17.69060773480663" type="curve" smooth="yes"/>
      <point x="185.30939226519334" y="-17.69060773480663"/>
      <point x="247.2817679558011" y="33.02762430939227"/>
      <point x="286.0" y="110.8729281767956" type="curve" smooth="yes"/>
      <point x="331.15469613259665" y="201.5911602209945"/>
      <point x="377.2541436464088" y="413.1436464088398"/>
      <point x="377.2541436464088" y="832.9447513812154" type="curve" smooth="yes"/>
      <point x="377.2541436464088" y="943.6187845303867" type="line"/>
      <point x="660.3756906077348" y="943.6187845303867" type="line"/>
      <point x="660.3756906077348" y="324.11602209944755" type="line" smooth="yes"/>
      <point x="660.3756906077348" y="89.46408839779005"/>
      <point x="785.7734806629834" y="-19.972375690607734"/>
    </contour>
  </outline>
</glyph>
<glyph name="elhook-cy" format="2">
  <advance width="994.5580110497236"/>
  <unicode hex="0513"/>
  <outline>
    <contour>
      <point x="508.0718232044199" y="-480.69060773480663" type="curve" smooth="yes"/>
      <point x="701.5524861878454" y="-480.69060773480663"/>
      <point x="857.0386740331492" y="-315.425414364641"/>
      <point x="857.0386740331492" y="23.563535911602205" type="curve" smooth="yes"/>
      <point x="857.0386740331492" y="936.5911602209945" type="line"/>
      <point x="982.5027624309394" y="968.4364640883978" type="line"/>
      <point x="982.5027624309394" y="1005.0" type="line"/>
      <point x="139.25414364640883" y="1005.0" type="line"/>
      <point x="139.25414364640883" y="968.4364640883978" type="line"/>
      <point x="303.2541436464088" y="936.5911602209944" type="line"/>
      <point x="303.2541436464088" y="406.0276243093923"/>
      <point x="258.49171270718233" y="168.6850828729282"/>
      <point x="113.56353591160223" y="168.6850828729282" type="curve" smooth="yes"/>
      <point x="81.49171270718232" y="168.6850828729282"/>
      <point x="36.027624309392266" y="173.68508287292818"/>
      <point x="9.745856353591162" y="180.68508287292815" type="curve"/>
      <point x="24.309392265193367" y="-5.690607734806631" type="line"/>
      <point x="44.309392265193374" y="-12.408839779005524"/>
      <point x="70.46408839779006" y="-17.69060773480663"/>
      <point x="98.30939226519338" y="-17.69060773480663" type="curve" smooth="yes"/>
      <point x="185.59116022099445" y="-17.69060773480663"/>
      <point x="246.4364640883978" y="33.59116022099448"/>
      <point x="285.4364640883978" y="110.8729281767956" type="curve" smooth="yes"/>
      <point x="330.87292817679554" y="201.3093922651934"/>
      <point x="376.69060773480663" y="401.30939226519337"/>
      <point x="376.69060773480663" y="832.9447513812154" type="curve" smooth="yes"/>
      <point x="376.69060773480663" y="944.182320441989" type="line"/>
      <point x="659.8121546961326" y="944.182320441989" type="line"/>
      <point x="659.8121546961326" y="39.309392265193374" type="line" smooth="yes"/>
      <point x="659.8121546961326" y="-233.5745856353591"/>
      <point x="613.2651933701658" y="-336.5745856353591"/>
      <point x="553.3922651933701" y="-384.292817679558" type="curve" smooth="yes"/>
      <point x="516.828729281768" y="-413.1381215469614"/>
      <point x="471.03867403314916" y="-424.1381215469613"/>
      <point x="430.5303867403315" y="-424.1381215469613" type="curve"/>
      <point x="435.9116022099448" y="-473.30939226519337" type="line"/>
      <point x="450.70165745856355" y="-477.56353591160223"/>
      <point x="481.5911602209944" y="-480.69060773480663"/>
    </contour>
  </outline>
</glyph>
